<?xml version="1.0" standalone="no"?>
<!DOCTYPE svg PUBLIC "-//W3C//DTD SVG 1.1//EN" "http://www.w3.org/Graphics/SVG/1.1/DTD/svg11.dtd" >
<svg xmlns="http://www.w3.org/2000/svg" xmlns:xlink="http://www.w3.org/1999/xlink" version="1.1">
<metadata>
Created by FontForge 20201107 at Thu Jul 28 13:02:58 2022
 By Unknown
Braniella(c)(Arunatype). 2022. All Rights Reserved
</metadata>
<defs>
<font id="Braniella" horiz-adv-x="604" >
  <font-face 
    font-family="Braniella"
    font-weight="400"
    font-stretch="normal"
    units-per-em="1000"
    panose-1="2 0 5 0 0 0 0 0 0 0"
    ascent="800"
    descent="-200"
    x-height="358"
    cap-height="865"
    bbox="-227 -451 1976 1125"
    underline-thickness="50"
    underline-position="-100"
    unicode-range="U+0020-E06D"
  />
<missing-glyph horiz-adv-x="500" 
 />
    <glyph glyph-name="tt" unicode="tt" horiz-adv-x="605" 
d="M435 -13q-80 0 -101 152q-11 -18 -25 -34q-39 -48 -85 -85q-44 -33 -81 -33q-54 0 -79 63q-28 70 -28 206q0 116 15 237q-49 -3 -92 -3q-150 0 -177 40q-4 7 -4 14q0 12 11 20q6 4 13 4q12 0 20 -11t37 -15.5t74 -4.5q53 0 123 5q16 113 23 149q2 9 8.5 14.5t14.5 5.5
q12 0 18.5 -8t6.5 -16l-21 -142l156 12q45 5 90 8l18 126q2 9 9 14.5t15 5.5q12 0 18.5 -8t6.5 -16l-1 -5l-17 -114q96 8 172 8q101 0 147 -21q12 -8 12 -21q0 -6 -3 -12q-9 -12 -21 -12q-7 0 -13 3q-33 15 -114 15q-78 0 -186 -9q-18 -136 -18 -269v-27q1 -3 1 -8
q0 -10 1 -18q3 -80 22 -128q14 -33 36 -33q20 1 49 23q42 32 77 78q45 56 60 90q8 15 22 15q5 0 10 -2q15 -8 15 -23q0 -4 -2 -9q-17 -40 -67 -103q-39 -48 -85 -85q-45 -33 -81 -33zM149 36q18 3 45 23q42 32 77 78q41 51 57 85v27q0 131 17 266l-143 -12l-102 -7
q-15 -121 -15 -238q0 -131 24 -189q14 -33 36 -33h4z" />
    <glyph glyph-name="ll" unicode="ll" horiz-adv-x="619" 
d="M88 316q124 91 210 223q57 94 57 170q0 36 -12.5 63.5t-35.5 38.5q-14 8 -30 8q-75 0 -124 -138q-65 -208 -65 -365zM560 -90q-15 0 -28 4q-84 28 -105 197l-1 9q-82 -130 -160 -156q-23 -8 -45 -8q-35 0 -66 20q-48 29 -77 100q-39 89 -39 230q0 180 67 390
q25 75 62 116q51 55 110 55q27 0 52 -12q37 -20 58 -64q16 -34 16 -80q0 -91 -64 -197q-67 -103 -144 -170q0 -2 -1 -2q-53 -46 -106 -87q7 -96 34 -160q37 -90 99 -90q92 0 199 206v32q0 121 17 245q39 270 107 307q0 1 2 1q14 8 26 8q20 0 37 -21t22 -70q1 -13 1 -29
q0 -74 -36.5 -197.5t-126.5 -285.5q0 -44 5 -83q9 -67 28 -110q22 -49 59 -49h11q9 0 16 -6.5t7 -18.5q0 -24 -36 -24zM470 304q63 127 88.5 223.5t25.5 155.5q0 54 -13 70h-2q-18 -10 -40 -72q-47 -151 -59 -377z" />
    <glyph glyph-name="rr" unicode="rr" horiz-adv-x="648" 
d="M222 -20q-49 0 -66 106q-5 29 -5 62q0 38 5 76q8 61 23 104q-10 1 -25 1t-33 2q-12 -51 -42 -123q-9 -15 -23 -15q-5 0 -10 2q-14 8 -14 22q0 5 2 10q27 66 40 107l-2 1h-3q-46 8 -65 27.5t-19 42.5q0 6 1 11q8 33 40 54q21 15 44 15q12 0 23 -5q37 -14 37 -78l-1 -23
q24 0 64 -4q45 -4 45 -28q0 -6 -4 -14l-1 -2q-18 -36 -28 -113q-6 -38 -6 -75q0 -26 4 -50q12 -64 20 -64q16 5 36 39q33 56 66 142l5 15q19 52 33 110q-97 31 -126 86q-17 30 -17 61q0 15 4 28q11 37 43 58l4 2q30 15 58 15q33 0 56 -17q47 -31 47 -102q0 -41 -10 -88
q6 -1 13 -1q23 0 56 -2q44 -4 44 -28q0 -6 -4 -14q-13 -26 -22.5 -81t-9.5 -110q0 -70 15 -99q4 -11 11 -11q14 0 39 24q36 36 65 87.5t43 85.5q9 15 23 15q5 0 10 -2q14 -8 14 -23q0 -5 -3 -11.5t-8 -16.5q-48 -109 -111 -171q-41 -37 -71 -37q-38 0 -55 37q-21 39 -21 119
q0 100 26 188q-29 0 -47 2h-17q-15 -60 -34 -113q0 -9 -35 -88q-60 -133 -113 -147zM373 384q10 48 10 76q0 49 -26 69q-9 7 -27 7q-17 0 -37 -10q-24 -16 -24 -47q4 -64 104 -95zM85 382q2 13 2 22q0 32 -18 32q-7 0 -17 -6q-15 -10 -17 -25q0 -14 42 -22z" />
    <glyph glyph-name="oo" unicode="oo" horiz-adv-x="868" 
d="M715 188q0 44 -8 70.5t-23 40.5q-11 12 -26 12q-6 0 -13 -2q0 -1 -3.5 -2.5t-3.5 -8.5q0 -8 4 -20q17 -47 73 -90zM321 225l1 30q-1 44 -12 80t-29.5 55t-41.5 19q-10 0 -20 -3q0 -1 -2 -1q-12 -6 -12 -19q0 -36 38 -86q31 -43 78 -75zM618 -4h-5q-30 0 -58 17t-46 51
q-21 40 -21 94q-33 -16 -68 -16q-32 0 -63 11q-25 -93 -104 -139q-34 -18 -72 -18q-39 0 -73.5 21t-57.5 65t-26 111q0 105 53 191q39 65 112 70h5q7 0 13 -1q18 6 34 6q43 0 73 -34q54 -56 57 -169q0 -27 -3 -54q25 -10 51 -10q41 0 78 31q31 134 136 134q13 4 25 4
q36 0 61 -28q23 -22 33.5 -57.5t11.5 -75.5q0 -18 -2 -37q16 -6 32 -6q58 0 92 74q9 14 22 14q5 0 10 -3q15 -8 15 -22q0 -5 -2 -10q-50 -103 -134 -103q-22 0 -45 7q-20 -69 -81 -104q-26 -14 -53 -14zM185 44q23 1 46 13q63 38 81 117q-4 1 -8 4q-60 39 -100 93
q-48 62 -48 116l1 10q-23 -14 -40 -40q-29 -49 -39 -107q-5 -26 -5 -48q3 -107 61 -143q24 -15 51 -15zM616 44q17 1 33 10q44 25 58 81q-35 20 -62 50q-35 38 -49 78q-7 17 -7 33q-10 -9 -19 -22q-22 -36 -29 -80q-4 -24 -4 -41q2 -40 15 -66q23 -43 64 -43z" />
    <glyph glyph-name=".notdef" horiz-adv-x="500" 
 />
    <glyph glyph-name="uni0000" horiz-adv-x="0" 
 />
    <glyph glyph-name="uni0000" horiz-adv-x="0" 
 />
    <glyph glyph-name="uni0009" horiz-adv-x="152" 
 />
    <glyph glyph-name="space" unicode=" " horiz-adv-x="396" 
 />
    <glyph glyph-name="space" unicode="&#xa0;" horiz-adv-x="396" 
 />
    <glyph glyph-name="A" unicode="A" horiz-adv-x="581" 
d="M63 -210h-4q-8 0 -15 5.5t-9 14.5q-2 15 -2 36q0 96 43 292l29 126q-58 -10 -90 -26q4 -6 4 -13q0 -12 -10 -20q-7 -5 -15 -5q-11 0 -19 10q-10 14 -10 27q0 36 51 55q37 14 97 23l5 1q40 152 87 288q75 213 136 279q31 31 60 31q37 -2 58 -47q34 -68 34 -271
q0 -102 -3 -200l-1 -76q43 -6 74 -15q18 -7 18 -23q0 -4 -1 -7q-8 -18 -24 -18l-6 1q-22 7 -51 11l-10 2q0 -128 11.5 -238.5t45.5 -150.5q7 -8 7 -18q0 -9 -7.5 -16.5t-16.5 -7.5q-10 0 -18 8q-42 49 -56.5 168.5t-14.5 259.5q-53 4 -111 4q-88 0 -172 -9l-34 -143
q-42 -197 -42 -284l2 -30q0 -8 -5.5 -15t-14.5 -9zM170 322q73 7 150 7q62 0 120 -5l4 207v67q0 191 -29 249q-9 17 -16 18q-6 0 -22 -16q-53 -58 -125 -261q-44 -126 -82 -266z" />
    <glyph glyph-name="B" unicode="B" horiz-adv-x="796" 
d="M253 -175q-124 0 -209 42q-79 38 -86 106l-1 6q0 15 8 22.5t18 7.5q10 -1 16.5 -7.5t6.5 -15.5v-9q6 -40 59 -66q76 -37 195 -37l39 1q158 13 258 77t141 148q28 57 28 110q0 87 -70 135q-47 32 -125 32q-97 0 -244 -62h-2q-7 -3 -12 -3q-9 0 -17 12q0 2 -2 4q-3 8 -3 13
q0 8 5 12t14 9q21 11 82.5 54.5t125.5 109.5q122 133 122 225q0 13 -2 24q-13 50 -63 72q-43 20 -102 20q-121 0 -247 -82q-108 -70 -174 -205q-9 -14 -22 -14q-6 0 -11 3q-15 8 -15 21q0 6 3 11q73 147 192 225q138 89 278 89q67 0 119 -24q72 -32 89 -106q4 -16 4 -35
q0 -110 -135 -257q-42 -43 -85 -79q56 12 102 12q95 0 152 -40q74 -51 89 -136q3 -19 3 -39q0 -64 -33 -132q-46 -96 -156 -167.5t-284 -84.5q-25 -2 -49 -2zM221 -72h-4q-18 0 -23 22q-9 109 -9 242q0 163 13 310q10 119 31 164q11 23 32 23q5 0 10 -2q17 -8 17 -24l-1 -7
q-11 -11 -16 -19q-13 -24 -25 -138q-12 -147 -12 -308q0 -131 9 -237q0 -11 -6 -18t-16 -8z" />
    <glyph glyph-name="C" unicode="C" horiz-adv-x="715" 
d="M303 -200q-90 0 -166 48q-92 59 -118 186q-7 40 -7 86q0 77 20 163q69 294 353 536q43 36 85 57q59 30 109 30h5q73 0 109 -66q10 -19 10 -63q0 -159 -119 -263q-8 -6 -17 -6q-10 0 -17 8t-7 16q0 11 9 20q63 54 84 123q19 62 19 103q0 29 -5 39t-11 16q-20 24 -56 25
q-39 0 -90 -26q-38 -18 -76 -50q-193 -164 -278 -346q-78 -164 -78 -319q0 -30 3 -58q19 -119 100 -170q62 -39 138 -39q31 0 46 3l9 1q124 25 221 140q90 113 152 237q9 13 22 13q6 0 12 -3q13 -9 13 -22q0 -5 -3 -10q-64 -128 -158 -247q-109 -130 -251 -156l-10 -1
q-26 -5 -52 -5z" />
    <glyph glyph-name="D" unicode="D" horiz-adv-x="804" 
d="M273 -175l-33 1q-108 7 -181 43q-88 43 -88 122q1 10 7.5 16.5t17.5 6.5q11 -1 17.5 -7.5t6.5 -15.5v-10q5 -40 62 -68q79 -39 201 -39l42 1q146 12 234.5 67t128 140t39.5 183l-1 39q-14 170 -103 319t-213 210q-50 24 -102 24q-74 0 -147 -58t-136 -190q-9 -14 -22 -14
q-5 0 -10 2q-15 9 -15 22q0 6 3 11q70 148 154 212.5t170 64.5q64 0 126 -29q138 -68 233.5 -228t110.5 -343l1 -42q0 -110 -43.5 -206t-142.5 -158t-262 -74q-28 -2 -55 -2zM234 -72h-3q-9 0 -15.5 6t-8.5 16q-9 108 -9 240q0 164 13 312q8 76 17 122q13 65 47 65
q5 0 10 -2q16 -8 16 -23l-1 -8q-10 -11 -15 -19q-16 -27 -25 -138q-13 -149 -13 -312q0 -106 9 -236q0 -9 -6 -15.5t-16 -7.5z" />
    <glyph glyph-name="E" unicode="E" horiz-adv-x="601" 
d="M140 -190q-159 0 -159 27q0 13 52 32l6 1q13 4 44 9q-6 99 -6 219q0 101 3 209q-38 3 -50 8q-33 14 -33 27q0 23 87 37q11 251 30 402q-3 -1 -8 -1q-56 2 -71 7q-52 15 -52 28q0 16 65 29q26 6 91 11q7 2 14 2l1 -1q119 9 243 9q152 0 205 -16q17 -8 17 -24l-1 -7
q-8 -17 -24 -17l-7 1q-65 15 -188 15q-116 0 -231 -9q-22 -140 -35 -423q74 7 150 7q107 0 144 -17q15 -9 15 -22q0 -6 -3 -11q-8 -14 -23 -14q-5 0 -10 2q-41 14 -121 14q-76 0 -154 -8q-5 -121 -5 -234q0 -129 7 -235l1 -8h16q109 0 254.5 10t206.5 32l8 1q15 0 24 -15
l1 -8q0 -17 -15 -24q-66 -23 -218 -34t-271 -11z" />
    <glyph glyph-name="F" unicode="F" horiz-adv-x="483" 
d="M0 719l-6 1q-19 8 -19 24l1 6q14 48 84 77.5t170.5 43.5t202.5 14q135 0 232 -20q91 -19 98 -63v-3q0 -22 -27 -42h-1q-9 -7 -27 -16l-26 -12q-5 -2 -9 -2q-15 0 -23 15q-2 5 -2 10q0 14 15 22l24 11q23 13 25 13h2q0 6 -60 19q-88 18 -235 18q-135 0 -255.5 -22.5
t-140.5 -74.5q-2 -8 -8.5 -13.5t-14.5 -5.5zM115 -188h-4q-9 0 -15.5 6t-7.5 16q-10 119 -10 290q0 92 3 183h-6q-40 3 -52 8q-33 14 -33 27q0 15 44 28q17 6 50 10l5 96q6 86 19.5 149.5t46.5 63.5q5 0 10 -2q17 -7 17 -22q0 -5 -2 -9q-10 -11 -15 -19.5t-8 -23.5
q-18 -75 -24 -228q71 7 142 7q107 0 145 -17q14 -9 14 -23q0 -5 -2 -10q-9 -14 -23 -14q-4 0 -9 2q-42 14 -123 14q-72 0 -146 -8q-4 -106 -4 -215q0 -167 10 -283q0 -11 -6 -18t-16 -8z" />
    <glyph glyph-name="G" unicode="G" horiz-adv-x="791" 
d="M307 -200q-90 0 -165 48q-93 59 -119 186q0 4 -1 9t-1 10q-4 33 -4 69q0 162 83 336q88 190 290 361q43 36 85 57q59 30 108 30h5q74 0 110 -66q9 -19 9 -63q0 -160 -119 -263q-8 -6 -16 -6q-10 0 -17 8t-7 17q0 10 9 19q62 54 84 123q19 63 19 104q0 28 -5 37.5
t-10 15.5l-1 1q-21 24 -56 25q-39 0 -91 -26q-37 -18 -76 -50q-192 -164 -277 -346q-79 -162 -79 -316q0 -32 4 -61q19 -120 100 -170q62 -39 138 -39q30 0 45 3q4 1 9 1q92 20 178.5 101t136.5 176q35 65 35 118q0 23 -10 39q-15 25 -68 25q-68 -1 -126 -59
q-53 -52 -80 -143q-2 -8 -9 -13t-15 -5q-11 0 -19 10q-5 7 -5 15l1 6q32 104 92 164q70 68 148 73h13q76 0 108 -45q19 -29 19 -67q0 -62 -41 -140q-54 -104 -150 -192.5t-199 -110.5l-7 -1q-29 -5 -56 -5z" />
    <glyph glyph-name="H" unicode="H" horiz-adv-x="744" 
d="M670 844q7 19 24 19q3 0 6 -1q18 -6 18 -23q0 -3 -1 -7q-13 -55 -25.5 -170t-21.5 -256l-1 -11q27 0 48 -3q10 -1 16 -8t6 -16v-2q-2 -10 -8.5 -16t-15.5 -6h-4q-20 2 -44 2q-7 -134 -7 -251q0 -78 4 -142v-2q0 -10 -6.5 -16.5t-16.5 -7.5h-2q-9 0 -16 6.5t-8 16.5
q-4 66 -4 146q0 117 7 248q-157 -12 -311 -56l-3 -21q-22 -160 -48.5 -284t-43.5 -160q-8 -13 -22 -13q-5 0 -10 2q-14 8 -14 22q0 5 3 11q15 33 40 151.5t46 274.5q-30 -12 -50 -24q-7 -5 -12 -7q-4 -3 -6 -4q7 -7 7 -16t-7 -17q-9 -8 -18 -8t-17 7q-11 12 -14 26
q-1 3 -1 7q0 29 43 54q31 19 82 36q21 160 21 289q0 37 -2 70q-9 144 -40 167q-5 5 -12 5q-6 0 -14 -5q-26 -16 -53 -56q-39 -57 -67.5 -122t-28.5 -96q0 -6 2 -10q2 -5 2 -10q0 -14 -15 -22q-4 -2 -9 -2q-15 0 -23 16q-3 7 -3 18q0 41 29.5 117.5t72.5 138.5q33 48 68 70
q21 12 41 12q23 0 44 -18q44 -35 55 -200q2 -33 2 -70q0 -124 -19 -276q155 41 307 52l2 16q9 142 21.5 259.5t26.5 175.5z" />
    <glyph glyph-name="I" unicode="I" horiz-adv-x="240" 
d="M-114 -206q-30 2 -36 21q-2 5 -2 10q0 12 7.5 18.5t16.5 6.5h5q3 0 6 1t8 1q102 19 179 26q-6 96 -6 213q0 132 6 273q13 299 37 451q-82 -3 -146 -9l1 -1l-1 -1q0 -10 -7 -17t-17 -7q-51 2 -66 7q-46 15 -46 28q0 16 58 29q24 6 71 10q117 11 245 11q135 0 183 -16
q16 -8 16 -23q0 -5 -2 -9q-8 -16 -23 -16l-8 1q-58 15 -166 15h-42q-25 -146 -39 -455q-5 -131 -5 -255t6 -226q45 3 95 3q49 0 107 -2q10 -1 17 -7.5t7 -17.5q-1 -11 -7.5 -17.5t-17.5 -6.5q-56 2 -103 2q-54 0 -104 -3q-83 -6 -194 -24q-4 -6 -13 -10t-20 -4z" />
    <glyph glyph-name="J" unicode="J" horiz-adv-x="631" 
d="M232 -184q-18 0 -35 4q-57 12 -91 59q-29 40 -29 91q0 43 24 91q29 52 69 79.5t86.5 37t95.5 9.5q52 0 104 -5l14 -1q13 53 22 117q11 80 11 192v39q-2 109 -23 205q-26 94 -89 100l-18 1q-47 0 -100 -29q-66 -36 -117 -96q-66 -76 -66 -145q0 -31 17 -57q5 -6 5 -13
q0 -12 -11 -21q-6 -4 -13 -4q-13 0 -21 11q-26 39 -26 83q0 85 78 177q57 68 131 108q64 35 125 35q12 0 23 -1q100 -14 129 -139q23 -100 25 -213v-41q0 -115 -11 -199q-9 -62 -22 -113l29 -1q42 0 73 11.5t45 41.5q8 16 23 16q4 0 9 -2q15 -9 15 -23q0 -5 -2 -9
q-22 -50 -65 -67t-99 -17l-41 1q-35 -122 -85 -192q-85 -121 -189 -121zM230 -135q31 0 65 17q102 53 162 251h-3q-49 5 -97 5q-65 0 -121.5 -20t-91.5 -81q-18 -35 -18 -67q0 -35 20 -62q22 -31 61 -41q11 -2 23 -2z" />
    <glyph glyph-name="K" unicode="K" horiz-adv-x="860" 
d="M173 -190q-6 0 -11 2q-14 8 -14 22q0 5 3 11q14 29 36.5 133.5t43.5 244.5q-15 8 -32 14q-35 14 -35 44q0 51 91 143q11 109 11 199q0 32 -2 61q-13 172 -52 172q-7 0 -15 -5q-26 -16 -53 -56q-39 -56 -67 -121t-28 -96q0 -7 2 -11.5t2 -8.5q0 -15 -16 -23q-4 -2 -9 -2
q-14 0 -23 16q-3 7 -3 18q0 41 29.5 117.5t72.5 138.5q57 82 109 82q23 0 44 -18q44 -35 55 -200q2 -34 2 -72q0 -65 -5 -139q154 138 330 251q156 101 213 101q28 0 39 -23q2 -4 2 -9q0 -15 -16 -23q-7 -3 -13 -3q-13 0 -20 13q-4 -3 -27 -13q-60 -25 -153.5 -85
t-191.5 -136.5t-169 -145.5q-7 -68 -17 -136q0 -9 -2 -19q78 -62 132 -140q26 -36 51.5 -65.5t55.5 -48t69 -18.5q94 0 172 67q53 47 84 99.5t39 85.5q7 18 23 18q13 0 19 -8t6 -16l-1 -6q-9 -38 -44 -97.5t-94 -112.5q-91 -79 -204 -79q-51 0 -88 21t-68 55q-24 27 -62 78
q-42 61 -98 111q-22 -136 -44.5 -237t-36.5 -132q-9 -13 -22 -13zM238 274l9 69q-32 -41 -32 -56q0 -3 1 -4z" />
    <glyph glyph-name="L" unicode="L" horiz-adv-x="467" 
d="M294 -191h-9q-116 0 -165 81q-53 85 -53 244q0 122 23 256q24 139 60 306q22 100 22 135l-1 13q-18 -10 -42 -40q-47 -58 -88 -139t-41 -129v-7q0 -9 -6.5 -16t-17.5 -8q-10 0 -17.5 6.5t-7.5 23.5q0 56 45 146.5t96 153.5q48 62 86 62q21 0 34 -25q8 -15 8 -47
q0 -27 -7 -68l-26 -125q-26 -117 -49.5 -250t-23.5 -251q0 -141 46 -214q37 -59 124 -59q108 2 296 79q4 2 9 2q7 0 13.5 -4.5t8.5 -10.5t2 -11q0 -14 -15 -22q-192 -78 -304 -82z" />
    <glyph glyph-name="M" unicode="M" horiz-adv-x="1176" 
d="M982 -177q-24 0 -44 20q-45 45 -45 215q0 87 8 194l4 65q9 137 9 255q0 150 -17 226q-8 36 -26 36q-19 0 -50 -44q-66 -92 -202 -443l-10 -25q-70 -179 -111 -247v-1q-13 -19 -28 -19q-8 0 -16 5l-2 1q-20 17 -25 100t-5 193q0 361 -46 437q-11 18 -19 18q-20 -3 -48 -48
q-45 -74 -85.5 -204.5t-64.5 -281.5q-16 -119 -38 -228q-22 -117 -54 -140l-2 -1q-6 -3 -15 -3q-38 0 -48 71q-13 76 -13 220q0 158 10 331t19 260q2 9 8.5 15t15.5 6h3q22 -5 22 -23v-4q-10 -85 -19.5 -255t-9.5 -326q0 -140 12 -215l1 -12q0 -8 -2 -13q10 25 24 99
q21 104 38 225q24 156 66.5 292t90.5 213q44 71 91 71q34 0 59 -44q46 -74 52 -370l1 -90q0 -136 4 -221q33 68 82 194q85 212 140 336q114 247 181 247q44 0 67 -101q18 -80 18 -233q0 -135 -13 -329q-9 -108 -9 -193q0 -69 10 -122q9 -42 23 -55q4 -4 9 -4q4 0 8 2
q20 9 45 38q93 119 170 318q7 15 24 15l8 -1q16 -9 16 -24q0 -4 -2 -9q-38 -96 -84.5 -185t-93.5 -145q-49 -59 -92 -59z" />
    <glyph glyph-name="N" unicode="N" horiz-adv-x="905" 
d="M741 -158q-97 0 -97 313q0 198 33 390q12 67 12 119q0 87 -29 131q-29 48 -84 48q-24 0 -50 -9q-110 -38 -203 -195q-64 -117 -114 -292t-72 -365q-3 -16 -6 -23q-16 -32 -28 -32q-16 0 -23 56t-7 153q0 312 54 648q6 20 24 20q11 0 17.5 -8t6.5 -16v-4
q-51 -337 -52 -573q59 282 158 461q103 172 229 216q35 12 68 12q79 0 124 -71q36 -54 36 -156q0 -57 -13 -128q-33 -189 -33 -383q0 -99 12 -176q11 -61 29 -82q3 -3 8 -3q8 0 21 12q60 48 173 325q8 16 23 16q4 0 9 -2q15 -8 15 -23q0 -4 -2 -9q-116 -289 -185 -344
q-29 -26 -54 -26z" />
    <glyph glyph-name="O" unicode="O" horiz-adv-x="835" 
d="M318 -175q-61 0 -115 33q-71 42 -116 145q-49 111 -51 286q0 56 11 126q37 227 156 364q8 9 18 9q8 0 16 -7.5t8 -17.5q0 -9 -6 -16q-74 -85 -110 -205q-44 -133 -44 -251q2 -164 44 -262q65 -155 190 -155q87 0 173 79q38 35 69 83q-90 4 -174 45q-149 71 -211 246
q-16 50 -16 106q0 94 38 190.5t98 168.5q55 65 117 94q35 16 70 16q32 0 63 -15q112 -54 154 -307q14 -86 14 -164q0 -182 -68 -327q169 28 229 142q9 14 22 14q6 0 11 -3q14 -9 14 -22q0 -6 -3 -11q-56 -105 -186 -150q-53 -17 -114 -23q-42 -71 -94 -119q-99 -92 -207 -92
zM590 84q75 144 75 333q0 74 -13 156q-20 121 -53 186q-49 94 -116 94q-25 0 -50 -12q-52 -22 -99 -81q-55 -66 -90 -153.5t-35 -171.5q0 -49 14 -92q60 -161 185 -218q83 -41 182 -41z" />
    <glyph glyph-name="P" unicode="P" horiz-adv-x="713" 
d="M205 -198q-10 0 -17 6q-18 15 -18 297q0 81 2 162l-10 9q-31 29 -31 45q0 11 10 19q8 5 15 5q10 0 18 -8q6 202 26 287q13 65 47 65q5 0 11 -2.5t10.5 -9t4.5 -13.5l-1 -8q-10 -11 -15.5 -19.5t-8.5 -23.5q-21 -95 -27 -322q65 -43 152 -43q43 0 85 12q68 20 117 70
q100 109 123 250q4 27 4 53q0 139 -112 192q-52 26 -132 26q-181 0 -320 -100q-89 -63 -141 -171q-8 -14 -22 -14q-5 0 -11 3q-14 8 -14 22q0 5 2 10q59 119 156 189q155 109 350 109q92 0 153 -29q87 -44 119 -125q21 -52 21 -112q0 -29 -5 -59q-24 -158 -136 -278
q-20 -21 -45 -38q-83 -58 -190 -58q-86 0 -155 35l-1 -116q0 -172 10 -290q0 -10 -6.5 -18t-17.5 -9z" />
    <glyph glyph-name="Q" unicode="Q" horiz-adv-x="791" 
d="M344 -125q47 0 95 23q-81 28 -129 28q-24 0 -46 -7l-7 -1q-16 0 -24 17q-2 4 -2 8q0 32 78 32q44 0 89.5 -13t93.5 -30q70 53 121.5 148.5t69.5 226.5q6 46 6 99q0 294 -178 415q-45 28 -91 28q-11 0 -22 -2q-64 -11 -117 -62q14 -7 14 -22q0 -12 -12 -21
q-21 -13 -48.5 -44t-42.5 -59q-15 -45 -15 -98q0 -57 22 -114q1 -4 1 -9q0 -15 -15 -23q-4 -2 -9 -2q-14 0 -23 15q-13 32 -19 66q-24 -97 -24 -181q5 -288 125 -381q50 -37 105 -37h4zM344 -174h-4q-72 0 -134 47.5t-101 146.5t-44 255v10q0 80 23 187q20 94 61 181
q0 1 0.5 3t2.5 5q30 92 95 156.5t148 77.5q15 2 31 2q57 0 115 -34q122 -82 165 -222q37 -109 37 -237q0 -55 -7 -104q-19 -129 -68.5 -227.5t-117.5 -159.5q87 -30 145 -30q32 0 61 9q3 1 7 1q8 0 15 -4q10 -8 10 -20q0 -16 -17 -24q-37 -12 -75 -12q-48 0 -96.5 13.5
t-96.5 30.5q-76 -51 -155 -51z" />
    <glyph glyph-name="R" unicode="R" horiz-adv-x="657" 
d="M179 -198h-2q-20 0 -25 22q-9 125 -9 307l1 144q-48 30 -48 66q0 29 38 35l14 -1q3 76 8 127q10 119 31 164q11 23 32 23q5 0 10 -2q17 -8 17 -24l-1 -7q-10 -11 -15.5 -19.5t-8.5 -23.5q-19 -78 -25 -256q26 -14 63 -44l10 -8q40 8 94 36q98 56 165 133t94 155
q15 42 15 78q0 73 -56 111q-47 33 -142 33q-187 0 -329 -100q-88 -63 -140 -171q-9 -14 -22 -14q-6 0 -11 3q-15 8 -15 21q0 6 3 11q58 119 156 189q113 80 237 99q66 11 120 11q111 0 170 -41q77 -53 77 -152q0 -44 -16 -93q-30 -87 -103 -171t-179 -144q-39 -22 -73 -33
q60 -53 123 -117q138 -141 225 -248q5 -7 5 -15q0 -11 -9 -20q-7 -5 -15 -5q-11 0 -20 9q-83 106 -221 244q-78 80 -148 140l-23 -1q-20 0 -38 3l-1 -137q0 -173 9 -291q0 -11 -6 -18t-16 -8z" />
    <glyph glyph-name="S" unicode="S" horiz-adv-x="672" 
d="M336 -202q-93 0 -193 29.5t-186 92.5q-10 8 -10 20q0 8 5 15q8 10 19 10q8 0 15 -5q79 -59 171.5 -86t177.5 -27q69 0 127 16q68 19 102 57q24 26 24 61q0 65 -92 151q-76 72 -231 156q-124 70 -159 145l-1 1q-18 39 -18 77q0 42 19 81q35 73 108 132q82 67 176 109
t156 48q20 2 37 2q120 0 126 -82v-9q0 -38 -22 -83q-35 -72 -120 -182q-15 -19 -24 -31t-20 -12q-7 0 -14 4q-11 9 -11 21q0 7 3 11.5t6 8.5l29 39h-1q26 33 54.5 73.5t49.5 80.5t21 69v5q-2 38 -76 38q-15 0 -33 -2q-56 -5 -142.5 -44.5t-163.5 -101.5q-63 -52 -94 -113
q-14 -30 -14 -62q0 -28 13 -56h1q26 -63 138 -123q165 -91 247 -170.5t96 -145.5q5 -19 5 -37q0 -52 -36 -91q-44 -49 -126 -72q-63 -18 -139 -18z" />
    <glyph glyph-name="T" unicode="T" horiz-adv-x="332" 
d="M207 -125h-4q-8 0 -14.5 5.5t-8.5 15.5q-23 187 -23 421q0 289 31 546q-323 -17 -349 -48q-8 -9 -19 -9q-8 0 -15 5q-11 8 -11 19q0 8 6 16q34 40 266 58q197 15 472 15q140 0 147 -2q10 -8 10 -19q0 -8 -5 -15q-8 -10 -19 -10q-8 0 -15 5q-150 0 -418 -12
q-30 -242 -31 -479v-54q0 -240 22 -433q0 -10 -6 -17t-16 -8z" />
    <glyph glyph-name="U" unicode="U" horiz-adv-x="757" 
d="M676 -164q-16 0 -23 16q-42 121 -42 376q0 80 3 161q-28 -129 -71 -243q-64 -163 -162 -233q-56 -40 -113 -40q-151 0 -209 253q-28 128 -28 313q0 123 9 232q7 83 17 185q0 13 8 20.5t18 7.5q11 -2 17 -8.5t6 -15.5v-9q-26 -218 -26 -413q0 -178 26 -301
q31 -134 86 -182q36 -33 76 -33q41 0 85 31q86 62 144 210q75 206 125 540l8 46q6 41 12 69q7 20 24 20q11 0 17.5 -7.5t6.5 -15.5v-4q0 -33 -7 -107q-24 -285 -24 -477q0 -245 40 -358q2 -4 2 -9q0 -14 -16 -22q-5 -2 -9 -2z" />
    <glyph glyph-name="V" unicode="V" horiz-adv-x="614" 
d="M332 -141q-83 3 -146 168q-70 184 -102 423q-36 300 -87 325q-1 1 -4 1q-18 0 -40 -31q-27 -36 -44 -91q-19 -61 -19 -120q0 -10 -7 -17t-18 -7q-10 0 -17 7t-7 17q0 66 21 134q20 64 51 106q37 51 80 51q41 0 69 -52q41 -78 69 -309q31 -235 100 -419q51 -133 103 -137
q7 0 19 9q46 38 92 148t86 251.5t67 272.5q33 164 33 241q0 12 -2 14q-5 7 -5 15q0 11 8.5 18t16.5 7q30 0 30 -67q0 -74 -33 -236q-26 -134 -68 -280t-92 -263q-77 -179 -154 -179z" />
    <glyph glyph-name="W" unicode="W" horiz-adv-x="987" 
d="M670 -191q-43 0 -80 42q-76 80 -100 400q-7 156 -21 172q-5 0 -48 -179q-60 -241 -136 -321q-44 -47 -90 -47q-36 0 -67 29q-51 48 -85 170q-35 128 -35 300v36q3 172 53 365q7 18 24 18q13 0 19 -8t6 -16q0 -4 -1 -7q-48 -187 -52 -353v-35q0 -165 33 -288
q30 -108 71 -146q19 -16 37 -16q23 1 51 31q67 71 124 300q58 234 107 234q10 0 19 -8q29 -29 40 -228q29 -395 132 -395q42 0 92 65q68 90 120.5 249.5t68.5 348.5q3 41 3 75q0 72 -10 120q-16 78 -42 91q-12 9 -12 21q0 7 3 13q9 12 22 12q6 0 12 -3q43 -24 65 -125
q11 -51 11 -125q0 -38 -3 -82q-17 -196 -72.5 -363t-127.5 -262q-50 -64 -103 -81q-14 -4 -28 -4z" />
    <glyph glyph-name="X" unicode="X" horiz-adv-x="943" 
d="M71 -183q-39 0 -64 28q-7 7 -7 17q0 9 7.5 16.5t16.5 7.5q10 0 18 -8q11 -13 31 -13q52 0 154 88q125 112 264 289l19 24q-61 110 -148 280q-31 60 -58 110q-64 112 -106 112q-23 0 -43 -36.5t-30 -89.5t-10 -108q0 -10 -7 -17t-18 -7q-10 0 -17 7t-7 17q0 60 11.5 119.5
t33.5 99.5t53 56q16 8 34 8q20 0 42 -12q49 -24 106 -126q38 -67 83 -156q53 -104 113 -215q128 170 221 317.5t114 206.5q9 17 23 17l8 -1q17 -8 17 -24l-1 -7q-23 -64 -122 -220.5t-234 -334.5q85 -150 171 -255q90 -105 158 -105q30 0 58 23q7 6 16 6q10 0 17 -8t7 -17
q0 -10 -8 -18q-45 -37 -91 -37q-88 0 -194 124q-85 102 -166 245l-6 -8q-141 -180 -271 -296q-115 -99 -188 -99z" />
    <glyph glyph-name="Y" unicode="Y" horiz-adv-x="692" 
d="M319 -186q-51 0 -83 34q-27 29 -27 69q0 47 40 95q35 41 107 75q82 36 159 42l12 2q27 87 38 177q8 72 8 141q0 61 -6 118q-28 -125 -75 -204t-104 -115q-53 -33 -106 -33q-94 0 -164 90q-38 49 -60 124t-22 172q0 117 39 264q3 8 10 13t15 5l6 -1q18 -8 18 -25l-1 -6
q-38 -142 -38 -252q0 -88 19.5 -155t52.5 -110q57 -70 126 -70q39 0 79 25q64 40 113 148t66 290h1q0 8 6.5 15.5t16.5 7.5q8 0 15 -5.5t10 -14.5q32 -134 32 -283q0 -165 -42 -309q45 7 80.5 26.5t56.5 66.5q8 14 22 14q5 0 10 -2q15 -8 15 -22q0 -5 -2 -10
q-31 -69 -82.5 -93.5t-115.5 -31.5q-27 -78 -71 -150q-41 -66 -87 -94t-87 -28zM319 -138q29 0 64 23.5t68.5 78t57.5 115.5q-65 -7 -132 -35q-59 -29 -87 -60q-31 -34 -32 -65q0 -21 14 -38q18 -17 47 -19z" />
    <glyph glyph-name="Z" unicode="Z" horiz-adv-x="620" 
d="M311 -142q-32 0 -62 2q-89 6 -150 40q-69 41 -69 118q0 46 30 108q36 72 102.5 159t142.5 178q129 153 202 269q32 52 32 78q0 12 -9 18q0 1 -1.5 1.5t-3.5 0.5q-58 17 -168 17q-108 0 -184 -19q-55 -14 -73 -41q-2 -1 -2 -3q-8 -18 -25 -18l-7 1q-16 8 -16 23q0 4 1 7
t2 7t4 8q25 39 92 59q86 25 208 25q119 0 184 -19l14 -7q33 -20 33 -57q0 -88 -219 -350l-26 -32q-74 -89 -139 -174q-125 -163 -125 -240q0 -50 45 -75q64 -35 189 -35q81 0 160 11.5t129 23.5l6 1q8 0 16 -6.5t8 -18.5q0 -8 -5.5 -14.5t-13.5 -8.5q-52 -13 -134.5 -25
t-167.5 -12z" />
    <glyph glyph-name="a" unicode="a" horiz-adv-x="350" 
d="M91 76q6 0 14 4q43 17 97 122q0 4 0.5 7.5t0.5 7.5t0.5 10.5t2.5 15.5h-1q-29 58 -57 58q-15 0 -34 -20q-29 -35 -42 -90q-7 -33 -7 -58q0 -29 9 -46q6 -11 17 -11zM261 27q-49 0 -60 78q-59 -78 -109 -78q-11 0 -20 3q-56 17 -56 104q0 31 8 68q15 67 54 111
q32 37 71 37q36 0 67 -35q7 17 23 17l6 -1q19 -7 19 -23l-1 -6q-15 -86 -15 -171l1 -17q4 -24 9 -33q3 -4 3.5 -4h1.5q3 0 7 2q16 8 34 28q23 24 44 57q28 41 39 66q8 14 22 14q5 0 10 -2q14 -9 14 -22q0 -17 -44 -83q-73 -110 -128 -110z" />
    <glyph glyph-name="b" unicode="b" horiz-adv-x="458" 
d="M93 326q97 92 183 223q60 97 60 170q0 27 -8 47q-16 41 -54 41q-72 0 -123 -140q-45 -139 -56 -297zM109 -31q-60 0 -85 28q-20 19 -20 47q0 15 8 30q11 23 39 39q-8 75 -8 153q0 225 61 416q25 75 62 116q51 58 109 58q25 0 47 -11q35 -18 52 -61q11 -27 11 -64
q0 -40 -16 -89q-33 -107 -164 -258q-71 -81 -113 -114q0 -43 3 -88q8 19 17 35q82 133 155 133q44 0 74.5 -38.5t30.5 -89.5q0 -43 -22 -90q88 22 130 110q9 14 22 14q6 0 11 -3q14 -9 14 -22q0 -5 -2 -10q-59 -119 -182 -141q-6 -1 -14 -2t-16 -1q-12 -15 -29 -28
q-82 -69 -175 -69zM109 19q73 0 138 52l-35 6q-36 10 -72 10l-23 -1l-9 -44q-4 -19 -24 -20q-9 0 -15.5 6t-8 14t-2.5 14l-2 -3q-2 -5 -2 -9q1 -10 4 -12q12 -13 51 -13zM290 115q33 52 33 95q0 35 -18 60q-18 20 -37 20q-23 0 -50 -27q-34 -32 -63 -81q-12 -19 -21 -45h6
q41 0 81 -11q42 -9 69 -11z" />
    <glyph glyph-name="c" unicode="c" horiz-adv-x="359" 
d="M124 10q-62 0 -96 37q-27 30 -27 80q0 26 9 59q18 65 56 120.5t78 83.5q29 20 58 21q28 0 45 -26q13 -19 13 -59q0 -31 -9 -76q-2 -9 -9 -14t-16 -5q-11 0 -17 7.5t-6 15.5l1 6q8 41 8 65q0 25 -7 34q-2 3 -5 3q-12 -1 -28 -12q-34 -24 -66.5 -72t-48.5 -104
q-7 -30 -7 -51q2 -64 77 -64l18 1q76 10 141.5 56t96.5 113q8 15 23 15q5 0 10 -2q14 -9 14 -22q0 -5 -2 -10q-36 -81 -112.5 -134.5t-165.5 -63.5q-13 -2 -26 -2z" />
    <glyph glyph-name="d" unicode="d" horiz-adv-x="588" 
d="M278 308q124 88 210 218q58 92 58 166q0 33 -11 57q-23 48 -67 48q-75 0 -126 -133q-63 -203 -64 -356zM93 30q63 0 147 150q-4 20 -6 39l-1 2q-36 68 -72 68q-23 0 -47 -26q-35 -40 -50 -103q-8 -36 -8 -62q0 -33 10.5 -50.5t26.5 -17.5zM411 -37q-35 0 -67 19
q-46 30 -76 99q-6 11 -10 23l-2 7q-86 -130 -162 -130q-45 0 -69 41q-18 30 -18 78q0 32 9 72q18 73 62 124q26 29 60 39q12 3 23 3q36 0 69 -30q0 161 66 371q25 74 63 114q50 53 110 53q27 0 52 -13q38 -19 58 -64q16 -33 16 -78q0 -88 -65 -191q-67 -101 -144 -167
q-48 -42 -106 -84q7 -89 33 -149q23 -54 58 -76q20 -12 42 -12q98 0 209 216q8 14 23 14q5 0 10 -2q14 -9 14 -22q0 -6 -3 -11q-106 -207 -210 -237q-23 -7 -45 -7z" />
    <glyph glyph-name="e" unicode="e" horiz-adv-x="277" 
d="M80 237q79 29 79 66q0 13 -18 13q-24 -2 -52 -57zM118 25q-25 0 -44 10q-27 11 -43 36q-20 30 -20 75q0 54 33 132q41 82 90 86l11 1q32 0 51 -26q12 -16 12 -37q0 -16 -7 -33q-18 -52 -137 -88q-3 -19 -3 -35v-11q4 -44 33 -56q9 -5 22 -5l10 1q51 6 99 47q58 51 84 109
q8 14 22 14q5 0 10 -2q15 -9 15 -23q0 -5 -2 -10q-31 -67 -98 -125q-58 -51 -126 -59z" />
    <glyph glyph-name="f" unicode="f" horiz-adv-x="294" 
d="M184 -207q-29 0 -59.5 33t-56 119t-29.5 233v71q6 176 40 281.5t80 150t88 44.5q19 0 35 -8q55 -27 55 -106v-10q-1 -68 -58.5 -162.5t-190.5 -203.5q0 -80 4 -130q8 -2 20 -2q61 0 122 31q59 27 95 97q9 14 22 14q6 0 11 -3q15 -8 15 -22q0 -5 -3 -11q-45 -85 -118 -119
q-61 -28 -114 -33q51 -59 73.5 -108t22.5 -85q0 -53 -36 -68q-9 -3 -18 -3zM90 300q106 93 151 170.5t47 132.5v8q0 49 -27 62q-6 3 -13 3q-23 0 -53 -29q-37 -37 -66.5 -121.5t-38.5 -225.5zM183 -159q6 3 6 29q0 56 -89 160q24 -134 62 -173q15 -16 21 -16z" />
    <glyph glyph-name="g" unicode="g" horiz-adv-x="406" 
d="M94 -443q-12 0 -23 3q-46 12 -61 65q-4 16 -4 36q0 29 8 64q10 39 31 86q46 98 106.5 160t122.5 105q0 62 -8 114q-15 -30 -36 -58q-59 -77 -114 -77q-30 2 -51 24q-33 37 -33 105q0 34 9.5 68t30.5 61q56 67 129 67q47 0 69 -29q13 -16 13 -40q0 -15 -14 -22
q15 0 23 -14q29 -64 30 -162q73 52 107 118q8 14 22 14q5 0 10 -2q14 -9 14 -22q0 -5 -2 -10q-23 -50 -63 -87t-89 -72l-1 -41q-18 -197 -71 -314q-38 -77 -77 -109q-42 -31 -78 -31zM92 -394q58 0 113 113q48 108 65 293q-50 -38 -97 -91t-82.5 -129t-35.5 -128
q0 -44 23 -55q2 0 5.5 -1.5t8.5 -1.5zM117 104q26 0 74 58q39 54 55 109q4 11 13 15q-11 0 -18 7.5t-7 17.5q0 19 -35 19q-11 0 -23 -3q-37 -10 -66 -44q-30 -46 -30 -97q0 -24 6 -43.5t14 -29t17 -9.5z" />
    <glyph glyph-name="h" unicode="h" horiz-adv-x="480" 
d="M85 313q40 34 92 91q58 62 106 137q59 94 59 167q0 32 -11 55q-22 47 -63 47q-77 0 -127 -135q-43 -137 -53 -293q-3 -34 -3 -69zM310 -14q-25 0 -39 24q-9 14 -9 41q0 21 6 50q14 75 14 120t-11 64l-1 1q-5 9 -12 9q-17 -1 -35 -16q-39 -29 -73 -89t-49 -137
q-4 -19 -24 -20q-9 0 -15.5 6t-8.5 15q-18 111 -18 229q0 222 60 407q26 74 63 114q50 55 109 55q27 0 52 -13q37 -19 57 -63q14 -31 14 -74q0 -40 -15 -89q-33 -106 -162 -250q-80 -85 -128 -121l1 -25q0 -24 2 -49q47 98 104 144q32 24 66 25q33 0 54 -32q1 -1 1 -1.5
t1 -0.5q16 -28 16 -89q0 -51 -14 -129q-5 -27 -5 -42q0 -12 3 -16l1 2q15 4 37 20q45 37 88 89t57 85q5 15 22 15q5 0 9 -2q16 -9 16 -23l-1 -8q-16 -37 -64 -96t-98 -98q-41 -32 -71 -32z" />
    <glyph glyph-name="i" unicode="i" horiz-adv-x="246" 
d="M117 -10l-10 1q-82 11 -82 171q0 45 7 104q1 9 8 15t16 6q13 -1 19 -8.5t6 -17.5q-7 -59 -7 -102q0 -72 17 -101q11 -18 25 -19q15 0 35 12q72 48 134 179q8 14 23 14q5 0 10 -2q14 -8 14 -22q0 -5 -2 -10q-68 -144 -153 -200q-31 -20 -60 -20zM63 329q-10 0 -17.5 6.5
t-8.5 16.5q0 11 5 46l1 12q2 9 9.5 15t16.5 6q10 -1 16.5 -8.5t6.5 -16.5l-6 -50q0 -21 -23 -27z" />
    <glyph glyph-name="j" unicode="j" horiz-adv-x="207" 
d="M-119 -443q-16 0 -30 5q-40 14 -54 63q-4 17 -4 38q0 28 8 62q11 39 30 86q43 90 98.5 149.5t112.5 101.5q0 117 -10 199v2q0 20 22 26h3q9 0 16 -6q16 -15 18 -184q41 30 74 61.5t51 70.5q8 14 22 14q5 0 10 -2q14 -9 14 -22q0 -5 -2 -10q-23 -50 -63.5 -87.5
t-90.5 -73.5l-16 -13l-5 -99q-10 -150 -49 -241q-69 -140 -155 -140zM48 332q-11 0 -18 6t-8 17q-4 37 -4 50t7 20.5t17 7.5q12 -1 18.5 -8t6.5 -18v-3l4 -48q0 -9 -6 -16t-17 -8zM-121 -394q58 0 113 113q40 94 48 279q-108 -86 -163 -207q-35 -73 -35 -127q0 -45 23 -55
q2 0 5.5 -1.5t8.5 -1.5z" />
    <glyph glyph-name="k" unicode="k" horiz-adv-x="376" 
d="M65 323q99 85 177 206q60 95 60 172q0 34 -11 58q-12 29 -33 39q-12 7 -27 7q-69 0 -115 -131q-42 -141 -49 -298q-2 -26 -2 -53zM228 -12q-31 0 -55 18q-31 25 -48 63t-26 73l-17 -106q-2 -8 -8 -14.5t-17 -6.5q-8 0 -15 5.5t-9 15.5q-18 97 -18 240q0 229 54 412
q23 72 58 112q48 54 105 54q26 0 49 -12q36 -20 55 -63q15 -33 15 -77q0 -92 -68 -199q-50 -78 -104 -136q-68 -74 -115 -107q0 -31 2 -61l5 11q17 44 56 74q51 42 100 42q21 0 34.5 -10.5t13.5 -28.5q0 -21 -18 -43q-33 -43 -118 -60q2 -28 21 -73q30 -74 68 -74
q44 0 111 90q43 58 64 102q8 15 22 15q5 0 10 -2q15 -8 15 -22q0 -5 -2 -10q-24 -51 -70 -112q-41 -55 -80 -85q-39 -25 -70 -25zM145 235q52 13 74 41l1 1q-32 -6 -62 -30z" />
    <glyph glyph-name="l" unicode="l" horiz-adv-x="389" 
d="M73 310q31 23 74 61q73 64 136 157q58 91 58 165q0 34 -12 58q-21 48 -67 48q-75 0 -125 -133q-64 -203 -64 -356zM205 -35q-35 0 -66 19q-47 30 -77 99q-38 86 -38 221q0 173 66 377q26 74 64 114q50 53 109 53q28 0 53 -13q37 -19 58 -64q15 -33 15 -77q0 -89 -64 -192
q-98 -144 -236 -241l-14 -10q6 -89 32 -149q39 -88 101 -88q97 0 208 216q9 14 23 14q5 0 10 -2q14 -9 14 -22q0 -6 -3 -11q-107 -207 -209 -237q-24 -7 -46 -7z" />
    <glyph glyph-name="m" unicode="m" horiz-adv-x="636" 
d="M54 12q-31 3 -38 44q-6 31 -6 87q0 58 4.5 118.5t9.5 88.5q2 10 8.5 15t15.5 5q12 0 18 -7.5t6 -16.5v-4q-5 -27 -9 -86.5t-4 -115.5v-13q22 86 37 135q18 53 48 93q28 33 57 33q39 0 57 -55q9 -33 10 -98.5t3 -123.5l12 29q21 47 45 97q57 112 113 112l12 -1
q31 -8 41 -40.5t10 -76.5q0 -30 -2.5 -62.5t-2.5 -59.5q0 -32 6 -44q2 -3 5 -3q17 0 52 31t64.5 70.5t40.5 65.5q8 16 23 16q4 0 9 -2q16 -8 16 -23q0 -5 -2 -9q-12 -30 -46 -75t-74 -81q-47 -42 -84 -42q-59 0 -59 100q0 28 3 59q2 38 2 69q0 24 -2.5 41t-12.5 18
q-28 0 -75 -99l-40 -88q-27 -66 -48 -90q-10 -9 -20 -9t-18 9q-12 12 -15 69q-4 73 -4 142q0 59 -10 85q-5 20 -10 20q-3 0 -8 -4q-18 -16 -34 -52q-24 -53 -48.5 -156.5t-45.5 -112.5q-5 -2 -10 -2z" />
    <glyph glyph-name="n" unicode="n" horiz-adv-x="441" 
d="M65 -10q-15 0 -23 37l-1 5q-8 48 -8 128q0 89 18 200q2 9 9 14.5t15 5.5q12 -1 18 -8.5t6 -16.5v-4q-14 -74 -16 -142l1 1q24 81 59 121q52 56 100 56q15 0 29 -7q44 -22 44 -94q0 -23 -5 -50q-12 -73 -12 -119q0 -37 6.5 -57t16.5 -20q21 0 54 42q52 66 90 148
q8 14 23 14q5 0 10 -2q14 -8 14 -21q0 -6 -3 -11q-40 -91 -96 -159q-48 -60 -93 -60q-16 0 -29 8q-42 25 -42 118q0 51 14 127q4 22 4 39q0 25 -7.5 40t-18.5 15q-27 0 -62 -40q-28 -32 -50 -103q-24 -78 -35 -169q0 -9 -5 -15h-1q-13 -21 -24 -21z" />
    <glyph glyph-name="o" unicode="o" horiz-adv-x="381" 
d="M243 187q0 81 -31 112q-11 12 -26 12q-7 0 -13 -2l-2 -1q-5 -3 -5 -10q0 -8 4 -20q11 -29 39 -60q16 -17 34 -31zM146 -5q-34 0 -62.5 17.5t-47 52t-21.5 86.5q0 81 42 150q32 51 90 57l14 -1q13 4 25 4q35 0 61 -28q22 -23 33.5 -58.5t11.5 -74.5q0 -19 -2 -38
q16 -5 31 -5q58 0 93 74q8 14 22 14q5 0 11 -3q14 -8 14 -22q0 -5 -2 -10q-50 -103 -134 -103q-22 0 -45 7q-20 -70 -81 -104q-27 -15 -53 -15zM144 44q16 1 33 9q43 26 58 81q-35 21 -62 51q-53 58 -57 111q-10 -9 -18 -22q-33 -54 -33 -121q1 -41 15 -67q23 -42 64 -42z
" />
    <glyph glyph-name="p" unicode="p" horiz-adv-x="428" 
d="M67 -448q-15 0 -22 14q-32 85 -34 286q-1 43 -1 87q0 128 5.5 245t10.5 172q1 10 7.5 16t15.5 6q12 0 19 -7.5t7 -17.5q-4 -36 -7 -98q34 126 91 148q18 8 36 8q44 0 79 -34q60 -61 60 -148q0 -33 -12 -69q44 0 81 14t59 57q9 14 22 14q6 0 11 -3q14 -9 14 -23
q0 -5 -2 -10q-35 -66 -89 -83q-50 -15 -108 -15h-7q-12 -21 -26 -38q-58 -65 -127 -65q-42 0 -59 23l-3 -68q-1 -63 -1 -129q0 -131 4 -257q0 -8 -3.5 -14.5t-9.5 -8.5t-11 -2zM95 100l3 4q9 9 21 17q36 23 74.5 30.5t76.5 7.5q15 37 15 72q0 65 -45 110q-21 21 -43 21
q-9 0 -18 -4q-42 -14 -69 -139q-9 -49 -15 -119zM148 56q49 0 91 48l5 5q-53 -2 -97 -28q-16 -12 -17 -19l-1 -1l2 -1q6 -4 17 -4z" />
    <glyph glyph-name="q" unicode="q" horiz-adv-x="463" 
d="M103 18q8 0 18 6q62 34 129 225q0 2 2 4q-2 0 -2 1q-6 22 -24 50.5t-42 38.5q-4 2 -9 2q-40 0 -80 -112q-25 -74 -25 -129q0 -40 12 -65q11 -21 21 -21zM356 -450q-25 0 -50.5 19.5t-44.5 67.5t-22 128l-1 48q0 164 17 317q-60 -121 -109 -148q-22 -13 -41 -13
q-13 0 -24 5q-29 11 -44 45h1q-16 34 -16 86q0 63 27 145q52 144 125 144q14 0 27 -5q44 -19 74 -71l11 84q2 9 8.5 15t15.5 6q12 0 18.5 -8t6.5 -17v-3q-6 -34 -17 -129.5t-21 -218.5l-3 -41q59 39 114.5 90.5t96.5 133.5q8 15 22 15q5 0 11 -3q14 -8 14 -23q0 -5 -2 -10
q-46 -93 -106 -148t-126 -99q35 -48 67 -97q64 -99 64 -186q0 -36 -11 -63q-19 -46 -55 -60q-13 -6 -27 -6zM356 -401q21 0 36 35q8 19 8 46q0 31 -13 71q-15 47 -58 110l-39 60q-2 -60 -2 -115q1 -168 49 -199q10 -8 19 -8z" />
    <glyph glyph-name="r" unicode="r" horiz-adv-x="363" 
d="M233 -18q-37 0 -55 38q-21 40 -21 117q0 50 7.5 102t19.5 89l-59 3q-11 -51 -42 -123q-8 -15 -22 -15q-5 0 -10 2q-15 8 -15 22q0 5 2 10q28 65 40 107q-2 1 -5 1q-46 8 -65 28t-19 43l1 10q8 34 39 55q22 15 45 15q12 0 23 -5q38 -16 38 -80l-1 -22h6q70 -2 86 -10
t16 -22q0 -6 -3 -14q-1 0 -1 -0.5t-1 -1.5q-13 -27 -22 -80t-9 -108q0 -72 15 -100q6 -12 12 -12q12 0 38 24q31 31 56 72q37 61 53 102q8 15 22 15q4 0 9 -2q16 -8 16 -23q0 -4 -2 -9q-17 -44 -56 -109q-29 -46 -64 -81q-40 -38 -72 -38zM89 382q2 13 2 22q0 33 -17 33
q-8 0 -18 -7q-16 -10 -17 -24q0 -15 42 -23z" />
    <glyph glyph-name="s" unicode="s" horiz-adv-x="277" 
d="M41 -166q-33 0 -56 24.5t-23 63.5t31 84q48 57 116 80q-23 55 -53 105q-24 39 -40 74q-13 31 -13 56q0 36 22 59q33 30 73 30h7q49 -3 68 -45q5 -11 5 -24q0 -31 -31 -73q-9 -9 -20 -9q-8 0 -16 7t-8 17q0 9 6 16q20 29 20 43l-1 6q-7 12 -30 13q-21 0 -36 -14
q-9 -10 -9 -28q0 -14 8 -35q16 -31 37 -69q32 -52 56 -111q46 15 87.5 43t70.5 84q6 13 22 13q5 0 10 -2q14 -9 14 -22q0 -6 -3 -11q-35 -69 -84 -102t-102 -51q7 -24 7 -51q0 -38 -16 -76q-18 -45 -54 -72q-34 -23 -65 -23zM42 -117q15 0 35 14q25 18 37.5 48.5t12.5 59.5
q0 6 -0.5 12.5t-1.5 12t-2 9.5q-55 -19 -90 -63q-22 -32 -22 -55q0 -16 10 -29q7 -9 21 -9z" />
    <glyph glyph-name="t" unicode="t" horiz-adv-x="294" 
d="M139 -11q-52 0 -79 63q-23 57 -26 145q-2 32 -2 66q0 119 15 240q-77 -10 -140 -10q-111 0 -132 43q-2 5 -2 10q0 14 15 23q5 2 10 2q13 0 22 -14q12 -17 69 -17q64 0 164 13q11 80 18 121l3 20q7 20 25 20q11 0 17.5 -8t6.5 -16v-4q-6 -32 -19 -127l15 1q148 19 219 19
q75 0 111 -22q9 -9 9 -20q0 -8 -5 -15q-9 -10 -20 -10q-8 0 -15 6q-20 13 -73 13q-81 0 -207 -17l-41 -5q-16 -133 -16 -260q0 -117 24 -178q14 -33 37 -33q19 1 48 23q42 32 77 78q46 57 61 91q8 15 23 15q4 0 9 -2q15 -9 15 -23q0 -5 -2 -9q-18 -40 -68 -103
q-39 -50 -84 -84.5t-82 -34.5z" />
    <glyph glyph-name="u" unicode="u" horiz-adv-x="476" 
d="M116 -8h-3q-40 0 -64.5 38.5t-24.5 126.5q0 69 18 172q2 9 9 14t16 5q11 0 18 -7.5t7 -15.5l-1 -5q-19 -102 -19 -165q0 -70 18 -98q11 -15 25 -16q16 0 39 18q41 33 78 106t55 173q2 9 9 14.5t15 5.5q13 -1 19 -8.5t6 -15.5l-1 -16q-8 -77 -8 -147q0 -30 2 -58
q8 -69 28 -69q16 1 40 24q35 33 66.5 80.5t46.5 81.5q8 14 22 14q5 0 10 -2q14 -8 14 -22q0 -5 -2 -10q-16 -37 -50.5 -89t-74.5 -89.5t-75 -37.5q-62 0 -73 114q-2 13 -2 27l-1 13q-43 -87 -93 -128q-37 -28 -69 -28z" />
    <glyph glyph-name="v" unicode="v" horiz-adv-x="424" 
d="M239 308l1 20q0 30 -6 50q-3 -8 -3 -21q0 -22 8 -49zM236 384l1 1h-1v-1zM141 4q-44 0 -75 92q-18 47 -32.5 109t-14.5 114q0 27 5 50.5t25 23.5q9 0 17 -6.5t8 -18.5q0 -9 -2 -21q-3 -13 -3 -29q0 -50 14.5 -110.5t31.5 -104.5t27 -50q7 0 34 43q33 53 49 117
q-22 38 -32.5 77.5t-10.5 66.5q0 36 17 56t37 20q27 -1 40 -25.5t13 -77.5q0 -47 -12 -107q20 -28 44 -41.5t44 -13.5q25 0 47 14.5t39 48.5q8 14 21 14q10 0 18 -7.5t8 -17.5q0 -5 -3 -10q-22 -45 -56 -68t-74 -23q-56 0 -104 46q-22 -68 -55.5 -114.5t-64.5 -46.5z" />
    <glyph glyph-name="w" unicode="w" horiz-adv-x="610" 
d="M310 -7q-67 0 -90 129q-24 -80 -57 -102q-17 -11 -34 -11q-15 0 -29 8q-26 14 -43 49q-31 58 -31 152q0 71 24 153q3 8 9 13t14 5q13 0 21 -11q4 -7 4 -14q0 -4 -1 -7q-22 -76 -22 -139q0 -81 25 -130q16 -29 28 -29q4 0 7 2q28 15 48 115q13 72 29 91q10 11 21 11
q9 0 18.5 -8.5t9.5 -26.5q0 -26 2 -51v-17q10 -104 36 -126q6 -6 13 -6q15 1 35 21q42 45 68 132q-35 45 -46 116l-2 22q0 41 18 61q0 1 0.5 1t1.5 1q15 16 35 16q18 -1 33 -19q24 -24 24 -95q0 -44 -11 -91l5 -4q36 -34 76 -34q57 0 86 61q9 14 22 14q6 0 11 -3
q14 -9 14 -23q0 -4 -2 -9q-46 -89 -132 -89q-48 0 -95 35q-29 -81 -71 -126q-37 -37 -72 -37zM429 274l1 30q0 41 -10 55q-3 -8 -3 -23q0 -26 12 -62z" />
    <glyph glyph-name="x" unicode="x" horiz-adv-x="355" 
d="M32 -24l-8 1q-17 8 -17 23q0 5 2 9q26 68 66 151q-16 21 -30 44q-32 51 -50 99t-18 66q0 10 7 17.5t17 7.5q11 0 18 -7.5t7 -17.5q0 -14 15.5 -53.5t44.5 -85.5l12 -18l3 -4q20 35 41 66q69 103 135 103q11 -1 17.5 -8t6.5 -17t-7 -17.5t-19 -7.5q-20 0 -44 -22.5
t-49 -58.5t-48 -78q20 -20 43 -34l8 -4q25 -12 50 -12q26 0 50 12q57 29 93 101q9 13 23 13q5 0 10 -2q14 -9 14 -22q0 -11 -14 -31q-41 -71 -104 -103q-35 -17 -72 -17q-63 0 -124 53q-34 -72 -56 -130q-9 -16 -23 -16z" />
    <glyph glyph-name="y" unicode="y" horiz-adv-x="393" 
d="M87 -445q-64 0 -84 68q-4 17 -4 38q0 62 38 148q49 104 109 161.5t120 95.5v21q0 55 -7 101q-33 -65 -78 -103q-37 -31 -72 -32q-63 0 -82 101q-4 25 -4 54q0 70 16 136q7 18 23 18q13 0 21 -10q5 -6 5 -14l-1 -6q-15 -55 -15 -125q0 -24 3 -45q12 -59 36 -59q18 1 38 19
q28 24 52.5 63.5t37.5 83.5q6 19 24 19q14 0 22 -15q29 -68 30 -173q36 25 66 55.5t51 74.5q8 14 22 14q5 0 10 -2q15 -9 15 -22q0 -5 -2 -10q-29 -62 -71.5 -100.5t-91.5 -70.5q-2 -15 -2 -30q-18 -197 -70 -314q-69 -140 -155 -140zM84 -396q59 0 113 113q48 105 66 287
q-49 -33 -96 -83t-85 -132q-34 -78 -34 -129q0 -42 22 -53q3 0 6 -1.5t8 -1.5z" />
    <glyph glyph-name="z" unicode="z" horiz-adv-x="372" 
d="M59 -338q-24 0 -43 13q-26 17 -41 53q-11 29 -11 65q0 75 45 145q44 65 99 99t111 57l26 11q-9 49 -52 49q-37 -2 -69 -18l-2 -1q-6 -2 -11 -2q-12 0 -21 11q-3 6 -3 13q0 16 19 25l10 5q50 18 78 68q12 26 12 41q0 31 -48 31q-25 0 -45 -6.5t-27.5 -17.5t-19.5 -11
q-7 0 -13 4q-12 9 -12 21q0 6 3 12q13 21 45 34t66 13q29 0 52 -9q48 -21 48 -71q0 -45 -38 -95q53 -4 74 -73q66 31 105 103q9 14 22 14q6 0 11 -3q14 -9 14 -22q0 -5 -3 -10q-27 -52 -64 -83t-80 -52q-2 -43 -19 -108q-18 -68 -49 -138q-37 -77 -74 -116q-48 -51 -95 -51z
M61 -289l10 1q24 6 52.5 38.5t58.5 98.5t47 130q12 41 16 73l-7 -3q-51 -21 -100.5 -51.5t-87.5 -86.5q-37 -64 -37 -117q0 -27 8 -49q13 -34 40 -34z" />
    <glyph glyph-name="exclam" unicode="!" horiz-adv-x="238" 
d="M129 -58q-10 0 -17 7.5t-7 17.5q0 29 9 356q10 377 21 585q1 10 8 16.5t17 6.5q10 -1 16.5 -8t6.5 -17q-10 -209 -20 -584q-9 -329 -9 -356q-1 -11 -8 -17.5t-17 -6.5zM132 -260q-12 0 -18.5 8t-6.5 17q0 48 2 65q6 21 24 21q12 0 18.5 -7.5t6.5 -16.5v-4q-2 -14 -2 -28
v-34q-1 -9 -8 -15t-16 -6z" />
    <glyph glyph-name="quotedbl" unicode="&#x22;" horiz-adv-x="262" 
d="M177 722l-8 1q-15 8 -15 23q0 5 1 9l26 67q26 67 34.5 80t20.5 13q7 0 13 -4q12 -8 12 -20q0 -7 -4 -13.5t-12.5 -28t-18.5 -47.5t-18 -45l-7 -19q-8 -16 -24 -16zM51 722l-8 1q-16 8 -16 23q0 4 2 9l26 67q26 67 34.5 80t20.5 13q7 0 13 -4q12 -8 12 -20q0 -7 -4 -13.5
t-12.5 -28t-18.5 -47.5t-18 -45l-7 -19q-8 -16 -24 -16z" />
    <glyph glyph-name="numbersign" unicode="#" horiz-adv-x="766" 
d="M246 211q70 2 139 2q50 0 97 -2q17 81 37 167h-137q-50 -1 -98 -1q-10 -41 -19 -82q-10 -43 -19 -84zM76 374q-9 0 -16 6t-7 15t7 15.5t16 6.5q38 0 85 2h85q16 68 31 132q4 17 8 33q8 39 16 73q5 20 9 39q2 8 8.5 12.5t14.5 4.5h5q9 -1 14 -7t5 -14q0 -2 -1 -5l-2 -8
q-10 -48 -24 -103q-7 -31 -15 -63q-11 -46 -22 -93q89 1 170 1h66q4 16 7 33q17 68 31 130q6 28 12 54q8 30 14 58q2 8 8.5 12.5t14.5 4.5h5q8 -1 13 -7t5 -13q0 -3 -1 -6q-8 -41 -20 -89l-6 -22q-7 -34 -15 -68q-10 -43 -21 -88q124 -3 153 -15q11 -8 11 -19q0 -5 -4 -11
q-8 -10 -19 -10q-7 0 -13 3q-20 8 -137 9q-21 -86 -38 -166q133 -2 163 -15q11 -7 11 -18q0 -6 -4 -12q-8 -10 -19 -10q-7 0 -13 4q-21 8 -147 9q-43 -187 -43 -229q0 -4 1 -7t1 -6q0 -14 -16 -21q-3 -1 -7 -1q-7 0 -13.5 4.5t-9.5 11.5q-1 4 -1 13q0 52 40 236
q-108 0 -236 -2q-41 -190 -41 -229v-6q1 -3 1 -6q0 -14 -16 -21q-3 -1 -7 -1q-15 0 -22 16q-1 4 -1 13q0 52 39 233l-56 -1q-50 0 -93 -1q-10 0 -17 6.5t-7 15.5q0 8 6.5 14.5t16.5 6.5q22 1 47 1q22 0 46 1l67 1q17 80 37 164h-72q-48 -1 -88 -1z" />
    <glyph glyph-name="dollar" unicode="$" horiz-adv-x="466" 
d="M305 914q-4 -54 -8 -109q25 -6 49 -17q36 -18 53 -49t17 -67q0 -13 -2 -27q-1 -11 -8.5 -16t-15.5 -5h-3q-11 1 -16 8.5t-5 15.5v3q1 8 1 15q0 59 -43 79q-15 7 -30 10q-11 -164 -21 -343q77 -85 113 -157q39 -81 39 -144q0 -17 -3 -32q-17 -95 -91 -136q-40 -22 -83 -27
q-2 -52 -2 -79q0 -19 1 -27q0 -10 -6 -17.5t-16 -9.5h-3q-9 0 -15 6q-8 6 -9 16q-1 9 -1 28q0 29 2 82q-12 1 -25 4q-60 13 -106.5 57t-62.5 122v5q0 7 4 13q5 8 15 11h3q8 0 15 -4q8 -5 10 -15q14 -62 50 -97t82 -44q9 -2 17 -3q5 108 12 257q5 89 10 174q-25 26 -55 54
q-72 68 -92 116.5t-20 81.5q0 17 4 32q11 43 43.5 72.5t75.5 44.5q36 12 70 13q3 55 7 108q1 11 8.5 17t17.5 6q11 -1 17 -8t6 -15v-3zM227 460q9 156 18 299q-24 -2 -50 -10q-68 -22 -87 -81q-3 -10 -3 -21q0 -27 15 -59q21 -46 81 -103q13 -13 26 -25zM339 240
q-24 48 -70 103q-4 -62 -7 -125q-7 -147 -12 -253q30 5 57 20q54 31 67 100q2 12 2 25q0 56 -37 130z" />
    <glyph glyph-name="percent" unicode="%" horiz-adv-x="484" 
d="M73 -195h-4q-9 0 -17 6t-8 17q0 59 177 538q135 364 202 536q5 16 22 16q5 0 9 -2q16 -7 16 -21q0 -6 -40 -113q-92 -243 -161 -428q-176 -472 -176 -519v-6q0 -8 -5.5 -15t-14.5 -9zM367 -70q45 0 57 47q3 14 3 25q0 40 -24 55q-12 11 -32 11q-8 0 -16 -3h-1
q-35 -13 -44 -68l-1 -11q0 -32 24 -46q16 -10 34 -10zM369 -119q-37 0 -61 18q-48 28 -48 87l1 18q17 86 76 106l2 1q12 5 33 5q33 0 61 -19q42 -32 42 -95q0 -60 -31 -90.5t-75 -30.5zM128 655q45 0 57 47q2 13 2 24q0 41 -24 57q-13 10 -31 10q-8 0 -16 -3
q-36 -11 -46 -68l-1 -11q0 -32 24 -46q18 -10 35 -10zM129 606q-36 0 -61 18q-48 28 -48 85q0 10 2 20q16 88 78 107q17 6 33 6q33 0 60 -20q43 -33 43 -96q0 -59 -32 -89.5t-75 -30.5z" />
    <glyph glyph-name="ampersand" unicode="&#x26;" horiz-adv-x="506" 
d="M205 465l5 6q69 81 85 118q25 52 25 115q-3 56 -52 89l-4 1q-10 5 -19 5q-20 0 -39 -16q-45 -39 -45 -123q0 -77 44 -195zM198 -24q68 0 131 43q18 12 32 28q-88 139 -170 323q-53 -64 -88 -139q-33 -76 -33 -128q0 -50 24 -80q38 -44 104 -47zM488 -112q-18 0 -40 30
q-18 22 -45 63l-15 23q-82 -76 -186 -76q-91 0 -147 66q-34 41 -34 108q0 63 37 149q46 94 111 170q-57 148 -57 236q0 108 62 162q33 29 71 29q31 0 51 -15q70 -46 72 -126q0 -79 -29 -139q-17 -43 -89 -127q-6 -6 -11.5 -13t-12.5 -15q77 -179 164 -321q18 37 18 87
q0 31 -8 66l-1 6q0 18 19 23q3 1 7 1q33 0 33 -97q0 -79 -38 -134q30 -47 66 -97l2 -3q2 -4 4 -4q19 -2 19 -29q0 -9 -7 -16t-16 -7z" />
    <glyph glyph-name="quotesingle" unicode="'" horiz-adv-x="124" 
d="M31 735q-10 0 -17.5 7t-7.5 16q0 10 8 19q25 20 37 48q10 20 10 47l-1 19q0 9 6 16t19 8q9 0 15.5 -6t7.5 -16.5t1 -21.5q0 -75 -62 -130q-8 -6 -16 -6z" />
    <glyph glyph-name="parenleft" unicode="(" horiz-adv-x="315" 
d="M267 -262q-7 0 -14 5q-35 25 -62 65q-61 92 -91.5 243t-30.5 319q1 174 32 323.5t93 240.5q27 38 59 60q7 5 15 5q11 0 19 -11q5 -7 5 -14q0 -12 -11 -20q-26 -18 -47 -48q-58 -84 -87 -228t-29 -308q0 -162 28.5 -305t85.5 -229q22 -33 49 -53q10 -9 10 -20q0 -7 -4 -14
q-9 -11 -20 -11z" />
    <glyph glyph-name="parenright" unicode=")" horiz-adv-x="241" 
d="M18 -262q-11 0 -20 11q-4 7 -4 14q0 11 10 20q27 20 49 53q58 87 86.5 232.5t28.5 305.5q-1 163 -30 305.5t-87 226.5q-21 30 -47 48q-11 8 -11 20q0 7 5 14q9 11 20 11q7 0 14 -5q33 -22 59 -60q62 -91 93.5 -242t31.5 -322q0 -168 -31 -319t-91 -243q-27 -40 -62 -65
q-7 -5 -14 -5z" />
    <glyph glyph-name="asterisk" unicode="*" horiz-adv-x="253" 
d="M73 733h-2q-23 0 -23 24q0 2 6 13q10 19 31 32l6 5q-65 15 -65 37q3 13 14.5 17t40.5 4l21 -1q6 0 6 12q0 16 3.5 28t20.5 12q10 0 17 -7.5t7 -16t1 -16.5l-1 -14q6 2 29 2q30 0 38 -6q12 -11 12 -21q0 -9 -8.5 -17.5t-26.5 -10.5q-2 -1 -6.5 -1t-10.5 -2q15 -8 30 -25
q6 -8 6 -16q0 -10 -8.5 -17.5t-16.5 -7.5q-11 0 -19 9q-19 21 -36 21q-10 0 -19 -5l-5 -2q-3 -4 -5 -6t-4 -3q-15 -21 -33 -21z" />
    <glyph glyph-name="plus" unicode="+" horiz-adv-x="415" 
d="M200 69q-10 1 -16.5 7.5t-6.5 17.5q3 64 3 130l-39 1l-71 1h-24q-10 0 -17 7t-7 17q0 11 7 18t17 7q63 0 125 -2h11q1 86 5 132q1 10 8 16t16 6q12 -1 18.5 -8t6.5 -17q-4 -46 -6 -131l49 -1q43 0 87 3q10 0 17 -6.5t8 -17.5q0 -10 -6.5 -17t-16.5 -8q-44 -3 -88 -3
l-51 1v-29l-3 -101q-5 -23 -26 -23z" />
    <glyph glyph-name="comma" unicode="," horiz-adv-x="133" 
d="M56 -53q-13 0 -21 12q-4 6 -4 13q0 12 11 20q34 22 34 46l-1 11q0 8 6 15.5t18 8.5q25 0 25 -36q0 -52 -55 -86q-7 -4 -13 -4z" />
    <glyph glyph-name="hyphen" unicode="-" horiz-adv-x="389" 
d="M74 207q-11 1 -17.5 8.5t-6.5 17.5q0 9 6.5 16t16.5 7l59 1q55 2 123 2q35 0 57 -1q10 -2 16 -9t6 -17q-1 -11 -8 -17t-17 -6q-22 1 -56 1l-102 -1z" />
    <glyph glyph-name="hyphen" unicode="&#xad;" horiz-adv-x="389" 
d="M74 207q-11 1 -17.5 8.5t-6.5 17.5q0 9 6.5 16t16.5 7l59 1q55 2 123 2q35 0 57 -1q10 -2 16 -9t6 -17q-1 -11 -8 -17t-17 -6q-22 1 -56 1l-102 -1z" />
    <glyph glyph-name="period" unicode="." horiz-adv-x="118" 
d="M62 -13l-8 1q-27 4 -27 31v6q6 34 27 40q4 2 13 2q26 -5 26 -39l-1 -14q-8 -27 -30 -27z" />
    <glyph glyph-name="slash" unicode="/" horiz-adv-x="480" 
d="M-11 -269q-6 0 -12 3q-12 9 -12 22q0 6 3 11l584 1034q9 12 21 12q7 0 13 -3q12 -8 12 -21q0 -6 -3 -12l-584 -1033q-9 -13 -22 -13z" />
    <glyph glyph-name="zero" unicode="0" horiz-adv-x="579" 
d="M272 -143q38 0 76 30q59 45 102.5 159.5t57.5 303.5q2 37 2 71q0 137 -29.5 228t-77.5 135q-40 39 -89 40q-38 0 -77 -27q-59 -40 -103 -141t-59 -264q-5 -57 -5 -109q0 -139 30 -235t78 -145q45 -46 94 -46zM271 -192q-70 1 -128 61q-54 55 -88 159.5t-34 254.5
q0 54 5 113q16 175 66 285t117 156q54 36 108 36q64 -2 119 -53t88.5 -150.5t33.5 -246.5q0 -36 -2 -76q-13 -201 -62 -324.5t-116 -174.5q-53 -40 -107 -40z" />
    <glyph glyph-name="one" unicode="1" horiz-adv-x="302" 
d="M152 -175q-9 0 -16 7t-7 17q1 47 8 209q20 454 39 728q-18 -28 -36.5 -61t-31.5 -57l-13 -25q-7 -18 -23 -18q-13 0 -19 8t-6 16q0 4 0.5 5.5t14.5 30.5q42 82 77 133q31 47 58 47q14 0 24 -17q6 -11 6 -33v-11q-13 -161 -24 -389q-22 -438 -25 -566q-1 -11 -8 -17.5
t-18 -6.5z" />
    <glyph glyph-name="two" unicode="2" horiz-adv-x="618" 
d="M324 -145q-221 0 -266 8q-14 2 -20 17l-1 5q0 26 51 91q39 50 140 171q114 135 178 216q82 103 111 163q38 85 38 146q0 48 -19 80t-53 47q-27 12 -59 12q-71 0 -147 -55q-66 -48 -123 -141q-9 -12 -21 -12q-7 0 -13 3q-11 9 -11 21q0 7 3 13q64 105 140 158
q89 62 176 62q41 0 76 -16q47 -22 73.5 -66.5t26.5 -106.5q0 -71 -42 -166q-33 -66 -118 -173t-179 -217q-142 -169 -172 -207q81 -4 211 -4l219 1q10 0 17 -6.5t8 -17.5q0 -10 -7.5 -17t-17.5 -7q-78 -2 -199 -2z" />
    <glyph glyph-name="three" unicode="3" horiz-adv-x="584" 
d="M151 632q-2 -9 -9 -15t-15 -6q-2 0 -5 1q-9 2 -14 9t-5 16v4q22 97 80 154t127 75q32 8 62 8q46 0 82 -19q30 -16 47 -44t17 -66v-12q-4 -52 -48 -122.5t-140 -158.5q111 -8 164.5 -72t58.5 -155q1 -12 1 -24q0 -78 -32 -156q-35 -89 -104 -146q-61 -53 -138 -53
q-54 0 -114 33.5t-122 109.5q-6 8 -6 16q0 10 9 18q8 6 16 6q10 0 19 -9q53 -66 103.5 -94.5t95.5 -28.5q60 0 107 40q57 49 89 126q28 71 28 142v17q-4 49 -25 90t-63 66t-107 25q-11 0 -23 -1q-9 0 -17 -2q-15 -12 -31 -25q-7 -5 -15 -5q-11 0 -19 9q-6 8 -6 15q0 4 1 7
q8 25 32 37q8 4 15 7q116 96 167.5 169t54.5 123v8q0 48 -38 67q-25 13 -58 13q-25 0 -51 -7q-57 -14 -105 -61t-66 -129z" />
    <glyph glyph-name="four" unicode="4" horiz-adv-x="510" 
d="M412 -160q-10 0 -17.5 7t-7.5 17q0 224 13 435q-138 0 -237 3q-106 3 -117 5q-16 8 -16 24l1 8l64 164q69 180 97 258q8 16 24 16l7 -1q17 -8 17 -22q0 -5 -2 -9q-40 -114 -98 -259l-51 -134q157 -5 313 -7q17 292 34 500q1 9 7.5 15.5t16.5 6.5q13 -1 19 -7.5t6 -16.5
l-4 -50q-22 -321 -32 -485q-12 -216 -13 -444q0 -10 -7 -17t-17 -7z" />
    <glyph glyph-name="five" unicode="5" horiz-adv-x="657" 
d="M217 -155q-103 0 -175 68q-7 8 -7 18q0 9 7.5 17t16.5 8q10 0 17 -8q57 -54 141 -54q72 0 140 35q61 30 110.5 80t79.5 115.5t30 141.5q0 97 -51 147q-73 74 -226 74q-61 0 -125 -10l-50 -9q-7 -3 -12 -3q-11 0 -16 21l-1 6q0 8 5 15q13 42 39 121q40 118 64 176l6 16
q14 36 31 36q5 0 11 -5l50 1q66 0 133.5 -3t134.5 -3q10 0 17 -7t7 -17t-7 -17.5t-17 -7.5q-66 0 -132.5 3t-132.5 3l-50 -1l-18 -46q-61 -169 -83 -234q36 8 93 12q27 2 56 2q70 0 142 -19t122 -72t58 -151l1 -28q0 -87 -34 -161t-89.5 -131t-123.5 -89q-79 -40 -162 -40z
" />
    <glyph glyph-name="six" unicode="6" horiz-adv-x="588" 
d="M266 -179q-87 0 -149 51q-82 69 -82 204q0 119 68 280l1 3q37 87 81 168q81 142 153.5 237t88.5 102l6 1q16 0 24 -19l1 -6q0 -7 -5 -14t-13 -9q-11 -5 -74 -93.5t-138 -222.5q-30 -54 -57 -112q63 19 117 19q100 0 165 -52q55 -42 82 -106q25 -59 25 -123l-1 -25
q-11 -104 -66.5 -171t-131.5 -95q-48 -17 -95 -17zM266 -130q38 0 78 15q65 23 111 79.5t55 143.5l1 24q0 52 -21 100q-21 53 -67 87q-53 42 -135 42q-63 0 -143 -31q-62 -146 -62 -253q0 -113 66 -167q47 -40 117 -40z" />
    <glyph glyph-name="seven" unicode="7" horiz-adv-x="493" 
d="M74 -140q-6 0 -12 3q-14 8 -14 22q0 5 2 10q7 11 320 634l140 279l-218 -5q-152 -2 -227 -2q-10 0 -17 7t-7 17q0 11 7 18t17 7h47q74 0 180 2l257 6q11 0 18 -6.5t7 -17.5q0 -6 -2 -12l-478 -949q-8 -13 -20 -13z" />
    <glyph glyph-name="eight" unicode="8" horiz-adv-x="562" 
d="M275 -158q-137 0 -198 102q-30 52 -31 119q0 59 29 121q64 128 182 225q-150 155 -150 277q1 61 36 112q32 47 85 72q39 18 86 18q53 -1 91 -19q58 -29 88 -84q26 -50 26 -107v-11q-4 -101 -101 -201q-36 -37 -83 -66q41 -41 74 -89q100 -138 101 -255q0 -64 -32 -113
q-32 -53 -94 -79q-48 -20 -109 -22zM274 -109q52 2 91 18q47 21 71.5 59.5t24.5 87.5q-1 54 -23 106q-51 119 -146 212q-44 -34 -94 -93q-103 -119 -103 -217q0 -53 25 -96q23 -38 66 -59q37 -18 88 -18zM299 435q48 27 84 65q86 89 88 175q0 46 -21.5 87t-65.5 62
q-27 14 -71 15q-36 0 -65 -13q-41 -18 -66 -55.5t-26 -87.5q0 -37 17 -76q30 -73 126 -172z" />
    <glyph glyph-name="nine" unicode="9" horiz-adv-x="588" 
d="M145 -179q-16 0 -23 18q-1 3 -1 7q0 16 18 23q11 5 74 93.5t138 222.5q30 54 57 111q-63 -18 -116 -18q-98 0 -166 52q-54 42 -82 106q-25 59 -25 122l1 26q11 103 66.5 170.5t131.5 94.5q49 18 97 18q85 0 147 -52q82 -69 82 -205q0 -116 -68 -278q0 -2 -1 -3
q-35 -86 -81 -168q-81 -142 -153.5 -237t-88.5 -102q-3 -1 -7 -1zM289 326q64 0 146 32q61 149 61 253q0 113 -65 167q-49 39 -117 39q-39 0 -79 -14q-64 -23 -110.5 -79.5t-55.5 -143.5l-1 -21q0 -54 21.5 -105t66.5 -86q55 -42 133 -42z" />
    <glyph glyph-name="colon" unicode=":" horiz-adv-x="260" 
d="M132 338q-19 0 -31 21q-4 15 -4 18q0 20 21 31q6 2 11 2q20 0 30 -21q5 -12 5 -18q0 -19 -21 -31q-5 -2 -11 -2zM132 80q-20 0 -31 21q-4 13 -4 18q0 19 21 30q6 3 12 3q19 0 29 -21q5 -12 5 -18q0 -20 -20 -31q-6 -2 -12 -2z" />
    <glyph glyph-name="semicolon" unicode=";" horiz-adv-x="308" 
d="M180 338q-19 0 -31 21q-4 14 -4 18q0 19 21 31q6 2 11 2q20 0 30 -21q5 -13 5 -18q0 -20 -21 -31q-5 -2 -11 -2zM122 16q-12 0 -21 11q-4 7 -4 13q0 13 12 21q45 29 45 61l-1 15q0 8 6 15.5t18 8.5q8 0 15.5 -5.5t9 -14.5t1.5 -17q0 -32 -18 -58.5t-50 -45.5
q-6 -4 -13 -4z" />
    <glyph glyph-name="semicolon" unicode="&#x37e;" horiz-adv-x="308" 
d="M180 338q-19 0 -31 21q-4 14 -4 18q0 19 21 31q6 2 11 2q20 0 30 -21q5 -13 5 -18q0 -20 -21 -31q-5 -2 -11 -2zM122 16q-12 0 -21 11q-4 7 -4 13q0 13 12 21q45 29 45 61l-1 15q0 8 6 15.5t18 8.5q8 0 15.5 -5.5t9 -14.5t1.5 -17q0 -32 -18 -58.5t-50 -45.5
q-6 -4 -13 -4z" />
    <glyph glyph-name="less" unicode="&#x3c;" horiz-adv-x="398" 
d="M328 82q-6 0 -11 3l-260 139q-6 3 -9.5 9.5t-3.5 12.5q0 12 11 21l261 156q6 3 12 3q12 0 22 -11q3 -6 3 -12q0 -13 -12 -22l-224 -134l223 -119q13 -8 13 -21q0 -6 -3 -11q-9 -14 -22 -14z" />
    <glyph glyph-name="equal" unicode="=" horiz-adv-x="286" 
d="M209 148q-36 0 -72 2q-57 3 -112 3q-10 0 -17.5 7t-7.5 17t7 17.5t17 7.5q50 0 98 -2q41 -3 81 -3q32 0 64 3q10 0 17.5 -7t7.5 -18q0 -18 -22 -24q-30 -3 -61 -3zM44 310h-17t-16 7.5t-7 17.5q1 10 7.5 16.5t16.5 6.5l55 1q59 2 126 2q35 0 57 -1q10 -1 16 -8t6 -18
q-1 -11 -7.5 -17t-17.5 -6q-20 2 -51 2z" />
    <glyph glyph-name="greater" unicode="&#x3e;" horiz-adv-x="406" 
d="M69 82q-13 0 -23 14q-3 5 -3 11q0 13 14 21l222 119l-224 134q-12 8 -12 21q0 6 4 13q9 11 21 11q6 0 12 -3l261 -156q12 -8 12 -20q0 -7 -3.5 -13.5t-10.5 -9.5l-260 -139q-5 -3 -10 -3z" />
    <glyph glyph-name="question" unicode="?" horiz-adv-x="384" 
d="M118 -55q-11 1 -17.5 8.5t-6.5 17.5q15 182 66.5 277.5t109.5 156.5q40 43 69.5 91t37.5 120l1 14q0 75 -61 104q-33 15 -71 15q-65 0 -117 -36q-61 -42 -61 -117q0 -23 7 -50l1 -6q0 -8 -6.5 -16.5t-18.5 -8.5q-33 0 -33 81q0 52 22.5 91t59.5 65q67 46 143 46
q51 0 95 -20q40 -19 64.5 -55.5t24.5 -90.5l-1 -20q-10 -84 -42.5 -137.5t-76.5 -101.5q-54 -57 -102 -146t-62 -259q0 -10 -7 -16.5t-18 -6.5zM118 -221q-10 0 -17.5 7.5t-7.5 17.5l1 39q0 10 7 17.5t17 7.5t17 -7.5t7 -17.5v-39q0 -10 -7 -17.5t-17 -7.5z" />
    <glyph glyph-name="at" unicode="@" horiz-adv-x="766" 
d="M440 -198q-51 0 -99 17q-90 32 -150 116q-65 92 -72 238v10q0 68 18.5 133t55.5 118q70 107 202 135q36 7 69 7q90 0 157 -42.5t100 -109.5q26 -54 26 -115q0 -131 -122 -248l-14 -12v-1q-12 -9 -25 -17t-34 -8q-30 0 -46 30q-12 18 -16 50q-42 -55 -78 -72
q-20 -9 -38 -9q-38 0 -61 39q-15 27 -15 71q0 31 8 70q15 68 56 114q33 38 73 38q39 0 71 -36q8 18 24 18q13 0 19.5 -8.5t6.5 -17.5l-1 -6q-7 -36 -11.5 -90t-4.5 -85q0 -34 10 -52q1 -1 2 -2.5t2 -1.5q2 0 5 1t4 2l16 10v1l11 9q1 2 3 4t6 5q0 3 4 3q94 99 94 201
q0 50 -21 93q-26 55 -81.5 89t-130.5 34q-28 0 -58 -5q-110 -25 -170 -114q-65 -102 -65 -222q2 -135 64 -221q49 -71 124 -97q40 -14 83 -14q129 0 236 119q8 9 19 9q9 0 17.5 -7.5t8.5 -17.5q0 -9 -6 -16q-122 -137 -276 -137zM374 73q48 0 117 130q0 4 1 7q0 7 0.5 16
t2.5 18l-1 1q-29 58 -59 58q-17 0 -36 -20q-30 -36 -43 -92q-7 -34 -7 -59q0 -30 9 -47q6 -11 16 -12z" />
    <glyph glyph-name="bracketleft" unicode="[" horiz-adv-x="284" 
d="M148 -252q-57 0 -79 21q-3 7 -8 119q-13 299 -13 617v81q3 352 29 395q22 30 86 30q36 0 81 -4q11 -1 21 -1t17 -7t7 -18q-1 -11 -8 -17.5t-18 -6.5l-103 6q-33 0 -43 -10q-21 -36 -21 -548q0 -149 1.5 -286t3 -224t2.5 -91q12 -8 40 -8q31 0 89 8l31 4q10 0 17 -6.5
t8 -17.5q0 -10 -6 -17t-15 -7.5t-17 -2.5q-58 -9 -102 -9z" />
    <glyph glyph-name="backslash" unicode="\" horiz-adv-x="429" 
d="M504 -259q-13 0 -21 13l-584 1033q-3 6 -3 13q0 12 12 20q6 3 12 3q13 0 21 -12l584 -1034q3 -6 3 -12q0 -12 -12 -21q-6 -3 -12 -3z" />
    <glyph glyph-name="bracketright" unicode="]" horiz-adv-x="236" 
d="M125 -252q-39 0 -101 9q-8 2 -17.5 2.5t-15.5 7.5t-6 17q1 11 8 17.5t18 6.5l30 -4q58 -8 89 -8q28 0 40 8q1 4 3 91.5t3.5 225t1.5 286.5q0 508 -22 546q-10 10 -42 10q-23 0 -54 -3l-50 -3q-10 0 -17.5 7t-7.5 18t7 17.5t16.5 6.5t20.5 1q45 4 82 4q63 0 85 -30
q29 -46 30 -453q0 -331 -13 -635q-5 -116 -9 -124q-22 -21 -79 -21z" />
    <glyph glyph-name="asciicircum" unicode="^" horiz-adv-x="246" 
d="M188 715q-14 0 -22 15q-23 54 -38 100q-26 -69 -33 -94q-8 -16 -24 -16q-13 0 -18.5 8t-5.5 16q0 3 1 6.5t4 13.5q30 90 47 122l4 9q11 22 26 22q6 0 12 -3q1 0 2 -0.5t2 -2.5q3 0 4 -2l1 -2q5 -5 12 -26l7 -19q14 -48 42 -113q2 -5 2 -10q0 -14 -15 -22q-5 -2 -10 -2z
" />
    <glyph glyph-name="underscore" unicode="_" horiz-adv-x="596" 
d="M104 1h-48q-10 0 -17.5 7.5t-7.5 17.5q1 10 8 17t17 7l385 3q67 0 108 -2q9 0 16 -7t7 -17q0 -11 -7 -18t-18 -7q-48 2 -127 2q-128 0 -316 -3z" />
    <glyph glyph-name="braceleft" unicode="{" horiz-adv-x="317" 
d="M332 -259h-4q-103 21 -148.5 88.5t-56.5 156.5t-11 176q0 39 -2 75q-3 52 -17.5 77.5t-33 34.5t-34.5 12q-23 4 -37 12t-14 33q1 17 10.5 23t25.5 8.5t39 13t44.5 40t32.5 88.5q8 47 12 96q6 71 20.5 137t52.5 116t115 72l6 1q16 0 24 -19l1 -6q0 -8 -5 -14.5t-13 -8.5
q-90 -29 -118 -108t-34 -175q-6 -51 -13 -100q-27 -137 -112 -168q33 -8 62 -42.5t35 -120.5q1 -18 1 -37t1 -39v-14q0 -71 9 -147t46 -135.5t121 -77.5q9 -2 14.5 -8.5t5.5 -14.5l-1 -5q-4 -20 -24 -20z" />
    <glyph glyph-name="braceright" unicode="}" horiz-adv-x="317" 
d="M8 -259h-4q-20 0 -24 20l-1 5q0 8 5.5 14.5t14.5 8.5q84 18 121 77.5t46 139.5q9 72 9 143v14q0 21 1 41q0 114 35 156q29 34 63 42q-86 31 -113 168q-7 49 -12 100q-7 96 -34.5 175t-117.5 108q-8 2 -13 8.5t-5 14.5q0 12 8.5 18.5t16.5 6.5l6 -1q77 -22 115 -72
t52 -116t20 -137q6 -49 13 -96q11 -59 32.5 -88.5t44 -40t39 -13t26 -8.5t9.5 -24q0 -24 -14 -32t-36 -12q-16 -3 -34.5 -12t-33 -34.5t-18.5 -77.5q-1 -36 -1 -75q0 -87 -11 -176t-56.5 -156.5t-148.5 -88.5z" />
    <glyph glyph-name="asciitilde" unicode="~" horiz-adv-x="355" 
d="M208 184q-23 0 -41.5 14.5t-35.5 33.5q-9 9 -18 16t-20 7q-19 0 -48 -33q-8 -8 -18 -8q-9 0 -17 6.5t-8 17.5q0 9 6 17q48 56 85 56q22 0 39.5 -13.5t33.5 -31.5q9 -10 19 -18t23 -8q23 0 61 38q9 8 19 8q8 0 16 -7t8 -17q0 -9 -7 -17q-55 -61 -97 -61z" />
    <glyph glyph-name="exclamdown" unicode="&#xa1;" horiz-adv-x="190" 
d="M90 -280q-10 1 -16.5 8.5t-6.5 18.5q11 208 21 584q9 322 9 355q1 10 8 17t17 7t17 -7.5t7 -17.5q0 -30 -9 -357q-10 -376 -21 -584q0 -11 -7.5 -17.5t-18.5 -6.5zM118 800q-12 0 -18 8t-6 16l1 28v39q2 9 9 15t17 6q11 -2 17 -9t6 -16v-32q0 -16 -2 -34q-2 -9 -8.5 -15
t-15.5 -6z" />
    <glyph glyph-name="cent" unicode="&#xa2;" horiz-adv-x="386" 
d="M210 -236q-10 0 -17 7t-7 16l2 218q-31 6 -57 21q-45 23 -75 66q-42 57 -42 139q1 74 34 135q53 101 147 140l3 226q0 10 6.5 17t17.5 7q10 0 17 -6.5t7 -16.5l-2 -215l18 1q79 0 110 -82q2 -5 2 -10q0 -14 -16 -22l-8 -1q-18 0 -23 16q-20 51 -67 51q-8 0 -17 -2
l-5 -419q49 1 97 34q7 5 14 5q11 0 19 -11q5 -7 5 -15q0 -11 -10 -19q-61 -42 -126 -43l-3 -213q0 -10 -7 -17t-17 -7zM189 55l5 396q-18 -9 -37 -25q-39 -33 -66 -83.5t-28 -112.5q0 -66 33 -110q23 -33 58 -51q16 -9 35 -14z" />
    <glyph glyph-name="sterling" unicode="&#xa3;" horiz-adv-x="596" 
d="M539 -230h-371v1h-46q-63 0 -93 7q-12 0 -18.5 9t-6.5 18q0 10 12 20q67 59 101 177t41 233l-64 -1q-10 0 -17 7t-7 17q0 11 7 18t17 7l66 1v23q0 172 30.5 270t75.5 137q35 34 75 36h8q36 0 67 -21q37 -25 61 -71t26 -106q0 -10 -6.5 -17t-17.5 -8q-10 0 -17 6.5
t-8 17.5q-6 98 -65 137q-20 13 -40 13q-27 -1 -50 -23q-38 -33 -64 -122t-26 -249v-21l51 1q31 0 62 -3q10 -1 16.5 -8t6.5 -17q-2 -11 -8.5 -17.5t-17.5 -6.5q-32 3 -62 3l-50 -1q-6 -121 -44 -250q-29 -102 -86 -169q25 1 462 1q11 0 18 -6.5t7 -17.5q0 -10 -7 -17.5
t-18 -7.5z" />
    <glyph glyph-name="yen" unicode="&#xa5;" horiz-adv-x="592" 
d="M290 -185q-75 0 -130 79q-4 7 -4 14q0 12 11 20q7 4 14 4q12 0 20 -11q38 -57 88 -57q44 0 78 36q26 28 30 64q6 45 7 115h-92q-10 0 -17 7t-7 17q0 9 6.5 16.5t16 7.5h22.5q21 1 72 1q2 27 2 57h-10q-37 2 -73 2q-10 0 -16.5 7t-6.5 18q0 10 7 16.5t17.5 6.5h21.5
q41 0 60 -2q2 102 2 202q-57 -130 -169 -130q-33 0 -54 9q-48 17 -76 60q-46 73 -46 206q0 121 32 220q8 17 24 17q4 0 9.5 -2t10 -8.5t4.5 -13.5l-1 -8q-13 -36 -21.5 -92t-8.5 -115q0 -48 8 -94q23 -130 117 -130q101 0 146 153q29 103 32 217l2 43q0 15 1 26t8 17.5
t17 6.5q11 0 17.5 -7t6.5 -18q0 -43 -5 -110q-5 -109 -5 -250l-2 -199h16l38 1q10 0 17 -6t8 -17q0 -11 -7.5 -19t-56.5 -8h-15l-2 -55q45 0 71 -1q10 -1 16.5 -8t6.5 -18q-6 -23 -26 -23q-25 1 -69 1q-2 -75 -7 -121q-7 -53 -44 -92q-47 -52 -112 -52z" />
    <glyph glyph-name="franc" unicode="&#x20a3;" horiz-adv-x="350" 
d="M225 -184q-8 0 -15 5q-43 34 -75 148q-3 9 -5 20q-30 -3 -104 -3q-10 0 -17.5 7.5t-7.5 17.5q1 10 8 17t17 7q45 0 92 2h2q-12 78 -13 201q0 278 76 420q62 116 139 116h6q19 0 33 -9t14 -22q0 -6 -2 -11q-8 -13 -22 -13q-6 0 -12.5 3.5t-15.5 3.5q-20 -1 -44 -20
q-85 -69 -115 -303l86 1q21 0 32.5 -1t18 -8t6.5 -17q-1 -11 -8.5 -17t-17.5 -6l-32 1q-27 0 -59 -2h-30q-5 -50 -5 -107q0 -122 14 -208l36 1q30 0 60 -3q10 -1 16.5 -8t6.5 -16v-2q-5 -23 -25 -23h-2q-30 2 -59 2h-22q0 -4 2 -9q28 -97 60 -123q8 -8 8 -18q0 -9 -7 -16.5
t-18 -7.5z" />
    <glyph glyph-name="lira" unicode="&#x20a4;" horiz-adv-x="585" 
d="M540 -174h-371v1h-46q-96 0 -112 16q-7 9 -7 17q0 11 12 21q90 79 125 275q-37 0 -65 -1h-26q-11 1 -17.5 8t-6.5 17t7 17t16.5 7h26.5q25 1 74 1q6 46 9 86l-1 1q-46 2 -92 2q-10 0 -16.5 7.5t-6.5 17.5t7 16.5t18 6.5h24q33 0 67 -2h2v23q0 172 30 270t75 137
q37 34 76 36h8q36 0 66 -21q79 -53 88 -177q0 -10 -6.5 -17t-17.5 -8q-10 0 -17.5 7t-7.5 17q-6 98 -65 137q-20 13 -40 13q-26 -1 -51 -23q-38 -33 -63.5 -122t-25.5 -249v-24q44 0 88 2q10 0 17 -6.5t8 -17.5q0 -10 -6 -17t-16 -8q-46 -2 -93 -2q-3 -40 -9 -84l57 1
q37 0 60 -2q10 0 16.5 -7t6.5 -18t-7.5 -17.5t-18.5 -6.5q-23 2 -62 2l-59 -1q-12 -58 -28 -114q-29 -102 -86 -169q25 1 462 1q11 0 18 -6.5t7 -17.5q0 -10 -7 -17.5t-18 -7.5z" />
    <glyph glyph-name="Euro" unicode="&#x20ac;" horiz-adv-x="377" 
d="M368 -194q-6 0 -12 3q-78 44 -126.5 141t-65.5 222q-32 -1 -119 -1q-10 0 -17 7t-7 17q1 11 8 18t17 7q86 0 112 1l-1 23q-2 24 -2 47l-2 1q-46 2 -91 2q-11 0 -17.5 7.5t-6.5 16.5q0 10 7 17t18 7h24q34 0 67 -2q5 202 78 350q48 93 125 134q5 3 11 3q13 0 22 -14
q3 -6 3 -11q0 -14 -14 -22q-63 -33 -104 -112q-67 -139 -72 -329q45 0 90 2q11 0 18 -6.5t8 -17.5q0 -10 -6.5 -17t-16.5 -8q-46 -2 -93 -2q1 -35 4 -68q66 0 105 -2q10 0 16.5 -7t6.5 -17q-1 -11 -8 -17.5t-17 -6.5q-37 1 -97 1q17 -114 59 -199t107 -122q13 -8 13 -22
q0 -5 -3 -11q-8 -13 -21 -13z" />
    <glyph glyph-name="questiondown" unicode="&#xbf;" horiz-adv-x="384" 
d="M190 -193q-49 0 -89.5 19t-65 55t-24.5 89l1 24q9 82 41 135.5t74 100.5l2 2q55 57 102.5 146.5t61.5 259.5q2 10 9 16.5t17 6.5q23 -5 23 -25v-2q-15 -182 -66 -277.5t-109 -155.5q-39 -43 -69 -91.5t-38 -120.5l-1 -16q0 -38 17 -64q36 -53 117 -53q62 0 115 36
q62 44 62 119q0 23 -7 49q-1 3 -1 7q0 16 18 23l6 1q32 0 32 -81q0 -99 -82 -157q-63 -46 -146 -46zM319 738q-10 0 -17 7t-7 17v39q0 10 7 17t17 7t17.5 -7t7.5 -17v-39q0 -10 -7.5 -17t-17.5 -7z" />
    <glyph glyph-name="multiply" unicode="&#xd7;" horiz-adv-x="355" 
d="M283 110q-10 0 -18 8l-89 93q-3 -3 -35 -32.5t-61 -59.5q-8 -8 -18 -8q-9 0 -16.5 7.5t-7.5 17.5q0 9 7 17q26 26 54 52q22 20 43 41q-95 99 -95 115q0 10 8 17t16 7q11 0 20 -10q28 -33 87 -95q50 46 94 97q8 8 19 8q8 0 16 -7t8 -17q0 -9 -6 -16q-46 -53 -98 -100
q32 -32 91 -95q5 -8 5 -16q0 -10 -7.5 -17t-16.5 -7z" />
    <glyph glyph-name="divide" unicode="&#xf7;" horiz-adv-x="374" 
d="M138 222h-99q-10 0 -17 7.5t-7 17.5q1 10 7.5 16.5t17.5 6.5h29q112 3 195 3q48 0 78 -2q10 0 16.5 -7t6.5 -17q-1 -11 -8 -17.5t-17 -6.5q-25 1 -63 1q-63 0 -139 -2zM184 66q-26 5 -26 32v6q6 34 26 40q5 1 12 1q5 0 8 -1q19 -8 19 -37q0 -35 -24 -40zM184 349
q-26 6 -26 31v6q6 34 26 41q5 1 12 1q5 0 8 -1q19 -8 19 -37q0 -35 -24 -40z" />
    <glyph glyph-name="minus" unicode="&#x2212;" horiz-adv-x="313" 
d="M38 219q-10 0 -17 7t-7 17q0 11 7.5 18t17.5 7q21 0 76.5 1t104.5 1q35 0 56 -1q10 -1 16 -7.5t6 -15.5v-3q0 -10 -7.5 -16.5t-17.5 -6.5q-22 1 -56 1q-47 0 -101.5 -1t-77.5 -1z" />
    <glyph glyph-name="Thorn" unicode="&#xde;" horiz-adv-x="694" 
d="M250 -258q-10 0 -17 6q-18 15 -18 421q-33 34 -33 48q0 12 11 20q7 5 14 5q4 0 8 -2q0 206 5 384q-102 -63 -156 -171q-8 -14 -21 -14q-6 0 -11 3q-15 8 -15 21q0 6 3 11q68 136 202 207q7 160 23 227q13 65 46 65q4 0 10 -2q17 -8 17 -24l-1 -7q-11 -10 -16 -18.5
t-9 -23.5q-8 -43 -16 -115l-1 -19q-2 -24 -3 -58q56 24 113 34q46 10 90 10q137 0 215 -80q62 -64 62 -167q0 -34 -7 -73q-42 -175 -177 -270q-94 -63 -187 -63q-63 0 -117 33q0 -243 9 -362q0 -11 -6 -18t-17 -8zM384 147q79 0 155 53q121 84 157 239q7 35 7 65
q0 87 -48 133q-62 64 -176 64q-41 0 -85 -9q-64 -11 -124 -41q-6 -216 -6 -461q50 -43 120 -43z" />
    <glyph glyph-name="germandbls" unicode="&#xdf;" horiz-adv-x="543" 
d="M88 -146q-10 0 -17 7.5t-7 17.5l9 756q8 167 85 222q40 30 86 33h11q38 0 77 -17q45 -21 79 -65t48 -107l4 -20q2 -15 2 -29q0 -61 -32 -114q-26 -44 -77 -70q69 -27 107 -89q47 -77 47 -173q0 -43 -9 -87q-17 -79 -54 -125q-63 -79 -159 -79q-46 1 -83 21
q-65 36 -65 100q0 11 7.5 18t17.5 7t17 -7t7 -18q0 -36 40 -57q27 -14 61 -15q27 0 54 10q82 33 110 155q7 40 7 77q0 83 -39 147q-37 59 -108 76q-19 4 -40 4q-78 0 -79 27q1 27 76 34q6 0 10.5 1t7.5 1q73 18 103 68q24 40 24 87q0 17 -5 41q-25 102 -100 137
q-26 13 -53 13q-128 0 -136 -208l-9 -756q0 -10 -7.5 -17t-17.5 -7z" />
    <glyph glyph-name="Eth" unicode="&#xd0;" horiz-adv-x="815" 
d="M270 -58h-3q-9 0 -15.5 6t-8.5 16q-9 106 -9 236l1 81l-62 -1h-23.5t-18.5 7t-7 17q0 9 6.5 16.5t17.5 7.5q43 0 88 2q6 202 28 307q13 65 46 65q5 0 10 -2q17 -9 17 -24q0 -4 -1 -7q-10 -11 -15.5 -19.5t-8.5 -23.5q-10 -42 -16 -115q-8 -81 -11 -179q47 0 91 -2
q10 -1 16 -8t6 -18q-1 -11 -8 -17t-17 -6q-45 2 -89 2l-1 -87q0 -126 9 -227v-4q0 -9 -6 -15.5t-16 -7.5zM312 -161q-129 0 -216 44q-80 40 -89 109q0 36 25 36q11 0 17.5 -7t6.5 -16v-10q5 -40 62 -68q76 -39 194 -39q24 0 49 2q146 11 234.5 66.5t127.5 140.5t39 183
q0 19 -1 37q-14 170 -102.5 318.5t-213.5 209.5q-50 24 -101 24q-74 0 -147 -57.5t-135 -189.5q-9 -14 -23 -14q-5 0 -10 2q-14 8 -14 23q0 5 2 10q70 147 153.5 211.5t170.5 64.5q63 0 125 -29q138 -69 233.5 -228.5t110.5 -340.5l1 -42q0 -110 -43.5 -205.5t-142 -157.5
t-261.5 -75q-26 -2 -52 -2z" />
    <glyph glyph-name="eth" unicode="&#xf0;" horiz-adv-x="517" 
d="M227 309q31 23 75 61q72 63 135 156q57 93 57 167q0 33 -12 59t-35 37q-14 8 -31 8q-75 0 -125 -133l-20 -67q45 0 73 -1q10 -1 16.5 -7.5t6.5 -17.5q-1 -11 -8 -17.5t-17 -6.5q-33 1 -84 1q-30 -132 -31 -239zM361 -36q-36 0 -68 20q-47 30 -76 99q-6 11 -10 23l-2 7
q-65 -99 -122 -121q-22 -9 -41 -9q-44 0 -68 41q-17 29 -17 75q0 33 9 74q16 74 61 124q26 29 60 39q11 3 22 3q36 0 70 -30q0 107 29 238l-76 -1q-10 0 -17 7t-7 17q0 11 7 18t17 7l88 1q10 37 22 73q26 82 66 124q51 53 109 53q28 0 52 -13q39 -19 59 -64q15 -33 15 -77
q0 -88 -64 -191q-68 -101 -145 -167q-53 -46 -105 -84q7 -89 33 -148q23 -54 57 -76q20 -12 42 -12q100 0 209 216q8 13 22 13q6 0 11 -2q14 -9 14 -22q0 -6 -3 -11q-106 -206 -210 -236q-22 -8 -43 -8zM42 32q63 0 147 149q-4 19 -6 40l-1 1q-35 68 -73 68q-23 0 -46 -26
q-35 -40 -50 -102q-8 -35 -8 -61q0 -33 10.5 -51t26.5 -18z" />
    <glyph glyph-name="Ntilde" unicode="&#xd1;" horiz-adv-x="889" 
d="M690 -160q-23 0 -42 21q-28 32 -42 108q-12 79 -12 181q0 199 33 392q13 69 13 121q0 86 -29 129q-30 48 -85 48q-23 0 -49 -9q-200 -70 -317 -488q-49 -172 -72 -363q-2 -15 -5 -23q-16 -32 -28 -32q-22 0 -27 101l-2 25q-1 36 -1 83q0 312 53 647q2 9 9 14.5t16 5.5
q11 0 17.5 -7.5t6.5 -15.5l-1 -5q-51 -335 -52 -572q61 284 158 459q103 172 229 217q34 12 66 12q79 0 126 -72q35 -54 35 -157q0 -56 -12 -126q-33 -187 -33 -379q0 -100 12 -178q9 -61 29 -82q3 -3 7 -3q57 0 194 336q5 16 22 16q5 0 9 -2q16 -8 16 -23q0 -4 -2 -9
q-117 -288 -184 -343q-30 -27 -56 -27zM399 959q-19 0 -34 11.5t-28.5 26.5t-23.5 15q-13 0 -33 -21q-8 -9 -18 -9q-9 0 -16.5 7t-7.5 17q0 9 6 16q41 46 69 46q17 0 31 -11t28.5 -27t26.5 -16q16 0 41 27q9 7 19 7q8 0 16.5 -7t8.5 -17q0 -9 -7 -17q-47 -48 -78 -48z" />
    <glyph glyph-name="ntilde" unicode="&#xf1;" horiz-adv-x="440" 
d="M83 215q26 81 60 121q42 45 79 54q9 2 18 2q17 0 32 -7q23 -11 33 -38q11 -22 11 -57q0 -22 -5 -49q-12 -72 -12 -118q0 -37 7 -58q5 -15 11 -18q2 -1 4 -1q3 0 7 1q20 7 48 40q23 29 48 70q23 37 42 78q8 14 22 14q5 0 10 -2q14 -8 14 -22q0 -5 -2 -10q-20 -44 -44 -83
q-27 -44 -52 -75q-36 -44 -71 -57q-11 -3 -21 -3q-16 0 -30 8q-22 12 -33 44q-9 26 -9 71q0 52 14 129q4 22 4 39q0 25 -7 40q-4 10 -12 13q-3 2 -8 2q-4 0 -8 -1q-22 -5 -54 -39q-26 -32 -49 -103q-23 -77 -35 -168q-1 -10 -5 -16q-14 -20 -25 -20q-15 0 -23 36l-1 8
q-1 10 -3 24q-5 40 -5 103q0 88 18 198q2 9 9 14.5t15 5.5h4q9 -2 15 -9t6 -15q0 -2 -1 -5q-13 -72 -16 -141zM105 464q-8 -9 -18 -9q-9 0 -16 6q-9 8 -9 19q0 8 6 16q41 45 69 45q17 0 30.5 -11t27.5 -25l1 -1q6 -7 12.5 -12t15.5 -5q15 0 41 26q8 9 18 9q9 0 17 -7
q8 -9 8 -19q0 -8 -6 -15q-48 -49 -79 -49q-19 0 -33.5 11t-28.5 26l-1 1q-5 6 -10.5 10.5t-13.5 4.5q-12 0 -31 -21z" />
    <glyph glyph-name="thorn" unicode="&#xfe;" horiz-adv-x="396" 
d="M102 -191q-10 0 -17.5 6t-8.5 16q-9 113 -9 249q-18 19 -18 31q0 11 11 20q4 3 8 3q2 109 8 202q-51 -35 -78 -89q-8 -15 -21 -15q-6 0 -11 3q-15 8 -15 22q0 5 3 11q43 85 127 128q7 67 16 108q13 65 46 65q5 0 10 -2q17 -8 17 -24l-1 -7q-10 -10 -15.5 -19t-8.5 -24
q-7 -29 -12 -74q49 17 100 17q25 0 48 -4q126 -29 126 -150q0 -22 -5 -47q-25 -107 -109 -166q-56 -39 -115 -39q-35 0 -62 14q1 -118 9 -209q0 -10 -6 -17.5t-17 -8.5zM179 79q44 0 86 30q69 48 89 135q4 20 4 37q0 47 -26 72q-34 35 -101 35q-52 0 -104 -24
q-9 -120 -11 -263q25 -22 63 -22z" />
    <glyph glyph-name="quoteleft" unicode="&#x2018;" horiz-adv-x="186" 
d="M132 735q-9 0 -17 7q-31 26 -48 64q-14 28 -14 66q0 11 1.5 21.5t7.5 16.5t15 6q13 -1 19.5 -8t6.5 -18l-2 -20q0 -49 47 -92q8 -8 8 -18q0 -9 -7.5 -17t-16.5 -8z" />
    <glyph glyph-name="quoteright" unicode="&#x2019;" horiz-adv-x="186" 
d="M54 734q-10 0 -17 8.5t-7 16.5q0 10 7 18q24 21 38 48q9 20 9 46l-1 18q0 24 25 26q9 0 15.5 -6t8 -16.5t1.5 -21.5q0 -38 -14 -66q-19 -38 -48 -64q-8 -7 -17 -7z" />
    <glyph glyph-name="quotesinglbase" unicode="&#x201a;" horiz-adv-x="186" 
d="M58 123q-10 0 -17.5 8t-7.5 17t8 18q47 38 47 94l-1 20q0 9 5.5 15.5t19.5 7.5q8 0 15 -5.5t8 -16.5t1 -22q0 -75 -62 -130q-7 -6 -16 -6z" />
    <glyph glyph-name="quotedblleft" unicode="&#x201c;" horiz-adv-x="241" 
d="M206 735q-9 0 -17 7q-31 26 -48 64q-14 28 -14 66q0 11 1 21.5t8 16.5t16 6q13 -1 18.5 -7.5t5.5 -15.5l-1 -18q0 -29 11 -49q11 -27 36 -48q8 -8 8 -18q0 -9 -7 -17t-17 -8zM83 735q-9 0 -17 7q-31 26 -48 64q-14 28 -14 66q0 11 1 21.5t7.5 16.5t15.5 6q13 -1 19.5 -8
t6.5 -18l-2 -20q0 -51 47 -92q8 -8 8 -18q0 -9 -7.5 -17t-16.5 -8z" />
    <glyph glyph-name="quotedblright" unicode="&#x201d;" horiz-adv-x="231" 
d="M37 734q-10 0 -17 8t-7 17q0 10 8 18q47 41 47 92l-2 20q0 11 6.5 18t19.5 8q9 0 15 -6t7.5 -16.5t1.5 -21.5q0 -38 -14 -66q-18 -38 -48 -64q-8 -7 -17 -7zM159 734q-10 0 -17.5 8.5t-7.5 17.5t8 17q47 40 47 95l-1 20q0 9 6 15.5t18 7.5q9 0 16 -6t8.5 -16t1.5 -20
q0 -78 -63 -132q-8 -7 -16 -7z" />
    <glyph glyph-name="quotedblbase" unicode="&#x201e;" horiz-adv-x="245" 
d="M34 146q-10 0 -17.5 7.5t-7.5 16.5q0 10 8 19q47 38 47 94l-1 20q0 9 6 15.5t19 7.5q9 0 15.5 -5.5t7.5 -16.5t1 -22q0 -37 -14 -66q-17 -37 -48 -64q-7 -6 -16 -6zM156 146q-11 0 -18.5 8t-7.5 17q0 10 8 18q47 38 47 94l-1 17q0 24 26 26q8 0 14.5 -5.5t8 -16.5
t1.5 -22q0 -37 -14 -66q-18 -37 -48 -64q-8 -6 -16 -6z" />
    <glyph glyph-name="lessequal" unicode="&#x2264;" horiz-adv-x="364" 
d="M334 111q-6 0 -11 2l-260 139q-13 7 -13 22q0 12 12 21l260 156q6 4 13 4q12 0 21 -12q3 -6 3 -12q0 -12 -12 -22l-223 -133l222 -119q13 -8 13 -21q0 -6 -3 -12q-9 -13 -22 -13zM80 18h-20t-17 7t-7 17q0 11 7.5 17.5t18 6.5t92.5 2l144 1q31 0 51 -1q10 -1 16.5 -8
t6.5 -17q-1 -11 -7.5 -17.5t-17.5 -6.5l-51 1z" />
    <glyph glyph-name="greaterequal" unicode="&#x2265;" horiz-adv-x="407" 
d="M105 111q-13 0 -22 13q-3 6 -3 12q0 13 13 21l223 119l-224 133q-12 9 -12 21q0 7 4 13q7 12 20 12q6 0 13 -4l261 -156q11 -9 11 -21q0 -16 -13 -22l-260 -139q-5 -2 -11 -2zM378 18h-19l-66 1l-150 1l-52 -1q-10 0 -17 7t-7 17t6.5 17t16.5 8q20 1 51 1l144 -1
q82 -2 92.5 -2t18 -6.5t7.5 -17.5q0 -10 -7 -17t-18 -7z" />
    <glyph glyph-name="ordmasculine" unicode="&#xba;" horiz-adv-x="187" 
d="M104 626q7 0 13 3q27 14 36 75q2 20 2 37q0 75 -27 101q-9 9 -18 11q-45 0 -57 -113l-1 -21q0 -60 29 -84q11 -9 23 -9zM103 592q-23 0 -43 18q-41 35 -41 112l1 20q11 104 54 132q16 12 33 12q25 0 44 -22q36 -37 36 -123q0 -19 -2 -41q-12 -79 -52 -99q-15 -9 -30 -9z
" />
    <glyph glyph-name="uni00B9" unicode="&#xb9;" horiz-adv-x="175" 
d="M74 602q-7 0 -11.5 5t-4.5 12l2 34q2 65 8 162q-6 -9 -14 -9l-4 1q-12 5 -12 17v3t4 9t9.5 18t11 18t11.5 12.5t12 4.5q8 0 14 -10q4 -6 4 -17q-4 -41 -7 -100q-2 -50 -4 -92.5t-2 -50.5t-5 -12.5t-12 -4.5z" />
    <glyph glyph-name="uni00B2" unicode="&#xb2;" horiz-adv-x="184" 
d="M145 613h-70q-46 0 -49 1t-5 1q-11 4 -11 14t12 26q16 21 39 49q60 70 73 95q9 20 9 33q0 18 -13 24q-6 2 -15 2q-28 -3 -56 -46q-6 -7 -14 -7q-5 0 -9 2q-7 5 -7 13q0 5 2 9q37 58 81 61h8q13 0 24 -5q31 -14 31 -53q0 -21 -11.5 -46.5t-69.5 -93.5q-23 -27 -38 -40
l-7 -7h96q7 0 11.5 -4.5t4.5 -11.5t-4.5 -11.5t-11.5 -4.5z" />
    <glyph glyph-name="uni00B3" unicode="&#xb3;" horiz-adv-x="212" 
d="M96 606q-32 0 -68 41q-4 5 -4 10q0 7 5.5 11.5t10.5 4.5q8 0 14 -6q24 -27 44 -27q25 0 40 36q6 15 6 30v6q-1 37 -40 37q-3 0 -5 -0.5t-3.5 -2t-5 -3.5t-8.5 -2q-7 0 -11.5 5t-4.5 10l1 6q3 11 15 16l1 1q52 46 52 67q0 8 -4 10t-9 2q-37 0 -49 -43q-4 -13 -16 -13
q-8 0 -12 5.5t-4 10.5v3q7 28 24 45q24 24 54 24q15 0 27 -6q21 -11 21 -36v-5q0 -25 -36 -64q44 -17 46 -65v-6q0 -22 -9 -44q-10 -26 -29 -42t-43 -16z" />
    <glyph glyph-name="dotlessi" unicode="&#x131;" horiz-adv-x="194" 
d="M81 -237q-10 0 -17 7.5t-7 17.5l11 1135q0 10 6.5 17t17.5 7t18 -7t7 -17l-11 -1136q0 -10 -7 -17t-18 -7z" />
    <glyph glyph-name="endash" unicode="&#x2013;" horiz-adv-x="385" 
d="M136 218h-105q-9 0 -16 6.5t-7 17.5q0 10 6.5 17t17.5 7h31q121 3 207 3q52 0 83 -2q10 0 16.5 -7t6.5 -17q-1 -11 -7.5 -17.5t-16.5 -6.5q-27 1 -68 1q-67 0 -148 -2z" />
    <glyph glyph-name="emdash" unicode="&#x2014;" horiz-adv-x="668" 
d="M270 218h-155q-9 0 -16.5 6.5t-7.5 16.5q0 12 7 18.5t17 6.5h46q182 3 307 3q77 0 123 -2q10 0 16.5 -7t6.5 -18q0 -9 -7 -16t-17 -7q-39 1 -100 1q-100 0 -220 -2z" />
    <glyph glyph-name="bullet" unicode="&#x2022;" horiz-adv-x="222" 
d="M106 155q-26 0 -47 13q-37 23 -37 66l1 13q13 67 60 81q12 4 24 4q28 0 47 -16q32 -22 32 -70q0 -12 -2 -25q-13 -54 -59 -64q-9 -2 -19 -2z" />
    <glyph glyph-name="periodcentered" unicode="&#xb7;" horiz-adv-x="118" 
d="M70 205v1q-4 -1 -14 -1q-30 6 -30 35v5q6 29 26 35q5 2 9 2q14 0 22 -7q14 -10 14 -30l-1 -11q-5 -23 -26 -29z" />
    <glyph glyph-name="guilsinglleft" unicode="&#x2039;" horiz-adv-x="364" 
d="M249 40q-15 0 -27 12q-68 77 -144 151q-21 24 -21 39t19 33l2 2q82 76 154 157q12 13 27 13q13 0 25 -10.5t12 -26.5q0 -12 -9 -23q-68 -77 -144 -148q68 -69 133 -139q9 -11 9 -24q0 -15 -11.5 -25.5t-24.5 -10.5z" />
    <glyph glyph-name="guilsinglright" unicode="&#x203a;" horiz-adv-x="364" 
d="M112 40q-13 0 -24.5 10.5t-11.5 25.5q0 13 9 24q43 47 88 93l45 46q-76 71 -143 148q-9 11 -9 24q0 15 11.5 25.5t24.5 10.5q15 0 27 -13q73 -81 154 -157l3 -3q18 -17 18 -31q0 -16 -22 -40q-74 -74 -143 -151q-12 -12 -27 -12z" />
    <glyph glyph-name="guillemotleft" unicode="&#xab;" horiz-adv-x="513" 
d="M233 40q-15 0 -27 12q-70 77 -144 151q-22 24 -22 40q0 15 20 32q80 75 155 159q12 13 27 13q13 0 25 -10.5t12 -26.5q0 -12 -9 -23q-68 -77 -143 -148l38 -40q49 -49 94 -99q9 -12 9 -25q0 -14 -11 -26q-11 -9 -24 -9zM398 40q-14 0 -26 12q-69 77 -144 151
q-22 24 -22 40q0 15 20 32q83 78 156 159q12 13 27 13q12 0 24 -10.5t12 -25.5q0 -13 -9 -24q-67 -77 -143 -148l38 -40q49 -49 94 -99q10 -12 10 -25q0 -14 -12 -24.5t-25 -10.5z" />
    <glyph glyph-name="guillemotright" unicode="&#xbb;" horiz-adv-x="527" 
d="M266 40q-13 0 -24.5 10t-11.5 25q0 13 10 25q45 50 94 99l38 40q-75 71 -143 148q-9 11 -9 24q0 15 12 25.5t24 10.5q15 0 27 -13q73 -81 156 -159q20 -17 20 -32q0 -16 -22 -40q-74 -74 -144 -151q-12 -12 -27 -12zM100 40q-13 0 -24.5 10.5t-11.5 24.5q0 13 10 25
q45 50 94 99l38 40q-76 71 -143 148q-9 11 -9 24q0 15 11.5 25.5t24.5 10.5q15 0 27 -13q69 -77 156 -159q20 -17 20 -32q0 -16 -23 -40q-74 -74 -143 -151q-12 -12 -27 -12z" />
    <glyph glyph-name="dagger" unicode="&#x2020;" horiz-adv-x="275" 
d="M137 -171q-10 0 -17 6.5t-7 15.5l8 684l-118 -1h-21.5t-17.5 7t-7 17t6.5 17t17.5 7l140 2l3 260q0 11 7.5 18t17.5 7t17 -7t7 -18l-3 -259l67 1q44 0 71 -2q10 -1 16.5 -8t6.5 -17q-1 -11 -7.5 -17.5t-17.5 -6.5q-28 2 -71 2l-66 -1l-8 -683q0 -10 -7 -17t-17 -7z" />
    <glyph glyph-name="copyright" unicode="&#xa9;" horiz-adv-x="411" 
d="M227 128q82 0 102 83q4 22 4 40q0 65 -42 97q-26 18 -58 18q-50 0 -83 -43q-22 -28 -29 -77l-1 -19q0 -55 45 -82q28 -17 62 -17zM227 145q-45 3 -69 38q-17 23 -17 56q5 56 43 87q27 23 55 23q37 0 52 -38l1 -8q0 -16 -16 -24l-8 -1q-18 0 -23 16q-1 5 -3 5.5t-5 0.5
q-8 0 -22 -11q-21 -19 -25 -50q0 -18 8 -29q5 -8 13 -12t17 -4q12 0 25 9q6 4 13 4q12 0 21 -11q5 -6 5 -14q0 -11 -11 -20q-25 -17 -54 -17zM227 79q-13 0 -27 2q-33 6 -62.5 23.5t-48.5 49t-19 74.5q0 12 2 24q10 64 41.5 103t73.5 52q24 8 49 8q45 0 84 -28
q62 -46 62 -138q0 -84 -45 -127t-110 -43z" />
    <glyph glyph-name="registered" unicode="&#xae;" horiz-adv-x="336" 
d="M192 154q62 0 78 64q3 17 3 32q0 54 -33 76q-19 14 -46 14q-11 0 -22 -4q-50 -14 -64 -90l-1 -15q0 -44 35 -64q22 -13 50 -13zM165 171h-4q-12 0 -15 13q-5 19 -5 53q0 36 9 59q15 26 38 28q22 0 34.5 -14.5t12.5 -33.5q0 -31 -26 -45l-1 -1l3 -4q11 -12 16 -17.5
t8.5 -9.5t3.5 -10q0 -7 -5 -11.5t-12 -4.5q-6 0 -12 5l-19 22l-17 16l3 -29q0 -13 -12 -16zM174 256q16 0 24 7q4 4 4 12q0 7 -2 10t-3.5 4t-2.5 1t-2 0.5t-2 0.5l-5 -3q-8 -6 -11 -32zM192 105q-43 0 -76 21q-26 15 -42 42t-16 64l1 20q8 54 35 86.5t62 43.5q20 7 41 7
q38 0 73 -24q52 -38 52 -114q0 -73 -38 -109.5t-92 -36.5z" />
    <glyph glyph-name="section" unicode="&#xa7;" horiz-adv-x="402" 
d="M203 -142h-7q-34 0 -65 15t-51 46.5t-20 79.5q0 11 7.5 18t17.5 7t17 -7t7 -18q0 -32 12.5 -52.5t32 -30t43.5 -9.5h6q21 0 42 8q72 24 72 101q0 56 -29.5 96t-71.5 79l-5 5q-41 37 -80 83.5t-66 111.5q-14 38 -14 80q0 29 7 57q16 61 66 94q-41 59 -41 106q0 14 3 27
q22 71 96 95q31 10 62 10q39 0 72 -16q58 -29 58 -99q0 -9 -1.5 -18.5t-9 -15.5t-16.5 -6h-2q-21 6 -21 24l1 18q0 20 -9 33q-20 32 -70 32q-24 0 -48 -9q-51 -16 -64 -60q-2 -7 -2 -16q0 -52 73 -121q141 -134 166 -234q10 -33 10 -61q0 -18 -4 -35q-16 -72 -76 -102
q29 -32 47 -69.5t18 -86.5q0 -65 -35 -103q-29 -32 -69 -46q-29 -11 -59 -11zM265 211q24 9 40 27q27 27 27 70q0 23 -8 51q-22 86 -153 211l-15 15q-37 -22 -51 -70q-6 -22 -6 -45q0 -32 11 -60q24 -58 59.5 -100.5t72.5 -76.5z" />
    <glyph glyph-name="degree" unicode="&#xb0;" horiz-adv-x="216" 
d="M100 759l9 1q32 7 32 52q0 47 -38 49q-38 0 -48 -53l-1 -8q0 -24 19 -34q9 -7 27 -7zM96 710q-26 0 -50 15q-40 25 -40 74l1 16q13 72 64 89q1 1 1.5 1t0.5 1q14 4 28 4q30 0 53 -17q36 -27 36 -79q0 -14 -3 -29q-18 -75 -91 -75z" />
    <glyph glyph-name="bar" unicode="|" horiz-adv-x="229" 
d="M116 -237q-10 0 -17 7.5t-7 17.5l11 1135q0 10 6.5 17t17.5 7t18 -7t7 -17l-11 -1136q0 -10 -7 -17t-18 -7z" />
    <glyph glyph-name="Agrave" unicode="&#xc0;" 
d="M57 -207h-4q-18 0 -24 21q-2 14 -2 35q0 132 75 430q-44 -13 -70 -30l-18 -11q8 -7 8 -16t-8 -17t-18 -8q-8 0 -16 7q-14 15 -15 32q0 51 134 94l17 6q38 141 83 269q75 213 136 279q28 31 59 31q36 -1 58 -47q34 -70 34 -286l-3 -186h18q23 0 43 -2q9 -1 15 -7.5
t6 -15.5q0 -12 -7 -18.5t-16 -6.5q-26 2 -60 2v-63q0 -130 11 -244.5t46 -155.5q7 -8 7 -17q0 -10 -7.5 -17.5t-17.5 -7.5q-9 0 -17 8q-44 51 -57.5 176t-13.5 264v54q-137 -11 -276 -49q-82 -317 -82 -446l2 -33q0 -8 -5.5 -15t-14.5 -9zM447 978l-6 1q-77 17 -104 88
q-2 5 -2 9q0 14 15 22q5 2 9 2q15 0 23 -16q11 -25 29 -38.5t42 -18.5q19 -8 19 -24l-1 -6q-8 -19 -24 -19zM171 351q135 32 263 43l1 74q2 59 2 131q0 191 -29 249q-9 17 -16 18q-8 0 -21 -16q-55 -58 -126 -260q-39 -114 -74 -239z" />
    <glyph glyph-name="Aacute" unicode="&#xc1;" 
d="M56 -207h-4q-8 0 -15 5.5t-9 15.5q-2 14 -2 34q0 94 43 293l32 138q-43 -13 -69 -30q-15 -9 -17 -11q6 -7 6 -16t-7.5 -17t-17.5 -8q-9 0 -17 7q-14 14 -14 33q0 30 42 54q33 20 109 45q38 141 82 269q75 213 136 279q30 31 59 31q37 -2 59 -47q34 -70 34 -286
q0 -44 -2 -101l-2 -85h18q24 0 43 -2q10 -1 16 -8t6 -17q-1 -10 -8 -16.5t-16 -6.5q-26 2 -59 2l-1 -81q0 -126 11.5 -234.5t45.5 -147.5q8 -8 8 -18q0 -9 -8 -16.5t-17 -7.5q-10 0 -18 8q-43 51 -56.5 176t-13.5 264v54q-138 -11 -277 -49l-7 -28q-74 -297 -74 -418l2 -32
q0 -9 -6 -16t-15 -9zM360 978q-8 0 -16.5 6.5t-8.5 18.5q0 16 19 24q24 5 42 18.5t29 38.5q8 16 23 16q4 0 9 -2q15 -9 15 -23l-1 -8q-30 -72 -105 -88zM171 351q134 32 262 43q2 38 2 74q2 66 2 114q0 206 -30 266q-8 17 -15 18q-8 0 -22 -16q-53 -58 -126 -260
q-39 -114 -73 -239z" />
    <glyph glyph-name="Acircumflex" unicode="&#xc2;" 
d="M57 -207h-4q-18 0 -24 21q-2 14 -2 35q0 132 75 430q-44 -13 -70 -30l-17 -11q7 -7 7 -16t-8 -17t-17 -8t-17 7q-15 16 -15 33q0 50 134 93l17 6q38 141 83 269q75 213 136 279q30 31 59 31q37 -2 58 -47q34 -68 34 -271q0 -101 -3 -201h18q23 0 43 -2q9 -1 15 -7.5
t6 -15.5q0 -12 -7 -18.5t-16 -6.5q-26 2 -60 2v-63q0 -130 11 -244.5t46 -155.5q7 -8 7 -18q0 -9 -7.5 -16.5t-16.5 -7.5q-10 0 -18 8q-44 51 -57.5 176t-13.5 264v54q-137 -11 -276 -49q-82 -317 -82 -446l2 -33q0 -8 -5.5 -15t-14.5 -9zM449 963q-19 0 -34 11.5
t-28.5 26.5t-24.5 15q-12 0 -31 -21q-8 -9 -18 -9q-9 0 -17 7t-8 17q0 9 6 17q41 45 69 45q17 0 31 -11.5t29 -27t27 -15.5q16 0 41 26q8 9 18 9q9 0 16.5 -7.5t7.5 -17.5q0 -9 -6 -16q-47 -49 -78 -49zM171 351q135 32 263 43l1 74q2 59 2 131q0 191 -29 249q-9 18 -15 18
q-9 0 -22 -16q-55 -58 -126 -260q-39 -114 -74 -239z" />
    <glyph glyph-name="Atilde" unicode="&#xc3;" 
d="M57 -207h-4q-18 0 -24 21q-2 14 -2 35q0 132 75 430q-44 -13 -70 -30l-18 -11q8 -7 8 -16t-8 -17t-18 -8q-8 0 -16 7q-15 15 -15 34q0 50 134 92l17 6q38 141 83 269q75 213 136 279q30 31 59 31q36 -1 58 -47q34 -68 34 -271q0 -42 -3 -201h18q23 0 43 -2q9 -1 15 -8
t6 -17q-1 -10 -8 -16.5t-16 -6.5q-26 2 -59 2v-63q0 -130 11 -244.5t46 -155.5q7 -8 7 -17q0 -10 -7.5 -17.5t-17.5 -7.5q-9 0 -17 8q-44 51 -57.5 176t-13.5 264v54q-138 -11 -276 -49q-22 -86 -40 -166q-43 -197 -43 -283q0 -15 2 -26l1 -5q0 -8 -5.5 -14.5t-14.5 -8.5z
M447 954q-13 0 -22 14q-15 36 -26 67q-19 -52 -21 -61q-9 -17 -24 -17q-4 0 -7 1q-17 8 -17 24q0 4 8 27q25 73 38 97q10 19 24 19q5 0 12 -4q5 0 7 -3t3 -5q6 -8 14 -36l4 -10q11 -36 30 -79q2 -5 2 -10q0 -14 -15 -22q-5 -2 -10 -2zM171 351q134 32 263 43l3 205
q0 191 -29 249q-9 17 -16 18q-7 0 -22 -16q-54 -58 -125 -260q-39 -114 -74 -239z" />
    <glyph glyph-name="Adieresis" unicode="&#xc4;" 
d="M56 -207h-4q-8 0 -15 5.5t-9 15.5q-2 14 -2 34q0 94 43 293l32 138q-44 -14 -81 -37l-6 -4q7 -7 7 -16t-7.5 -17t-17.5 -8q-9 0 -17 7q-14 14 -14 34q0 30 42 53q33 20 109 45q38 141 82 269q75 213 136 279q30 31 59 31q37 -2 59 -47q34 -70 34 -286q0 -44 -2 -101
l-2 -85h18q24 0 43 -2q10 -1 16 -8t6 -18q-2 -10 -8.5 -16t-15.5 -6q-25 2 -59 2l-1 -80q0 -126 11.5 -235t46.5 -148q7 -8 7 -17q0 -10 -8 -17.5t-17 -7.5q-10 0 -18 8q-43 51 -56.5 176t-13.5 264v54q-138 -11 -277 -49q-22 -86 -40 -166q-41 -193 -41 -280l2 -32
q0 -9 -6 -16t-15 -9zM471 986q-20 0 -30 21q-4 6 -4 15q0 19 21 30q6 2 12 2q19 0 30 -20l3 -15q0 -20 -21 -31q-6 -2 -11 -2zM324 986q-19 0 -30 21q-4 6 -4 15q0 19 21 30q6 2 12 2q19 0 30 -20l3 -15q0 -20 -21 -31q-5 -2 -11 -2zM171 351q133 32 262 43q2 38 2 74
q2 66 2 114q0 206 -30 266q-8 17 -15 18q-8 0 -22 -16q-55 -58 -125 -260q-40 -114 -74 -239z" />
    <glyph glyph-name="Aring" unicode="&#xc5;" 
d="M57 -207h-4q-18 0 -24 21q-2 14 -2 35q0 132 75 430q-44 -13 -70 -30l-18 -11q8 -7 8 -16t-8 -17t-18 -8q-8 0 -16 7q-15 15 -15 34q0 50 134 92l17 6q38 141 83 269q75 213 136 279q30 31 59 31q36 -1 58 -47q34 -68 34 -271l-2 -164l-1 -37h18q24 0 43 -2q9 -1 15 -8
t6 -18q-1 -10 -8 -16t-16 -6q-26 2 -59 2v-63q0 -130 11 -244.5t46 -155.5q7 -8 7 -17q0 -10 -7.5 -17.5t-17.5 -7.5q-9 0 -17 8q-44 51 -57.5 176t-13.5 264v54q-138 -11 -276 -49q-82 -317 -82 -446l2 -33q0 -8 -5.5 -15t-14.5 -9zM396 1005q8 0 13 1q20 4 20 35
q0 20 -11 28q-3 2 -12 4q-5 0 -6.5 -0.5t-2.5 -0.5q-21 -5 -23 -41q0 -22 22 -26zM402 956q-24 0 -43 12q-35 19 -35 62l1 13q12 62 56 75q11 4 23 4q25 0 44 -14q30 -21 30 -68q0 -10 -2 -22q-15 -62 -74 -62zM171 351q134 32 263 43q0 38 1 73.5t2 65.5v66q0 191 -29 249
q-9 17 -16 18q-7 0 -22 -16q-54 -58 -125 -260q-39 -114 -74 -239z" />
    <glyph glyph-name="AE" unicode="&#xc6;" horiz-adv-x="1163" 
d="M434 394q0 38 2 74q0 35 1 65v66q0 191 -29 249q-9 18 -15 18h-1q-7 0 -22 -16q-54 -58 -125 -260q-39 -114 -74 -239q134 32 263 43zM538 395q3 0 5 1q15 5 43 9q11 251 30 402q-3 -1 -8 -1q-56 2 -71 7q-52 15 -52 28q0 16 65 29q25 6 78 10l13 1q7 2 14 2l1 -1
q119 9 243 9q66 0 121 -3.5t84 -12.5q17 -8 17 -24q0 -3 -1 -7q-8 -17 -24 -17q-3 0 -7 1q-65 15 -188 15q-116 0 -231 -9q-22 -140 -35 -423q74 7 150 7q46 0 85 -4t59 -13q15 -9 15 -22q0 -6 -3 -11q-8 -14 -23 -14q-5 0 -10 2q-41 14 -121 14q-76 0 -154 -8
q-5 -121 -5 -234q0 -129 7 -233v-4v-2t1 -3v-1h16q109 0 254.5 10t206.5 32q4 1 8 1q15 0 24 -15q1 -4 1 -8q0 -7 -4 -14t-11 -10q-66 -23 -218 -34t-264 -11h-14q-54 0 -82 3q-16 2 -29 4h-3q-6 0 -11 3q-27 7 -27 17q0 4 6 9q-31 53 -42 155q-14 125 -14 264v54
q-138 -11 -276 -49q-22 -86 -40 -166q-42 -193 -42 -280q0 -17 2 -29v-4q0 -8 -5.5 -15t-14.5 -9h-4q-18 0 -24 21q-2 14 -2 35q0 95 42 292q15 67 33 138q-44 -13 -70 -30q-14 -9 -18 -11q8 -7 8 -16t-8 -17t-18 -8q-8 0 -16 7q-12 12 -14 26q-1 4 -1 8q0 30 42 53
q34 21 92 39q4 2 9 3q4 2 8 3q38 141 83 269q75 213 136 279q30 31 59 31h5q33 -4 53 -47q34 -68 34 -271v-15q0 -44 -2 -101v-48q-1 -19 -1 -37h18q20 0 37 -1zM532 -106q2 0 3 1q3 1 6 1q13 4 44 9q-6 99 -6 219q0 101 3 209q-38 3 -50 8h-1q-7 3 -13 6q-16 1 -36 1v-63
q0 -130 11 -244q10 -104 39 -147z" />
    <glyph glyph-name="OE" unicode="&#x152;" horiz-adv-x="1241" 
d="M664 374q1 21 1 43q0 74 -13 156q-20 121 -53.5 186t-74.5 84q-20 10 -41 10q-25 0 -50 -12q-52 -22 -99 -81q-55 -66 -90 -153.5t-35 -171.5q0 -49 14 -92q60 -161 185 -218q75 -37 156 -40q13 -1 26 -1q35 67 55 151q9 36 14 75q-13 2 -19 5h-1q-32 14 -32 27
q0 15 44 28q6 2 13 4zM688 205q-17 -62 -42 -116q21 3 41 8v1q0 53 1 107zM687 47q-33 -8 -68 -11q-42 -71 -94 -119q-75 -70 -159 -87q-24 -5 -48 -5q-61 0 -115 33q-71 42 -116 145t-51 272v14q0 56 11.5 126t34.5 142q40 129 121 222q8 9 18 9q8 0 16 -7q8 -8 8 -18
q0 -9 -6 -16q-74 -85 -110 -205q-22 -68 -33 -133.5t-11 -117.5v-14q5 -156 44 -248.5t99 -128.5q43 -26 91 -26q18 0 37 4q70 15 136 75q38 35 69 83q-90 4 -174 45q-69 33 -124 94t-87 152q-16 50 -16 106q0 94 38 190.5t98 168.5q55 65 117 94q35 16 70 16q32 0 63 -15
q35 -17 64 -56q16 7 48 13q25 6 78 10l13 1q7 2 14 2l1 -1q119 9 243 9q66 0 121 -3.5t84 -12.5q17 -8 17 -24q0 -3 -1 -7q-8 -17 -24 -17q-3 0 -7 1q-65 15 -188 15q-116 0 -231 -9q-22 -140 -35 -423q74 7 150 7q46 0 85 -4t59 -13q15 -9 15 -22q0 -6 -3 -11
q-8 -14 -23 -14q-5 0 -10 2q-41 14 -121 14q-76 0 -154 -8q-5 -121 -5 -234q0 -129 7 -233v-4v-2t1 -3v-1h16q109 0 254.5 10t206.5 32q4 1 8 1q15 0 24 -15q1 -4 1 -8q0 -7 -4 -14t-11 -10q-66 -23 -218 -34t-264 -11h-14q-54 0 -82 3q-70 8 -70 24q0 13 52 32q3 1 6 1
q13 4 44 9q-5 77 -6 168zM637 789l1 -1q40 -74 62 -208l4 -24q8 132 20 225q-3 -1 -8 -1q-56 2 -71 7z" />
    <glyph glyph-name="Ccedilla" unicode="&#xc7;" horiz-adv-x="676" 
d="M249 -354q-15 0 -30 7.5t-15 21.5q0 5 2 10q8 14 22 14q5 0 10 -2t10 -2q15 0 24 14q5 8 5 11q-1 2 -4 3.5t-6.5 4t-6.5 4.5q-35 20 -35 54l1 20q-68 9 -125 45q-92 59 -118 185l-3 19q-4 32 -4 66q0 164 84 339q88 189 289 360q43 36 85 57q58 30 108 30h4q57 0 94 -42
q9 -10 15 -24q10 -20 10 -66q0 -156 -119 -260q-7 -5 -15 -5q-11 0 -19 8q-5 8 -5 16q0 11 9 19q102 90 102 227q0 28 -5 38t-11 16q-20 24 -56 25q-40 0 -90 -26q-38 -18 -76 -50q-192 -164 -277 -345q-78 -162 -78 -315q0 -32 4 -62q0 -7 2 -16q22 -106 97 -153
q62 -39 138 -39q34 0 54 4q123 24 222 139q89 114 151 238q9 12 21 12q7 0 13 -3q12 -7 12 -20q0 -6 -3 -12q-63 -127 -157 -246q-109 -130 -250 -156l-7 -1q-26 -4 -47 -4l-2 -21q7 -7 16.5 -12t16.5 -10q24 -15 24 -38q0 -18 -19 -43q-14 -21 -42 -31q-10 -3 -20 -3z" />
    <glyph glyph-name="Egrave" unicode="&#xc8;" horiz-adv-x="601" 
d="M140 -190q-159 0 -159 27q0 13 52 32l6 1q13 4 44 9q-6 99 -6 219q0 101 3 209q-38 3 -50 8q-33 14 -33 27q0 23 87 37q11 251 30 402q-3 -1 -8 -1q-56 2 -71 7q-52 15 -52 28q0 16 65 29q26 6 91 11q7 2 14 2l1 -1q119 9 243 9q152 0 205 -16q17 -8 17 -24l-1 -7
q-8 -17 -24 -17l-7 1q-65 15 -188 15q-116 0 -231 -9q-22 -140 -35 -423q74 7 150 7q107 0 144 -17q15 -9 15 -22q0 -6 -3 -11q-8 -14 -23 -14q-5 0 -10 2q-41 14 -121 14q-76 0 -154 -8q-5 -121 -5 -234q0 -129 7 -235l1 -8h16q109 0 254.5 10t206.5 32l8 1q15 0 24 -15
l1 -8q0 -17 -15 -24q-66 -23 -218 -34t-271 -11zM319 940l-6 1q-75 15 -105 87q-2 4 -2 9q0 14 16 23q4 2 9 2q17 0 22 -16q18 -45 71 -58q19 -7 19 -23q0 -12 -8 -18.5t-16 -6.5z" />
    <glyph glyph-name="Eacute" unicode="&#xc9;" horiz-adv-x="601" 
d="M140 -190q-159 0 -159 27q0 13 52 32l6 1q13 4 44 9q-6 99 -6 219q0 101 3 209q-38 3 -50 8q-33 14 -33 27q0 23 87 37q11 251 30 402q-3 -1 -8 -1q-56 2 -71 7q-52 15 -52 28q0 16 65 29q26 6 91 11q7 2 14 2l1 -1q119 9 243 9q152 0 205 -16q17 -8 17 -24l-1 -7
q-8 -17 -24 -17l-7 1q-65 15 -188 15q-116 0 -231 -9q-22 -140 -35 -423q74 7 150 7q107 0 144 -17q15 -9 15 -22q0 -6 -3 -11q-8 -14 -23 -14q-5 0 -10 2q-41 14 -121 14q-76 0 -154 -8q-5 -121 -5 -234q0 -129 7 -235l1 -8h16q109 0 254.5 10t206.5 32l8 1q15 0 24 -15
l1 -8q0 -17 -15 -24q-66 -23 -218 -34t-271 -11zM326 1046q4 10 11 13t11 3q5 0 10 -2q9 -4 12 -10.5t3 -11.5t-2 -10q-16 -40 -44 -60t-60 -27q-3 -1 -6 -1q-7 0 -12 4q-9 5 -12 15q-1 3 -1 6q0 6 4 12q5 8 15 11q24 6 43 19q17 13 28 39z" />
    <glyph glyph-name="Ecircumflex" unicode="&#xca;" horiz-adv-x="601" 
d="M140 -190q-159 0 -159 27q0 13 52 32l6 1q13 4 44 9q-6 99 -6 219q0 101 3 209q-38 3 -50 8q-33 14 -33 27q0 23 87 37q11 251 30 402q-3 -1 -8 -1q-56 2 -71 7q-52 15 -52 28q0 16 65 29q26 6 91 11q7 2 14 2l1 -1q119 9 243 9q152 0 205 -16q17 -8 17 -24l-1 -7
q-8 -17 -24 -17l-7 1q-65 15 -188 15q-116 0 -231 -9q-22 -140 -35 -423q74 7 150 7q107 0 144 -17q15 -9 15 -22q0 -6 -3 -11q-8 -14 -23 -14q-5 0 -10 2q-41 14 -121 14q-76 0 -154 -8q-5 -121 -5 -234q0 -129 7 -235l1 -8h16q109 0 254.5 10t206.5 32l8 1q15 0 24 -15
l1 -8q0 -17 -15 -24q-66 -23 -218 -34t-271 -11zM363 940q-14 0 -23 15l-9 22l-17 45q-19 -52 -21.5 -60.5t-9.5 -13.5t-15 -5l-6 1q-17 9 -17 24q0 4 8 27q14 44 27 75l10 21q1 0 1 2q9 18 24 18q11 0 19 -7v-1h2q1 -3 4.5 -8.5t7.5 -18.5q22 -65 37 -102q2 -5 2 -10
q0 -13 -14 -22q-5 -2 -10 -2z" />
    <glyph glyph-name="Edieresis" unicode="&#xcb;" horiz-adv-x="601" 
d="M140 -190q-159 0 -159 27q0 13 52 32l6 1q13 4 44 9q-6 99 -6 219q0 101 3 209q-38 3 -50 8q-33 14 -33 27q0 23 87 37q11 251 30 402q-3 -1 -8 -1q-56 2 -71 7q-52 15 -52 28q0 16 65 29q26 6 91 11q7 2 14 2l1 -1q119 9 243 9q152 0 205 -16q17 -8 17 -24l-1 -7
q-8 -17 -24 -17l-7 1q-65 15 -188 15q-116 0 -231 -9q-22 -140 -35 -423q74 7 150 7q107 0 144 -17q15 -9 15 -22q0 -6 -3 -11q-8 -14 -23 -14q-5 0 -10 2q-41 14 -121 14q-76 0 -154 -8q-5 -121 -5 -234q0 -129 7 -235l1 -8h16q109 0 254.5 10t206.5 32l8 1q15 0 24 -15
l1 -8q0 -17 -15 -24q-66 -23 -218 -34t-271 -11zM391 932q-20 0 -31 21q-3 7 -3 15q0 19 21 30q6 3 12 3q19 0 30 -21l3 -16q0 -19 -20 -30q-6 -2 -12 -2zM244 932q-20 0 -31 21q-3 7 -3 15q0 19 21 30q6 3 12 3q19 0 30 -21l3 -16q0 -19 -20 -30q-6 -2 -12 -2z" />
    <glyph glyph-name="Igrave" unicode="&#xcc;" horiz-adv-x="401" 
d="M6 -203q-29 2 -35 21q-2 5 -2 10q0 12 8 18.5t19 6.5q5 0 8 1t8 1q102 19 179 25q-6 100 -6 221q0 128 6 265q12 298 36 450q-81 -3 -144 -9q0 -11 -7.5 -18.5t-17.5 -7.5q-51 2 -66 7q-45 15 -45 28q0 16 57 28q24 6 71 11q117 11 244 11q135 0 183 -16q16 -8 16 -23
q0 -5 -2 -9q-8 -16 -23 -16l-8 1q-57 15 -166 15h-42q-24 -145 -38 -454q-5 -131 -5 -255q0 -123 6 -225q45 3 94 3t107 -2q10 -1 17 -7.5t7 -17.5q-1 -11 -7.5 -17.5t-16.5 -6.5q-56 2 -103 2q-55 0 -104 -3q-83 -6 -194 -24q-10 -14 -34 -14zM319 940l-6 1q-75 15 -105 87
q-2 4 -2 9q0 14 16 23q4 2 9 2q17 0 22 -16q18 -45 71 -58q19 -7 19 -23q0 -12 -8 -18.5t-16 -6.5z" />
    <glyph glyph-name="Iacute" unicode="&#xcd;" horiz-adv-x="401" 
d="M193 649q9 106 19 167q-78 -3 -145 -9v-2q0 -11 -7.5 -17.5t-17.5 -6.5q-51 2 -65 7q-45 16 -45 29q0 15 57 27q24 6 71 11q103 10 172.5 10.5t76.5 0.5q120 0 177 -16q10 -4 13 -11t3 -13q0 -4 -1 -8q-4 -10 -10.5 -13t-12.5 -3q-4 0 -8 1q-49 15 -154 15h-25
q-15 0 -29 -1q-11 -60 -21 -174q-11 -125 -17 -279q-6 -130 -6 -246q0 -125 7 -234q49 3 104 3q46 0 97 -2q11 -1 17.5 -8t6.5 -18q0 -10 -7 -16.5t-16 -6.5h-2q-53 2 -101 2q-56 0 -105 -3h-1q-83 -6 -192 -24q-13 -14 -35 -14q-12 1 -22 6t-13 15q-2 6 -2 14
q2 10 9.5 15.5t17.5 5.5h2q3 0 6 1t7 1q101 18 180 25q-7 110 -7 237q0 117 6 249q7 155 18 283zM288 1046q4 10 11 13t11 3q5 0 10 -2q9 -4 12 -10.5t3 -11.5t-2 -10q-16 -40 -44 -60t-60 -27q-3 -1 -6 -1q-7 0 -12 4q-9 5 -12 15q-1 3 -1 6q0 6 4 12q5 8 15 11q24 6 43 19
q17 13 28 39z" />
    <glyph glyph-name="Icircumflex" unicode="&#xce;" horiz-adv-x="401" 
d="M-20 -203q-29 2 -35 21q-2 5 -2 10q1 13 8.5 19t16.5 6h4q3 0 6 1t7 1q103 19 180 25q-7 100 -7 221q0 128 6 265q13 298 37 450q-81 -3 -145 -9q0 -11 -7 -18.5t-17 -7.5q-52 2 -66 7q-46 15 -46 28q0 16 58 28q24 6 71 11q117 11 244 11q135 0 182 -16q16 -8 16 -24
l-1 -8q-9 -16 -23 -16l-8 1q-57 15 -166 15h-42q-24 -145 -38 -454q-6 -140 -6 -270q0 -115 6 -210q45 3 95 3q49 0 107 -2q10 -1 17 -8t7 -18q-1 -10 -7.5 -16.5t-17.5 -6.5q-56 2 -103 2q-54 0 -103 -3q-83 -6 -194 -24q-10 -14 -34 -14zM280 940q-14 0 -23 15l-9 22
l-17 45q-19 -52 -21.5 -60.5t-9.5 -13.5t-15 -5l-6 1q-17 9 -17 24q0 4 8 27q14 44 27 75l10 21q1 0 1 2q9 18 24 18q11 0 19 -7v-1h2q1 -3 4.5 -8.5t7.5 -18.5q22 -65 37 -102q2 -5 2 -10q0 -13 -14 -22q-5 -2 -10 -2z" />
    <glyph glyph-name="Idieresis" unicode="&#xcf;" horiz-adv-x="401" 
d="M-9 -203q-38 2 -38 35q2 9 9.5 15t18.5 6q4 0 7.5 1t7.5 1q102 19 179 25q-6 96 -6 213q0 132 6 273q13 298 37 450q-81 -3 -145 -9q0 -12 -7 -19t-17 -7q-53 2 -67 7q-45 15 -45 28q0 16 58 28q24 6 70 11q117 11 245 11q135 0 182 -16q16 -8 16 -23q0 -5 -2 -9
q-8 -16 -23 -16l-8 1q-57 15 -165 15h-42q-25 -145 -39 -454q-5 -136 -5 -263q0 -119 6 -217q45 3 94 3q50 0 108 -2q10 -1 16.5 -7.5t6.5 -17.5q0 -10 -6.5 -17t-17.5 -7q-56 2 -103 2q-55 0 -104 -3q-83 -6 -193 -24q-11 -14 -34 -14zM327 932q-20 0 -31 21q-3 7 -3 15
q0 19 21 30q6 3 12 3q19 0 30 -21l3 -16q0 -19 -20 -30q-6 -2 -12 -2zM180 932q-20 0 -31 21q-3 7 -3 15q0 19 21 30q6 3 12 3q19 0 30 -21l3 -16q0 -19 -20 -30q-6 -2 -12 -2z" />
    <glyph glyph-name="Ograve" unicode="&#xd2;" horiz-adv-x="617" 
d="M253 -174q-59 0 -113 32q-70 42 -115 145q-49 111 -51 286q0 56 11 126q37 225 155 363q8 8 19 8q8 0 16 -7t8 -17q0 -9 -6 -17q-73 -84 -111 -203q-43 -148 -43 -252q2 -162 44 -262q39 -92 99 -128q43 -26 90 -26q19 0 37 4q72 16 137 76q36 34 68 82q-90 5 -174 44
q-149 73 -209 247q-16 50 -16 106q0 94 37.5 190t97.5 167q54 66 117 95q34 15 69 15q162 0 217 -321q14 -86 14 -163q0 -183 -68 -327q38 5 71 17q111 38 157 125q9 13 23 13q6 0 11 -2q13 -9 13 -23q0 -5 -2 -10q-58 -106 -186 -150q-54 -18 -114 -22q-41 -71 -93 -119
q-101 -92 -210 -92zM395 976l-7 1q-33 7 -60.5 27.5t-44.5 59.5l-1 8q0 15 16 24l8 1q14 0 23 -15q19 -45 71 -58q8 -2 13.5 -9t5.5 -15l-1 -6q-6 -18 -23 -18zM527 84q75 143 75 332q0 74 -13 156q-21 120 -54 185q-48 94 -115 94q-24 0 -50 -12q-52 -23 -99 -80
q-55 -66 -89.5 -153t-34.5 -171q0 -49 14 -93q54 -154 184 -217q84 -41 182 -41z" />
    <glyph glyph-name="Oacute" unicode="&#xd3;" horiz-adv-x="617" 
d="M238 -174q-59 0 -113 32q-70 42 -115 145q-49 111 -51 286q0 56 11 126q37 225 155 363q8 8 19 8q8 0 16 -7t8 -17q0 -9 -7 -17q-72 -84 -110 -203q-43 -148 -43 -252q2 -162 44 -262q39 -92 99 -128q43 -26 90 -26q19 0 37 4q72 16 136 76q38 34 69 82q-90 5 -174 44
q-149 73 -209 247q-17 51 -17 107q0 94 38 189.5t98 166.5q54 66 117 95q34 15 69 15q162 0 217 -321q14 -86 14 -163q0 -183 -68 -327q38 5 71 17q111 38 157 125q9 13 23 13q5 0 10 -2q14 -8 14 -22q0 -6 -3 -11q-56 -106 -185 -150q-54 -18 -114 -22q-41 -71 -94 -119
q-99 -92 -209 -92zM320 976q-8 0 -15.5 6t-7.5 18q0 8 5 15t13 9q25 6 43 19t29 39q3 7 9.5 11t13.5 4l8 -1q16 -9 16 -23q0 -5 -2 -9q-30 -71 -105 -87q-3 -1 -7 -1zM512 84q75 143 75 332q0 74 -13 156q-21 120 -54 185q-48 94 -115 94q-24 0 -50 -12q-52 -23 -99 -80
q-55 -66 -89.5 -153t-34.5 -171q0 -49 14 -93q54 -154 184 -217q82 -41 182 -41z" />
    <glyph glyph-name="Ocircumflex" unicode="&#xd4;" horiz-adv-x="617" 
d="M223 -174q-59 0 -113 32q-70 42 -115 145q-49 111 -51 286q0 56 11 126q37 225 155 363q8 8 19 8q8 0 16 -7t8 -17q0 -9 -7 -17q-72 -84 -109 -203q-44 -134 -44 -252q2 -162 44 -262q39 -92 99 -128q43 -26 90 -26q19 0 37 4q71 16 136 76q38 34 69 82q-90 5 -174 44
q-149 73 -210 247q-16 50 -16 106q0 93 38 189.5t98 167.5q54 66 117 95q34 15 69 15q162 0 217 -321q14 -86 14 -164q0 -181 -68 -326q37 5 71 17q111 38 157 125q9 13 23 13q5 0 10 -2q14 -9 14 -22q0 -6 -3 -11q-56 -106 -185 -150q-54 -18 -114 -22q-41 -71 -94 -119
q-99 -92 -209 -92zM382 951q-14 0 -22 15q-15 34 -26 67q-12 -31 -18 -51l-4 -11q-7 -17 -21 -17q-5 0 -9 2q-17 7 -17 23q0 4 2 9q16 52 33 93l10 22q10 19 25 19q8 0 15 -5l3 -1.5t2 -2.5q5 -5 11 -22l6 -16q11 -38 33 -90q2 -4 2 -9q0 -14 -15 -23q-5 -2 -10 -2zM496 84
q76 143 76 332q0 74 -13 156q-21 120 -54 185q-48 94 -115 94q-24 0 -50 -12q-52 -23 -99 -80q-55 -66 -89.5 -153t-34.5 -171q0 -49 14 -93q54 -154 184 -217q83 -41 181 -41z" />
    <glyph glyph-name="Otilde" unicode="&#xd5;" horiz-adv-x="617" 
d="M257 -174q-59 0 -113 32q-70 42 -115 145q-49 111 -51 286q0 112 45 268q42 128 121 221q9 8 19 8q8 0 16 -7t8 -17q0 -9 -7 -17q-72 -84 -109 -203q-44 -134 -44 -252q2 -162 44 -262q39 -92 99 -128q43 -26 90 -26q19 0 37 4q70 16 136 76q38 34 69 82q-90 5 -174 44
q-149 73 -210 247q-16 50 -16 105q0 94 38 190.5t97 167.5q55 66 118 95q34 15 69 15q162 0 217 -321q14 -85 14 -162q0 -181 -68 -328q37 5 71 17q111 38 157 125q9 13 23 13q5 0 10 -2q14 -9 14 -22q0 -6 -3 -11q-56 -106 -185 -150q-54 -18 -114 -22q-42 -71 -94 -119
q-75 -70 -160 -87q-25 -5 -49 -5zM446 960q-19 0 -34 12t-28.5 27t-23.5 15q-12 0 -32 -22q-8 -8 -18 -8q-9 0 -17 7t-8 17q0 9 6 16q42 45 69 45q17 0 31 -11t28.5 -26.5t27.5 -15.5q15 0 41 26q8 8 18 8q9 0 17 -6q7 -8 7 -18q0 -9 -6 -17q-47 -49 -78 -49zM530 84
q76 143 76 332q0 74 -13 156q-21 120 -54 185q-48 94 -115 94q-24 0 -50 -12q-52 -23 -99 -80q-55 -66 -89.5 -153t-34.5 -171q0 -49 14 -93q60 -160 185 -217q82 -41 180 -41z" />
    <glyph glyph-name="Odieresis" unicode="&#xd6;" horiz-adv-x="617" 
d="M253 -174q-59 0 -113 32q-70 42 -116 145q-48 109 -50 286q0 56 11 126q37 226 155 363q8 8 18 8q9 0 17 -7t8 -17q0 -9 -7 -17q-72 -84 -110 -203q-43 -148 -43 -252q2 -164 43 -262q40 -92 100 -128q42 -26 90 -26q86 0 173 80q38 34 69 82q-90 5 -175 44
q-148 73 -209 247q-16 50 -16 105q0 94 38 190.5t97 167.5q55 66 118 95q34 15 69 15q32 0 63 -15q112 -52 154 -306q14 -85 14 -162q0 -181 -68 -328q38 5 71 17q111 38 157 125q9 13 23 13q5 0 10 -2q14 -9 14 -22q0 -6 -3 -11q-56 -106 -185 -150q-54 -18 -114 -22
q-42 -71 -94 -119q-75 -70 -160 -87q-25 -5 -49 -5zM460 983q-19 0 -30 21q-3 7 -3 15q0 20 20 31q6 2 12 2q20 0 31 -21q3 -8 3 -15q0 -20 -21 -30q-6 -3 -12 -3zM313 983q-19 0 -30 21q-3 7 -3 15q0 20 20 31q6 2 12 2q20 0 31 -21q3 -8 3 -15q0 -20 -21 -30q-6 -3 -12 -3
zM527 84q75 143 75 332q0 74 -13 156q-21 120 -54 185q-48 94 -115 94q-24 0 -50 -12q-52 -23 -99 -80q-55 -66 -89.5 -153t-34.5 -171q0 -49 14 -93q60 -160 185 -217q82 -41 181 -41z" />
    <glyph glyph-name="Oslash" unicode="&#xd8;" horiz-adv-x="617" 
d="M3 -271q-6 0 -12 3q-12 9 -12 21q0 6 3 12l87 156q-88 107 -98 354v14q0 56 11 126q37 225 155 363q8 8 18 8q9 0 17 -7t8 -17q0 -9 -7 -17q-72 -84 -110 -203q-43 -148 -43 -252v-14q8 -211 75 -309l111 198q-59 63 -95 162q-16 50 -16 106q0 93 38 189.5t98 167.5
q53 66 117 95q34 15 69 15q87 0 147 -100l103 184q9 12 21 12q6 0 12 -3q13 -9 13 -22q0 -5 -3 -11l-121 -213q29 -67 45 -168q14 -86 14 -163q0 -183 -68 -327q37 5 71 17q111 38 157 125q9 13 23 13q5 0 10 -2q14 -9 14 -22q0 -6 -3 -11q-56 -106 -185 -150
q-54 -18 -114 -22q-41 -71 -94 -119q-99 -92 -209 -92q-59 0 -113 32q-18 11 -33 25l-80 -141q-8 -13 -21 -13zM253 -126q19 0 37 4q70 16 136 76q38 34 69 82q-90 5 -174 44q-42 21 -78 51l-114 -204q16 -16 34 -27q43 -26 90 -26zM523 84q76 143 76 332q0 74 -13 156
q-12 68 -28 119l-290 -517q35 -30 74 -49q83 -41 181 -41zM232 210l303 540q-48 101 -118 101q-24 0 -50 -12q-52 -23 -99 -80q-55 -66 -90 -153.5t-35 -172.5q0 -48 14 -91q29 -79 75 -132z" />
    <glyph glyph-name="Ugrave" unicode="&#xd9;" horiz-adv-x="844" 
d="M730 -163q-15 0 -22 16q-43 122 -43 383q0 76 3 152q-27 -128 -70 -242q-65 -163 -161 -232q-57 -41 -114 -41q-58 0 -109 46q-66 59 -100 207q-27 128 -27 313q0 186 24 409q3 21 10 27t16 6q13 -1 19 -8t6 -17l-2 -13q-25 -221 -25 -405q0 -179 27 -302
q31 -132 85 -181q37 -33 76 -33q41 0 85 32q86 60 144 209q47 130 77 275.5t48 263.5q11 69 20 115q2 9 8.5 14.5t14.5 5.5q13 0 19 -8.5t6 -17.5q-2 -39 -9 -119q-22 -281 -22 -465q0 -244 39 -357q2 -4 2 -9q0 -15 -16 -22q-4 -2 -9 -2zM471 976q-4 0 -7 1
q-33 7 -60.5 27.5t-44.5 59.5l-1 8q0 15 15 24l8 1q16 0 24 -15q11 -26 29 -39t42 -19q8 -2 13.5 -9t5.5 -15q0 -12 -8 -18t-16 -6z" />
    <glyph glyph-name="Uacute" unicode="&#xda;" horiz-adv-x="844" 
d="M726 -163q-15 0 -23 16q-42 120 -42 374q0 80 3 161q-28 -128 -70 -242q-64 -163 -162 -232q-56 -41 -113 -41q-58 0 -109 46q-66 59 -100 207q-27 128 -27 313q0 126 9 236q11 140 17 182q2 24 23 24q13 -1 19 -7.5t6 -15.5q0 -8 -1 -15q-25 -224 -25 -409
q0 -176 26 -298q31 -132 86 -181q36 -33 76 -33q41 0 85 32q86 60 144 209q47 127 76 270.5t47 260.5q12 74 21 123q2 9 9 14.5t15 5.5q12 0 18 -8t6 -16v-3q0 -34 -7 -107q-24 -284 -24 -475q0 -245 40 -358q2 -4 2 -9q0 -15 -17 -22q-4 -2 -8 -2zM401 976q-16 0 -23 18v4
q0 9 5 16.5t14 9.5q23 6 41.5 19t28.5 39q8 15 24 15l8 -1q15 -9 15 -23q0 -5 -1 -9q-16 -39 -44 -59.5t-61 -27.5q-3 -1 -7 -1z" />
    <glyph glyph-name="Ucircumflex" unicode="&#xdb;" horiz-adv-x="844" 
d="M726 -163q-14 0 -22 16q-42 120 -42 374q0 80 3 161q-28 -128 -71 -242q-63 -163 -161 -232q-57 -41 -114 -41t-109 46q-65 59 -100 207q-27 126 -27 308q0 125 9 235q7 84 17 185q0 14 7.5 20.5t16.5 6.5q13 -1 19 -7.5t6 -15.5v-9q-26 -216 -26 -412q0 -178 26 -301
q31 -132 85 -181q37 -33 76 -33q42 0 85 32q87 60 145 209q47 127 76 270.5t47 260.5l21 123q2 9 8.5 14.5t14.5 5.5q13 0 19 -8.5t6 -17.5q0 -26 -5 -71l-4 -48q-22 -279 -22 -462q0 -246 40 -360l1 -8q0 -15 -16 -23q-4 -2 -9 -2zM507 951q-14 0 -22 15q-15 34 -27 67
q-15 -48 -20.5 -63.5t-22.5 -15.5q-4 0 -8 2q-18 8 -18 24q0 6 21 63q14 37 21 52q2 5 3 6.5t2 1.5q9 19 24 19q7 0 15 -5q3 -2 4 -3.5t3 -3.5q4 -6 10 -23q19 -59 38 -102q2 -5 2 -10q0 -14 -15 -22q-5 -2 -10 -2z" />
    <glyph glyph-name="Udieresis" unicode="&#xdc;" horiz-adv-x="844" 
d="M713 -163q-15 0 -23 16q-42 120 -42 374q0 80 3 161q-28 -128 -70 -242q-64 -163 -162 -232q-56 -41 -113 -41q-58 0 -109 46q-66 59 -100 207q-28 127 -28 311q0 194 27 417q0 14 7 20.5t16 6.5q13 -1 19.5 -8t6.5 -17l-2 -13q-25 -221 -25 -405q0 -179 27 -302
q48 -214 161 -214q41 0 85 32q86 60 144 209q48 130 77.5 275.5t46.5 263.5l20 115q6 20 24 20q12 0 18 -8t6 -16v-3q0 -21 -3 -56l-4 -51q-24 -284 -24 -475q0 -245 40 -358l1 -8q0 -15 -16 -23q-4 -2 -8 -2zM489 983q-19 0 -30 21q-3 7 -3 15q0 20 20 31q6 2 12 2
q20 0 31 -21q3 -8 3 -15q0 -20 -21 -30q-6 -3 -12 -3zM342 983q-19 0 -30 21q-3 7 -3 15q0 20 20 31q6 2 12 2q20 0 31 -21q3 -8 3 -15q0 -20 -21 -30q-6 -3 -12 -3z" />
    <glyph glyph-name="Ydieresis" unicode="&#x178;" horiz-adv-x="688" 
d="M335 -186q-49 0 -82 34q-27 29 -27 69q0 49 39 95q35 41 107 75q87 36 166 43l5 1q46 149 46 320q0 60 -6 115q-29 -126 -76 -204.5t-101.5 -113t-108.5 -34.5q-92 0 -162 90q-37 49 -59.5 123.5t-22.5 171.5q0 117 39 264q7 18 23 18q13 0 19 -8t6 -16q0 -4 -1 -7
q-38 -141 -38 -251q0 -88 20 -154.5t53 -110.5q55 -71 124 -71q39 0 80 25q64 40 113 147.5t66 289.5q1 8 7 15.5t18 7.5q16 0 24 -19q31 -123 31 -283q0 -164 -40 -308q45 7 79.5 26.5t55.5 65.5q9 15 24 15q5 0 9 -2q15 -9 15 -24q0 -4 -2 -9q-32 -68 -83 -92.5
t-115 -31.5q-28 -77 -71 -149q-41 -66 -87 -94.5t-87 -28.5zM432 983q-19 0 -29 21q-4 6 -4 15q0 20 21 31q6 2 11 2q20 0 31 -21q3 -8 4 -16q0 -19 -21 -29q-6 -3 -13 -3zM285 983q-18 0 -29 21q-3 8 -4 16q0 19 21 30q6 2 12 2q20 0 31 -21q3 -7 3 -15q0 -19 -21 -30
q-6 -3 -13 -3zM335 -137q29 0 64 22.5t68 75.5q34 57 58 118q-66 -7 -132 -36q-114 -59 -118 -116l-1 -9q0 -22 14 -36q19 -19 47 -19z" />
    <glyph glyph-name="Yacute" unicode="&#xdd;" horiz-adv-x="688" 
d="M279 -186q-51 0 -83 34q-27 29 -27 69q0 48 40 95q35 41 106 75q87 36 168 43l4 1q45 151 45 313q0 64 -6 122q-28 -126 -75 -204.5t-102 -113t-108 -34.5q-19 0 -37 4q-71 17 -125 86q-38 49 -60.5 123.5t-22.5 171.5q0 117 40 264q2 8 8.5 13t14.5 5q13 0 19 -8.5
t6 -16.5l-1 -6q-38 -141 -38 -252q0 -88 19.5 -154.5t52.5 -109.5q56 -71 125 -71q39 0 79 25q64 40 113 147.5t67 289.5q2 18 18 22l6 1q16 0 24 -19q32 -134 32 -283q0 -162 -41 -308q45 7 80 26.5t56 65.5q9 15 23 15q5 0 9 -2q15 -9 15 -23q0 -5 -2 -10
q-32 -68 -83 -92.5t-115 -31.5q-27 -77 -70 -149q-41 -66 -87.5 -94.5t-86.5 -28.5zM254 976q-8 0 -15.5 6t-7.5 18q0 8 5 15t13 9q25 6 43 19t29 39q3 7 9.5 11t13.5 4l8 -1q16 -8 16 -23q0 -4 -2 -9q-30 -71 -105 -87q-3 -1 -7 -1zM279 -137q29 0 64 22.5t68 75.5
q35 57 57 118q-65 -7 -132 -36q-115 -59 -117 -116l-1 -10q0 -21 14 -35q17 -19 47 -19z" />
    <glyph glyph-name="Zcaron" unicode="&#x17d;" horiz-adv-x="748" 
d="M348 -142q-31 0 -61 2q-88 7 -150 40q-68 39 -68 117q0 48 30 109q36 71 102.5 158t141.5 177l6 8q124 148 196 261q31 53 31 79q0 12 -8 17q-2 2 -5 2q-55 17 -161 17q-32 0 -65 -2q-167 -8 -199 -57l-2 -5q-7 -17 -22 -17q-5 0 -9 2q-17 7 -17 22q0 11 8 23
q25 39 91 59q84 24 208 24q119 0 183 -19q9 -3 15 -7v1q32 -20 32 -57q0 -44 -38 -107q-65 -105 -179 -241l-27 -34q-74 -88 -139 -173q-123 -161 -125 -239q0 -49 45 -76q64 -35 189 -35q81 0 159.5 11.5t128.5 23.5q3 1 7 1q16 0 23 -19l1 -5q0 -17 -20 -24
q-52 -13 -134.5 -25t-167.5 -12zM395 950q-15 0 -23 14l-1 2q-5 10 -10 29q-13 42 -35 92q-2 5 -2 10q0 14 15 23q5 2 10 2q14 0 22 -15q15 -36 26 -67q17 47 21 61q8 17 24 17l7 -1q17 -8 17 -24q0 -4 -8 -26q-24 -73 -37 -96l-1 -2q-10 -19 -25 -19z" />
    <glyph glyph-name="Scaron" unicode="&#x160;" horiz-adv-x="539" 
d="M288 -201q-93 0 -193 29.5t-186 92.5q-10 8 -10 19q0 8 4 15q9 10 20 10q8 0 15 -6q79 -58 171.5 -85t177.5 -27q68 0 125 16q69 20 103 57q23 25 23 60q0 66 -91 152q-76 72 -231 156q-124 70 -158 145q-19 39 -19 77q0 41 19 81q34 72 107 132q83 67 176.5 109
t155.5 47q20 2 37 2q121 0 125 -82v-9q0 -65 -76 -173q-18 -26 -72 -98q-11 -15 -19 -25.5t-20 -10.5q-7 0 -13 4q-11 9 -11 20q0 7 4 12.5t7 10.5l28 37h-1q27 35 57 78q67 97 67 145v5q-2 37 -74 37q-15 0 -35 -2q-56 -5 -141.5 -44t-162.5 -101q-65 -52 -94 -114
q-15 -30 -15 -61q0 -28 13 -55v-2q29 -61 139 -122q164 -90 246 -170q101 -98 101 -183q0 -51 -36 -90q-43 -49 -126 -72q-62 -17 -137 -17zM465 950q-11 0 -18 8q-1 0 -3 2t-2 6q-7 14 -18 46.5t-28 74.5q-2 5 -2 10q0 14 14 23q5 2 10 2q14 0 22 -15q11 -24 20 -47l7 -20
q17 47 21 61q8 17 24 17l7 -1q16 -8 16 -23q0 -9 -20 -64q-16 -43 -21 -53l-4 -8q-10 -19 -25 -19z" />
    <glyph glyph-name="agrave" unicode="&#xe0;" horiz-adv-x="350" 
d="M260 28q-27 1 -44 29q-12 18 -15 49q-58 -78 -110 -78q-10 0 -19 3q-56 17 -56 104q0 30 8 67q15 67 54 112q33 36 69 36q37 0 69 -34q6 16 24 16h4q20 -7 20 -24l-1 -6q-8 -35 -11 -88q-4 -48 -4 -78q0 -14 1 -21q3 -29 12 -38q3 0 8 3q34 17 79 85q27 41 38 66
q7 14 23 14q5 0 9 -2q15 -9 15 -23t-45 -82q-73 -110 -128 -110zM220 410l-6 1q-75 17 -105 87q-1 4 -1 9q0 15 15 23q5 2 9 2q15 0 23 -16q19 -46 70 -57q9 -3 14.5 -10t5.5 -15l-1 -5q-8 -19 -24 -19zM91 77q45 0 111 126l1 15q0 12 2 26h-1q-28 57 -58 57q-14 -1 -32 -19
q-29 -36 -42 -91q-7 -32 -7 -57q0 -29 9 -46q6 -11 17 -11z" />
    <glyph glyph-name="aacute" unicode="&#xe1;" horiz-adv-x="349" 
d="M260 28q-27 0 -45 29q-9 18 -15 49q-57 -78 -109 -78q-10 0 -19 3q-56 17 -56 104q0 30 8 67q16 67 54 112q32 36 69 36t69 -34q8 16 25 16h4q19 -7 19 -24l-1 -6q-15 -70 -15 -164q0 -16 1 -23q4 -31 12 -38q3 0 8 3q37 19 78 85q28 41 39 66q9 14 23 14q5 0 9 -2
q14 -8 14 -23q0 -5 -2 -10q-31 -68 -91 -136q-43 -46 -79 -46zM147 410q-8 0 -16.5 6.5t-8.5 18.5q0 8 5.5 14.5t13.5 9.5q24 5 41.5 18t28.5 39q8 16 23 16q4 0 9 -2q16 -8 16 -23q0 -4 -2 -9q-16 -39 -44 -59t-60 -28zM91 77q6 0 14 4q42 17 97 122q0 8 1 14.5t1 13
t1 13.5q-30 57 -59 57q-14 -1 -32 -19q-29 -36 -42 -91q-7 -32 -7 -57q0 -29 9 -46q7 -11 17 -11z" />
    <glyph glyph-name="acircumflex" unicode="&#xe2;" horiz-adv-x="349" 
d="M259 28l-9 1q-40 9 -50 77q-59 -78 -110 -78q-10 0 -19 3q-55 17 -55 106q0 29 7 65q16 67 54 112q32 36 69 36q22 0 44 -13q13 -7 25 -21q3 7 10 11.5t15 4.5q11 -1 17 -8t6 -15l-1 -7q-8 -35 -11 -88q-4 -48 -4 -78l1 -21q4 -30 11 -36l1 -2q3 0 9 3q33 18 78 85
q27 41 38 66q9 14 23 14q5 0 10 -2q14 -8 14 -23q0 -5 -2 -10q-34 -68 -91 -136q-45 -46 -80 -46zM213 385q-14 0 -23 15l-26 67q-19 -52 -21 -61q-8 -17 -24 -17q-12 0 -19 10q-5 7 -5 15q0 4 1 7q5 14 19.5 54t20.5 52l5 11q10 19 24 19q6 0 13 -4q3 0 5 -2t3 -4t4 -5
q4 -8 8 -20q20 -61 38 -103q2 -4 2 -9q0 -14 -15 -23q-5 -2 -10 -2zM90 77q6 0 14 4q43 17 97 122q3 20 3 41q-30 57 -59 57q-14 -1 -32 -19q-29 -36 -42 -91q-7 -32 -7 -57q0 -29 9 -46q8 -11 17 -11z" />
    <glyph glyph-name="atilde" unicode="&#xe3;" horiz-adv-x="349" 
d="M260 28l-10 1q-40 9 -50 77q-58 -78 -110 -78q-10 0 -19 3q-26 8 -40.5 34.5t-14.5 70.5q0 30 8 66q15 67 53 112q32 36 69 36q22 0 44 -13q13 -7 25 -21q3 7 10 11.5t15 4.5h4q19 -7 19 -24l-1 -6q-8 -35 -11 -89.5t-3 -83.5v-14q4 -30 11 -36l1 -2q3 0 9 3q33 17 78 85
q27 41 39 66q8 14 22 14q5 0 10 -2q14 -8 14 -23q0 -14 -44 -82q-24 -36 -49 -64q-44 -46 -79 -46zM207 395q-19 0 -34 11.5t-28 26.5t-24 15q-13 0 -32 -21q-8 -9 -18 -9q-8 0 -16.5 7t-8.5 18q0 8 6 16q41 45 69 45q17 0 31.5 -11.5t29 -27t26.5 -15.5q15 0 41 26
q8 9 18 9q9 0 17 -7.5t8 -17.5q0 -9 -6 -16q-47 -49 -79 -49zM90 77q6 0 14 4q43 17 97 122q0 8 1 14.5t1 13t1 13.5q-30 57 -58 57q-15 -1 -33 -19q-29 -36 -42 -91q-7 -31 -7 -55q0 -31 9 -48q8 -11 17 -11z" />
    <glyph glyph-name="adieresis" unicode="&#xe4;" horiz-adv-x="350" 
d="M260 28q-27 0 -44 29q-11 18 -15 49q-58 -78 -110 -78q-39 0 -59 37q-16 27 -16 71q0 30 8 66q16 67 54 112q33 36 69 36q22 0 44 -13q13 -7 25 -21q8 16 25 16h4q19 -7 19 -24l-1 -6q-8 -35 -11.5 -88t-3.5 -82q0 -34 10 -51l3 -4q3 0 8 3q33 16 79 85q27 41 38 66
q9 14 23 14q5 0 9 -2q15 -9 15 -23q0 -16 -45 -82q-71 -110 -128 -110zM246 418q-20 0 -30 20l-3 16q0 20 20 30q6 2 12 2q20 0 30 -20q4 -7 4 -15q0 -19 -21 -31q-6 -2 -12 -2zM99 418q-20 0 -30 20l-3 16q0 20 20 30q6 2 12 2q20 0 30 -20q4 -7 4 -15q0 -19 -21 -31
q-6 -2 -12 -2zM91 77q45 0 111 126l1 15q0 12 2 26q-30 57 -59 57q-14 -1 -32 -19q-29 -36 -42 -91q-7 -32 -7 -56q0 -30 9 -47q6 -11 17 -11z" />
    <glyph glyph-name="aring" unicode="&#xe5;" horiz-adv-x="350" 
d="M260 28q-27 0 -44 29q-11 18 -15 49q-58 -78 -110 -78q-10 0 -19 3q-26 8 -41 34.5t-15 70.5q0 30 8 66q16 67 54 112q33 36 69 36q22 0 44 -13q13 -7 25 -21q8 16 25 16h4q19 -7 19 -24l-1 -6q-8 -35 -11.5 -88t-3.5 -82q0 -34 10 -51l3 -4q3 0 8 3q33 16 79 85
q27 41 38 66q9 14 23 14q5 0 9 -2q15 -9 15 -23q0 -16 -45 -82q-71 -110 -128 -110zM154 438l13 1q20 4 20 34q0 25 -16 32q-4 2 -11 2l-6 -1q-20 -7 -22 -42q0 -15 10 -21zM162 390q-28 0 -45 12q-35 19 -35 62l1 13q12 61 56 75q12 4 25 4q22 0 41 -15q31 -20 31 -68
q0 -10 -2 -22q-12 -50 -56 -60zM91 77q45 0 111 126l1 15q0 12 2 26q-30 57 -59 57q-14 -1 -32 -19q-29 -36 -42 -91q-7 -32 -7 -56q0 -30 9 -47q6 -11 17 -11z" />
    <glyph glyph-name="ae" unicode="&#xe6;" horiz-adv-x="656" 
d="M437 238q80 28 80 64q0 5 -4 9.5t-11 4.5h-3q-29 -2 -62 -78zM475 26q-56 0 -87 47q-12 18 -16 41q-16 -21 -33 -40q-41 -46 -79 -46l-9 1q-40 9 -50 77q-58 -78 -110 -78q-10 0 -19 3q-56 17 -56 104q0 30 8 67q16 67 54 112q33 36 69 36q37 0 69 -34q3 7 10 11.5
t15 4.5h4q19 -7 19 -24l-1 -6q-8 -35 -11 -88q-4 -48 -4 -78l1 -21q4 -30 11 -36l1 -2q3 0 8 3q34 17 79 85q19 29 30 51q9 29 23 63q45 87 99 87q33 0 53 -26q12 -17 12 -38q0 -44 -50 -80q-33 -24 -94 -40q-3 -19 -3 -35q2 -71 56 -72q52 0 109 49t83 107q8 15 23 15
q4 0 9 -2q14 -9 14 -23q0 -5 -2 -10q-31 -67 -97 -125q-58 -50 -126 -59zM91 77q6 0 14 4q43 17 97 122q0 4 0.5 7.5t0.5 8.5t1 11.5t1 13.5q-29 57 -59 57q-14 -1 -32 -19q-29 -36 -42 -91q-7 -32 -7 -57q0 -29 10 -46q6 -11 16 -11z" />
    <glyph glyph-name="oe" unicode="&#x153;" horiz-adv-x="637" 
d="M205 188q0 44 -8.5 70.5t-23.5 41.5q-9 12 -25 12q-6 0 -14 -3h-1q-5 -3 -5 -11t4 -19q10 -30 39 -60q15 -17 34 -31zM422 238q79 28 79 63q0 15 -15 15h-4q-24 -1 -52 -57q-5 -10 -8 -21zM107 -3h-5q-30 0 -57 17q-64 37 -67 146q0 73 41 142q32 51 90 56l14 -1
q14 4 26 4q35 0 60 -27q22 -22 33 -60q11 -33 12 -73q0 -19 -2 -38q15 -5 31 -5q45 0 77 46q8 35 26 75q44 87 98 87q33 0 54 -26q12 -17 12 -38q0 -16 -7 -32q-25 -58 -138 -88q-3 -16 -3 -31q0 -34 12 -52q13 -24 44 -24l9 1q52 6 98 47q59 50 85 108q9 15 23 15q5 0 9 -2
q15 -9 15 -23q0 -5 -2 -10q-31 -67 -98 -125q-58 -50 -126 -59l-12 -1q-59 0 -86 47q-15 23 -19 54q-33 -19 -67 -19q-23 0 -46 7q-20 -69 -80 -105q-27 -13 -54 -13zM106 45q16 1 33 9q43 26 58 81q-36 21 -62 51q-53 58 -57 110q-10 -9 -18 -21q-34 -54 -34 -121
q2 -41 14.5 -65t29.5 -34t36 -10z" />
    <glyph glyph-name="ccedilla" unicode="&#xe7;" horiz-adv-x="359" 
d="M124 -121q-10 0 -22 2q-2 0 -2 1q-37 7 -37 30q0 5 2 9q9 15 23 15q5 0 10.5 -3t13 -4t12.5 -1q8 0 14 3q0 1 -5 3.5t-10 6.5q-39 19 -39 55l1 20h-3q-32 9 -53 32q-27 28 -28 78q0 27 9 61q18 64 56 119t78 84q32 22 55 22q30 0 48 -27q13 -18 13 -59q0 -31 -9 -75
q-2 -9 -8.5 -14.5t-15.5 -5.5q-11 0 -18 8.5t-7 16.5l1 5q9 43 9 67q0 35 -12 35q-12 -2 -28 -13q-34 -24 -66.5 -71.5t-48.5 -104.5q-7 -26 -7 -46q0 -31 14 -47q21 -21 62 -21l18 1q77 10 142.5 56t96.5 113q9 15 23 15q5 0 9 -2q15 -9 15 -24q0 -4 -2 -9
q-37 -80 -113 -133.5t-166 -63.5q-5 -1 -15 -1l-2 -19l16 -11q15 -8 27 -18.5t12 -28.5q0 -13 -3 -20l-1 -3q-9 -20 -33 -29q-11 -4 -26 -4z" />
    <glyph glyph-name="egrave" unicode="&#xe8;" horiz-adv-x="276" 
d="M80 238q80 28 80 64q0 5 -4 9.5t-11 4.5h-3q-29 -2 -62 -78zM181 428q-4 0 -7 1q-31 7 -60 26q-28 22 -44 61q-2 5 -2 9q0 15 16 22q5 2 10 2q14 0 22 -15q20 -48 70 -58q8 -2 13.5 -8.5t5.5 -15.5q0 -12 -8 -18t-16 -6zM118 26q-56 0 -87 47q-19 28 -20 74q0 54 33 132
q45 87 99 87q33 0 54 -26q12 -17 12 -38q0 -44 -51 -80q-33 -24 -94 -40q-3 -19 -3 -35q1 -29 11 -48q16 -24 45 -24l9 1q51 6 99 47q58 50 84 108q9 15 23 15q5 0 9 -2q14 -9 14 -23q0 -5 -2 -10q-30 -67 -97 -125q-59 -50 -125 -59z" />
    <glyph glyph-name="eacute" unicode="&#xe9;" horiz-adv-x="276" 
d="M80 238q79 28 79 63q0 15 -15 15h-4q-24 -1 -52 -57q-5 -10 -8 -21zM97 428q-8 0 -16 6t-8 18q0 9 5.5 15.5t13.5 8.5q50 10 71 58q8 15 22 15q5 0 10 -2q15 -7 15 -22q0 -4 -2 -9q-16 -39 -44 -59.5t-60 -27.5q-3 -1 -7 -1zM117 26q-58 0 -87 47q-19 29 -19 76
q0 54 33 130q44 87 98 87q33 0 54 -26q12 -17 12 -37q0 -16 -8 -33q-25 -58 -137 -88q-3 -16 -3 -31q0 -34 12 -52q13 -24 44 -24l9 1q51 6 98 47q59 50 85 108q9 15 23 15q5 0 9 -2q15 -9 15 -23q0 -5 -2 -10q-31 -67 -98 -125q-58 -50 -126 -59z" />
    <glyph glyph-name="ecircumflex" unicode="&#xea;" horiz-adv-x="275" 
d="M79 238q80 28 80 64q0 5 -3.5 9.5t-11.5 4.5h-3q-26 -1 -53 -57q-1 -3 -3 -8.5t-6 -12.5zM191 403q-13 0 -22 14q-9 21 -16 42l-10 26q-19 -53 -21 -62q-8 -16 -23 -16q-4 0 -10 2t-10.5 8t-4.5 14q0 6 21 63q12 35 19 49q3 7 4 9.5t2 2.5q10 19 24 19q9 0 16 -5
q2 -1 3 -2t1.5 -2t2 -2.5t2.5 -3.5q4 -7 8 -20q20 -62 38 -102q2 -4 2 -9q0 -14 -16 -23q-5 -2 -10 -2zM117 26q-56 0 -87 47q-18 28 -19 74q0 54 33 132q44 87 98 87q34 0 54 -26q12 -17 12 -39q0 -15 -7 -31q-26 -58 -137 -88q-4 -25 -4 -46q9 -61 56 -61q52 0 109 49
t83 107q9 15 23 15q5 0 9 -2q14 -9 14 -23q0 -5 -2 -10q-30 -67 -97 -125q-59 -50 -125 -59z" />
    <glyph glyph-name="edieresis" unicode="&#xeb;" horiz-adv-x="275" 
d="M80 238q79 29 79 64q0 5 -3.5 9.5t-11.5 4.5h-3q-26 -1 -53 -57zM208 435q-19 0 -29 21q-4 7 -4 15q0 19 21 31q6 2 11 2q20 0 31 -21q3 -8 3 -15q0 -20 -21 -30q-6 -3 -12 -3zM61 435q-19 0 -29 21q-4 7 -4 15q0 19 21 31q6 2 11 2q20 0 31 -21q3 -8 3 -15
q0 -20 -21 -30q-6 -3 -12 -3zM117 26q-56 0 -87 47q-18 28 -19 74q0 54 33 132q44 87 98 87q34 0 54 -26q12 -17 12 -39q0 -15 -7 -31q-26 -58 -137 -88q-4 -25 -4 -46q3 -23 11.5 -36.5t20 -19t24.5 -5.5q52 0 109 49t83 107q9 15 24 15q4 0 9 -2q13 -9 13 -23q0 -5 -2 -10
q-30 -67 -97 -125q-59 -50 -125 -59z" />
    <glyph glyph-name="igrave" unicode="&#xec;" horiz-adv-x="263" 
d="M135 -9q-43 0 -69 46q-23 38 -23 125q0 45 7 104q1 10 8 15.5t15 5.5q13 -1 19 -7.5t6 -15.5v-3q-6 -57 -6 -98q0 -75 17 -104q10 -18 26 -19q13 0 34 12q72 48 134 179q8 14 22 14q5 0 10 -2q14 -8 14 -22q0 -5 -2 -10q-68 -144 -152 -200q-31 -20 -60 -20zM138 369
l-6 1q-75 15 -105 87q-2 5 -2 9q0 15 16 23q4 2 8 2q8 0 14 -4.5t9 -11.5q18 -45 71 -58q8 -2 13.5 -9t5.5 -15l-1 -6q-7 -18 -23 -18z" />
    <glyph glyph-name="iacute" unicode="&#xed;" horiz-adv-x="276" 
d="M148 -9q-43 0 -69 46q-23 38 -23 125q0 45 7 104q1 10 8 15.5t15 5.5q13 -1 19 -7.5t6 -15.5v-3q-6 -57 -6 -98q0 -75 17 -104q10 -18 26 -19q13 0 34 12q72 48 134 179q7 14 22 14q5 0 10 -2q14 -8 14 -22q0 -5 -2 -10q-68 -144 -152 -200q-31 -20 -60 -20zM49 369
q-16 0 -23 18q-1 3 -1 7q0 8 5 14.5t14 8.5q23 6 41.5 19t29.5 39q7 16 22 16q5 0 9 -2q16 -8 16 -23q0 -4 -2 -9q-30 -72 -105 -87z" />
    <glyph glyph-name="icircumflex" unicode="&#xee;" horiz-adv-x="267" 
d="M139 -9q-43 0 -69 46q-23 38 -23 125q0 45 7 104q1 10 8 15.5t15 5.5q13 -1 19 -7.5t6 -15.5v-3q-6 -57 -6 -98q0 -75 17 -104q11 -18 25 -19q14 0 35 12q72 48 134 179q7 14 22 14q5 0 10 -2q14 -8 14 -22q0 -5 -2 -10q-68 -144 -152 -200q-31 -20 -60 -20zM143 344
q-14 0 -22 15q-11 24 -20 47l-7 20q-19 -52 -21 -61q-8 -17 -23 -17l-8 1q-17 7 -17 22q0 5 8 28q26 76 37 96l1 2q10 19 24 19q6 0 13 -4q3 0 5 -4h2v-2q6 -5 22 -52q11 -34 28 -76q2 -5 2 -10q0 -14 -14 -22q-5 -2 -10 -2z" />
    <glyph glyph-name="idieresis" unicode="&#xef;" horiz-adv-x="308" 
d="M179 -9q-92 0 -92 174q0 44 7 101q2 10 8.5 15.5t14.5 5.5q14 -1 20 -8t6 -17q-7 -60 -7 -102q0 -72 17 -101q11 -18 26 -19q14 0 35 12q72 48 133 179q8 14 23 14q5 0 10 -2q14 -8 14 -22q0 -5 -2 -10q-68 -144 -153 -200q-31 -20 -60 -20zM205 377q-19 0 -30 20l-3 16
q0 19 20 30q6 2 12 2q20 0 30 -20q4 -8 4 -16q0 -19 -21 -30q-6 -2 -12 -2zM58 377q-19 0 -30 20l-3 16q0 19 20 30q6 2 12 2q20 0 30 -20q4 -8 4 -16q0 -19 -21 -30q-6 -2 -12 -2z" />
    <glyph glyph-name="ograve" unicode="&#xf2;" horiz-adv-x="379" 
d="M242 188q0 44 -9 71q-17 52 -47 52q-7 0 -15 -3h-1q-5 -3 -5 -11t4 -19q11 -29 39 -60q15 -16 34 -30zM194 415q-4 0 -7 1q-33 7 -60.5 27.5t-44.5 59.5l-1 8q0 16 15 24q4 2 9 2q15 0 23 -16q19 -47 71 -58q8 -2 13.5 -9t5.5 -15q0 -12 -8 -18t-16 -6zM144 -4
q-33 0 -62 17q-64 37 -67 147q0 73 41 141q32 51 90 56q10 0 14 -1q14 4 27 4q35 0 59 -27q42 -44 45 -133q0 -18 -2 -38q15 -5 31 -5q57 0 92 74q9 14 23 14q5 0 10 -2q14 -9 14 -23q0 -5 -2 -10q-50 -103 -133 -103q-23 0 -46 7q-19 -69 -80 -104q-27 -14 -54 -14zM143 45
q16 0 33 8q44 26 58 81q-35 21 -62 51q-53 57 -57 110q-10 -8 -18 -21q-34 -55 -34 -121q2 -41 16 -67q22 -41 64 -41z" />
    <glyph glyph-name="oacute" unicode="&#xf3;" horiz-adv-x="380" 
d="M242 188q0 80 -31 111q-11 12 -25 12q-7 0 -14 -3h-2q-5 -3 -5 -10q0 -8 4 -20q11 -29 39 -60q16 -16 34 -30zM97 415q-16 0 -23 18l-1 5q0 9 5.5 16t14.5 9q50 11 70 58q9 16 23 16q5 0 9 -2q16 -8 16 -23q0 -4 -2 -9q-16 -39 -44 -61q-28 -19 -61 -26q-3 -1 -7 -1z
M144 -4q-31 0 -60 17t-48 52t-21 87q0 82 41 149q31 51 90 56l15 -1q14 4 26 4q34 0 59 -27q22 -23 33.5 -58.5t11.5 -74.5q0 -18 -2 -38q15 -5 31 -5q57 0 93 74q8 14 23 14q5 0 10 -2q14 -9 14 -22q0 -6 -3 -11q-49 -103 -133 -103q-22 0 -45 7q-21 -69 -80 -104
q-26 -14 -55 -14zM144 45q15 0 32 8q43 26 58 81q-35 21 -62 51q-53 57 -56 110q-11 -8 -19 -21q-33 -54 -33 -121q2 -41 15 -67q23 -41 65 -41z" />
    <glyph glyph-name="ocircumflex" unicode="&#xf4;" horiz-adv-x="379" 
d="M197 411q-15 0 -23 14q-15 36 -26 68q-19 -49 -22 -62q-7 -16 -23 -16l-8 1q-16 7 -16 23q0 5 15 47q20 59 30 76v1q11 19 25 19q8 0 15 -5q2 -1 4.5 -3t3.5 -4t1 -3l7 -16q29 -82 39 -106q2 -4 2 -9q0 -7 -4 -13.5t-9.5 -9t-10.5 -2.5zM242 188q0 44 -9 71
q-17 52 -47 52q-6 0 -14 -3h-2q-5 -3 -5 -11t4 -19q11 -29 39 -60q16 -16 34 -30zM144 -4q-31 0 -60 17t-48 52t-21 87q0 80 41 149q32 51 90 56l15 -1q14 4 26 4q34 0 59 -27q22 -23 33.5 -58.5t11.5 -74.5q0 -18 -2 -38q15 -5 31 -5q57 0 93 74q8 14 23 14q5 0 10 -2
q13 -9 13 -23q0 -5 -2 -10q-49 -103 -133 -103q-22 0 -45 7q-20 -69 -80 -104q-26 -14 -55 -14zM143 45q17 0 33 8q43 26 58 81q-35 21 -62 51q-36 38 -49 77q-7 18 -7 33q-10 -8 -19 -21q-32 -54 -33 -118q2 -43 15 -70q12 -20 29 -32q17 -9 35 -9z" />
    <glyph glyph-name="otilde" unicode="&#xf5;" horiz-adv-x="379" 
d="M242 188q0 44 -9 71q-17 52 -47 52q-7 0 -15 -3h-1q-5 -3 -5 -11t4 -19q10 -29 39 -60q15 -16 34 -30zM223 416q-19 0 -34 12t-28.5 27t-23.5 15q-12 0 -32 -22q-8 -8 -18 -8q-9 0 -17 7t-8 17q0 9 6 16q41 45 69 45q17 0 31 -11t28.5 -26.5t27.5 -15.5q16 0 41 26
q8 8 18 8q8 0 16.5 -7t8.5 -17q0 -9 -7 -17q-47 -49 -78 -49zM144 -4q-33 0 -62 17q-64 37 -67 147q0 73 41 141q32 51 90 56q8 0 14 -1q14 4 26 4q35 0 60 -27q42 -42 45 -133q0 -18 -2 -38q15 -5 31 -5q57 0 92 74q9 14 23 14q5 0 10 -2q14 -9 14 -23q0 -5 -2 -10
q-49 -103 -133 -103q-23 0 -46 7q-20 -69 -80 -104q-25 -14 -54 -14zM143 45q16 0 33 8q44 26 58 81q-35 21 -62 51q-35 38 -50 77q-6 18 -6 33q-11 -8 -19 -21q-34 -55 -34 -121q2 -41 16 -67q22 -41 64 -41z" />
    <glyph glyph-name="odieresis" unicode="&#xf6;" horiz-adv-x="380" 
d="M241 188q1 4 1 11q-1 33 -9 59.5t-20.5 39.5t-26.5 13q-7 0 -14 -3h-2q-5 -3 -5 -11t4 -19q15 -45 72 -90zM242 435q-19 0 -31 21q-3 7 -3 15q0 20 20 30q6 2 12 2q20 0 31 -21q3 -8 3 -15q0 -20 -21 -30q-5 -2 -11 -2zM95 435q-19 0 -31 21q-3 7 -3 15q0 20 20 30
q6 2 12 2q20 0 31 -21q3 -8 3 -15q0 -20 -21 -30q-5 -2 -11 -2zM144 -4q-31 0 -60.5 17t-47.5 51q-21 36 -21 88q0 81 41 149q31 51 90 56q8 0 14 -1q14 4 26 4q34 0 60 -27q21 -23 32.5 -58.5t11.5 -74.5v-10q0 -14 -2 -28q16 -5 31 -5q58 0 94 74q8 14 22 14q5 0 10 -2
q15 -9 15 -22q0 -6 -3 -11q-50 -103 -133 -103q-22 0 -45 7q-22 -69 -81 -104q-27 -14 -54 -14zM143 45q16 0 32 8q44 26 59 81q-35 21 -62 51q-53 57 -57 110q-10 -8 -18 -21q-33 -54 -33 -121q1 -41 15 -67q23 -41 64 -41z" />
    <glyph glyph-name="oslash" unicode="&#xf8;" horiz-adv-x="427" 
d="M229 253l27 48q-10 10 -23 10q-6 0 -13 -3h-2q-6 -3 -6 -11t4 -19zM290 188q0 38 -6 62l-22 -38q13 -14 28 -24zM39 -158q-6 0 -11 3q-13 9 -13 22q0 6 3 12l87 154q-42 46 -42 119v8q0 73 41 141q31 51 89 56q10 0 15 -1q14 4 26 4q26 0 46 -15l93 164q9 13 22 13
q6 0 11 -3q13 -9 13 -22q0 -6 -3 -11l-102 -181q7 -12 11 -25l2 -6q12 -35 12 -74q0 -18 -2 -38q15 -5 30 -5q58 0 94 74q8 14 22 14q5 0 10 -2q14 -9 14 -23q0 -5 -2 -10q-50 -103 -133 -103q-23 0 -46 7q-20 -69 -80 -104q-27 -14 -54 -14q-24 0 -46 9l-85 -151
q-9 -12 -22 -12zM191 45q17 0 33 8q43 26 58 81q-24 15 -45 33l-67 -119q10 -3 21 -3zM131 79l71 126q-21 29 -31 57q-7 18 -8 33q-10 -8 -19 -21q-21 -36 -29 -80q-3 -18 -3 -32v-9q0 -45 19 -74z" />
    <glyph glyph-name="ugrave" unicode="&#xf9;" horiz-adv-x="476" 
d="M113 -8q-40 0 -64 41q-25 38 -25 126q0 68 19 169q2 10 8.5 15t15.5 5q11 0 18 -7.5t7 -15.5l-1 -5q-19 -102 -19 -166q0 -69 18 -97q11 -16 23 -16q17 0 41 19q41 33 78 105t55 172q7 21 23 21q13 0 19.5 -8t6.5 -17l-1 -16q-9 -78 -9 -144q0 -31 3 -60q8 -69 27 -69
q16 1 41 24q35 34 66 81t46 81q8 15 22 15q5 0 10 -2q15 -9 15 -23q0 -5 -2 -10q-17 -37 -51.5 -88.5t-73 -89.5t-75.5 -38q-60 0 -74 114l-2 40q-44 -87 -94 -127q-38 -29 -71 -29zM238 415q-4 0 -7 1q-33 7 -60.5 27.5t-44.5 59.5q-2 4 -2 9q0 15 16 23q4 2 8 2
q17 0 24 -16q18 -47 71 -58q8 -2 13 -9t5 -15q0 -12 -7.5 -18t-15.5 -6z" />
    <glyph glyph-name="uacute" unicode="&#xfa;" horiz-adv-x="475" 
d="M112 -8q-39 0 -63.5 39t-24.5 125q0 69 19 172q2 10 8.5 15t15.5 5q11 0 17.5 -7.5t6.5 -15.5l-1 -5q-18 -100 -18 -163q0 -72 18 -100q12 -16 22 -16q18 0 41 19q42 33 79 105t55 172q2 9 8.5 15t14.5 6q12 0 18.5 -8t6.5 -17l-1 -16q-8 -72 -8 -140q0 -33 3 -64
q8 -69 27 -69q15 1 40 24q35 34 66 81t46 81q9 15 23 15q5 0 10 -2q14 -9 14 -23q0 -5 -2 -10q-16 -37 -50.5 -88.5t-73 -89.5t-75.5 -38q-61 0 -74 114q-2 19 -2 40q-44 -87 -94 -127q-37 -29 -72 -29zM151 415q-17 0 -23 18l-1 6q0 9 5.5 15.5t13.5 8.5q50 11 70 58
q9 16 23 16q5 0 9 -2q16 -8 16 -23q0 -4 -2 -9q-16 -39 -44 -61q-28 -19 -60 -26z" />
    <glyph glyph-name="ucircumflex" unicode="&#xfb;" horiz-adv-x="476" 
d="M113 -8q-39 0 -64 39t-25 126q0 69 19 171q2 10 9 15t16 5q11 0 17.5 -7.5t6.5 -15.5l-1 -5q-18 -101 -18 -165q0 -70 18 -98q10 -16 22 -16q17 0 41 19q41 33 78 105t55 172q7 21 23 21q13 0 19.5 -8t6.5 -17v-2q-10 -67 -10 -157q0 -32 3 -61q7 -69 28 -69q15 1 39 24
q36 34 67 81t46 81q9 15 23 15q4 0 9 -2q15 -9 15 -23q0 -5 -2 -10q-17 -37 -51 -88.5t-73 -89.5t-76 -38q-62 0 -73 114q-2 13 -2 27l-1 13q-43 -87 -94 -127q-36 -29 -71 -29zM237 411q-14 0 -22 14q-16 36 -26 68q-19 -49 -22 -62q-8 -16 -23 -16l-8 1q-17 7 -17 23
q0 3 1.5 7t8.5 24q28 81 35 92q0 1 1 1q10 19 24 19q6 0 11 -2.5t7 -4l4 -3t2 -5.5q7 -14 18 -47t28 -75q2 -5 2 -10q0 -14 -14 -22q-5 -2 -10 -2z" />
    <glyph glyph-name="udieresis" unicode="&#xfc;" horiz-adv-x="475" 
d="M112 -8q-39 0 -63.5 39t-24.5 125q0 69 19 172q2 10 8.5 15t15.5 5q11 0 17.5 -8t6.5 -16v-4q-19 -101 -19 -165q0 -70 18 -98q11 -16 23 -16q17 0 41 19q41 33 78 105t55 172q2 9 8.5 15t14.5 6q12 0 18.5 -7.5t6.5 -16.5l-2 -30q-7 -57 -7 -130q0 -32 3 -61
q8 -69 27 -69q16 1 40 24q36 34 67 81t45 81q9 15 23 15q5 0 10 -2q14 -9 14 -23q0 -5 -2 -10q-16 -37 -50.5 -88.5t-73 -89.5t-75.5 -38q-61 0 -74 114q-2 19 -2 40q-44 -87 -94 -127q-37 -29 -72 -29zM264 435q-19 0 -31 21q-3 8 -3 15q0 20 20 30q6 2 12 2q20 0 31 -21
q3 -8 3 -15q0 -20 -21 -30q-5 -2 -11 -2zM117 435q-19 0 -31 21q-3 8 -3 15q0 20 20 30q6 2 12 2q20 0 31 -21q3 -8 3 -15q0 -20 -21 -30q-5 -2 -11 -2z" />
    <glyph glyph-name="ydieresis" unicode="&#xff;" horiz-adv-x="393" 
d="M87 -443q-12 0 -22 2q-46 13 -60 65q-4 17 -4 38q0 63 38 147q48 104 108 162t120 96v21q0 54 -7 100q-33 -65 -78 -103q-35 -31 -73 -31q-62 0 -80 100q-5 29 -5 62q0 66 17 128q2 8 8 13t14 5q13 0 19.5 -8t6.5 -16l-1 -6q-15 -58 -15 -118q0 -28 4 -52q11 -59 35 -59
q16 1 39 19q60 55 89 147q5 18 24 18q14 0 22 -14q29 -68 30 -173q74 46 117 130q8 15 22 15q5 0 10 -2q14 -9 14 -23q0 -5 -2 -10q-28 -62 -70.5 -100t-91.5 -70q-2 -16 -2 -31q-18 -195 -70 -313q-70 -139 -156 -139zM254 435q-20 0 -31 21q-3 8 -3 15q0 20 21 30
q6 2 11 2q20 0 31 -21q3 -8 3 -15q0 -20 -20 -30q-6 -2 -12 -2zM107 435q-20 0 -31 21q-3 8 -3 15q0 20 21 30q6 2 11 2q20 0 31 -21q3 -8 3 -15q0 -20 -20 -30q-6 -2 -12 -2zM87 -394q58 0 111 111q48 107 65 288q-48 -33 -94.5 -83t-85.5 -132q-34 -78 -34 -127
q0 -44 23 -54q1 0 3 -1.5t12 -1.5z" />
    <glyph glyph-name="yacute" unicode="&#xfd;" horiz-adv-x="394" 
d="M88 -443q-23 0 -35 7q-35 15 -47 60q-5 17 -5 37q0 66 39 148q49 104 108.5 162t119.5 96v21q0 54 -7 100q-33 -65 -78 -103q-35 -31 -73 -31q-62 0 -80 100q-5 29 -5 62q0 66 17 128q2 8 8 13t14 5q13 0 19.5 -8t6.5 -16l-1 -6q-15 -58 -15 -118q0 -28 4 -52
q11 -59 35 -59q16 1 39 19q60 55 89 147q5 18 24 18q14 0 22 -14q29 -68 30 -173q74 46 117 130q9 15 23 15q4 0 9 -2q14 -9 14 -23q0 -5 -2 -10q-28 -62 -70.5 -100t-91.5 -70q0 -15 -2 -31q-18 -195 -70 -313q-68 -139 -156 -139zM156 415q-8 0 -15.5 6t-7.5 18q0 8 5 15
t14 9q52 11 71 58q3 7 9 11.5t14 4.5q4 0 8 -2q16 -8 16 -23q0 -4 -2 -9q-30 -71 -105 -87q-3 -1 -7 -1zM88 -394q56 0 112 111q47 107 65 288q-49 -33 -95.5 -83t-85.5 -132q-34 -79 -34 -128q0 -14 3 -26q7 -21 19 -27q5 -3 16 -3z" />
    <glyph glyph-name="zcaron" unicode="&#x17e;" horiz-adv-x="370" 
d="M58 -337q-23 0 -42 12q-27 18 -41 54q-11 29 -11 65q0 73 45 144q43 64 96.5 98t109.5 57l6 3q12 4 23 10q-8 48 -52 48q-24 -1 -42.5 -7.5t-25.5 -10.5h-1q-4 -3 -12 -3q-13 0 -21 12q-4 6 -4 13q0 19 29 28l3 1q50 21 75 68q12 26 12 41q0 9 -4 15.5t-14.5 11
t-29.5 4.5q-25 0 -44.5 -6.5t-28 -17.5t-20.5 -11q-6 0 -12 3q-11 10 -11 22q0 6 3 12q14 21 46.5 34t68.5 13q27 -1 47 -9q48 -20 48 -70q0 -46 -38 -96q54 -5 74 -73q66 31 105 103q9 14 22 14q5 0 10 -3q14 -8 14 -21q0 -6 -3 -12q-26 -52 -63 -83t-80 -51
q-2 -43 -19.5 -109t-48.5 -136q-75 -152 -145 -164q-12 -3 -24 -3zM157 414q-15 0 -24 19l-1 2q-17 30 -43 113q-2 5 -2 9q0 8 5 15q7 10 19 10q16 0 24 -17q2 -9 21 -61q11 31 26 67q9 15 23 15q4 0 9 -2q15 -9 15 -22q0 -5 -2 -10q-19 -44 -30 -79l-4 -11q-6 -21 -11 -33
l-2 -3q-6 -8 -10 -8q-7 -4 -13 -4zM60 -288q54 0 122 139q49 108 62 201l-4 -2q-64 -28 -103 -52q-49 -30 -87 -87t-38 -117q0 -26 8 -47q14 -35 40 -35z" />
    <glyph glyph-name="scaron" unicode="&#x161;" horiz-adv-x="276" 
d="M41 -165q-33 0 -56 25q-23 22 -23 62q0 38 30 84q48 59 116 80q-21 50 -47.5 95.5t-44.5 83.5q-13 31 -13 55q0 37 22 59q29 31 75 31q52 -1 73 -45q4 -10 4 -23q0 -31 -31 -73q-9 -10 -20 -10q-8 0 -16 7t-8 18q0 8 5 15q21 27 21 42q0 19 -31 20q-20 0 -35 -15
q-10 -9 -10 -26q0 -29 46 -106q37 -66 56 -110q45 16 86.5 43t70.5 83q8 15 21 15q6 0 11 -3q14 -9 14 -22q0 -6 -3 -11q-35 -69 -84 -101.5t-102 -50.5q7 -27 7 -51q0 -39 -15 -76q-19 -46 -54 -70.5t-65 -24.5zM87 452q-14 0 -24 19q-1 0 -1 1q-4 8 -9 21q-14 33 -28 75
q-8 23 -8 28q0 15 17 22l8 1q15 0 23 -16q2 -9 21 -62l8 20q8 24 19 47q8 15 22 15q5 0 10 -2q14 -8 14 -22q0 -5 -2 -10q-17 -42 -28 -76q-16 -47 -22 -52v-2h-2l-2 -2q-8 -5 -16 -5zM41 -117q16 0 36 14q24 19 36.5 50t12.5 61q0 15 -4 31q-55 -20 -90 -62
q-21 -31 -21 -54q0 -20 9.5 -30t20.5 -10z" />
    <glyph glyph-name="a.1" unicode="&#xe03a;" horiz-adv-x="1556" 
d="M1295 26q-40 0 -59 38q-15 27 -15 71q0 30 8 66q1 9 3 14.5t3 9.5q-137 -62 -309 -62q-85 0 -169.5 11.5t-165.5 25.5q-70 12 -136 21t-125 9q-66 0 -122.5 -16.5t-99.5 -59.5q-8 -7 -17 -7q-10 0 -17.5 8t-7.5 17t7 17q52 51 116.5 71t139.5 20q62 0 130 -9.5t140 -22.5
q78 -14 160 -25t165 -11q198 0 347 88q2 2 5 5.5t6 8.5q33 36 72 36q38 0 67 -35q3 8 10 12.5t15 4.5h4q19 -8 19 -24l-1 -6q-8 -35 -11 -89.5t-3 -83.5q0 -34 9 -49l3 -4q3 0 9 3q16 8 34 28q23 24 44 57q28 42 39 66q8 14 22 14q5 0 10 -2q15 -8 15 -22q0 -15 -45 -83
q-73 -110 -127 -110q-29 0 -46 29q-10 16 -15 49q-59 -79 -111 -79zM1294 76q47 0 113 126l3 41q-29 58 -57 58q-16 0 -34 -20q-30 -35 -42 -90q-7 -33 -7 -58q0 -29 9 -46q6 -11 15 -11z" />
    <glyph glyph-name="b.1" unicode="&#xe03b;" horiz-adv-x="1661" 
d="M1312 -32q-61 0 -86 28q-20 20 -20 45q0 44 47 71q-6 62 -8 124q-143 -70 -325 -70q-86 0 -170 11.5t-165 25.5q-70 12 -136 21.5t-126 9.5q-66 0 -122 -17t-99 -59q-8 -7 -18 -7q-9 0 -16.5 7.5t-7.5 16.5t7 17q52 51 116.5 71t139.5 20q62 0 130 -9.5t140 -21.5
q79 -14 161 -25.5t165 -11.5q185 0 326 77q1 41 4 81q10 164 58 309q25 75 62 117q52 57 109 57q25 0 46 -11q36 -18 53 -61q11 -27 11 -63q0 -141 -180 -349q-72 -80 -114 -113q0 -45 3 -89q9 20 18 35q32 56 69 91q44 42 86 42q45 0 75 -37.5t30 -93.5q0 -41 -22 -87
q88 22 130 110q9 15 22 15q6 0 11 -3q14 -9 14 -23q0 -5 -2 -10q-28 -57 -74 -93.5t-109 -47.5q-15 -3 -29 -3q-13 -15 -29 -28q-80 -69 -175 -69zM1295 325q94 86 184 224q60 97 60 170q0 27 -8 47q-10 26 -29 35q-11 6 -23 6q-74 0 -126 -140q-45 -140 -55 -298zM1312 18
q73 0 138 52l-45 9q-31 8 -63 8q-11 0 -22 -2q-6 -20 -10 -44q-5 -19 -24 -20q-18 0 -24 21l-2 12l-2 -3q-2 -5 -2 -8q1 -10 5 -13q12 -12 51 -12zM1492 114q33 50 33 93q0 38 -18 62q-15 20 -38 20q-22 0 -49 -26q-54 -53 -84 -127h7q39 0 76 -10l5 -1q33 -8 68 -11z" />
    <glyph glyph-name="c.1" unicode="&#xe03c;" horiz-adv-x="1598" 
d="M1366 10q-66 0 -100 37q-27 30 -27 78q0 27 9 61q5 20 13 38q-136 -61 -306 -61q-86 0 -170 11.5t-165 25.5q-72 12 -138 21.5t-124 9.5q-67 0 -123 -17t-99 -59q-8 -7 -17 -7q-10 0 -17.5 7.5t-7.5 16.5t7 17q52 51 116.5 71t139.5 20q62 0 130.5 -9.5t140.5 -22.5
q78 -14 160 -25t164 -11q198 0 346 87l3 2q39 59 82 89q29 21 55 22q30 0 48 -26q13 -20 13 -59q0 -32 -9 -77q-2 -9 -9 -14t-16 -5q-11 1 -17.5 8.5t-6.5 15.5l1 5q9 43 9 68q0 22 -7 32q-2 3 -5 3q-12 -2 -28 -13q-34 -24 -67 -72t-49 -105q-7 -26 -7 -46q0 -68 77 -68
l18 1q77 10 142.5 56t96.5 114q8 14 23 14q5 0 10 -2q14 -8 14 -22q0 -5 -2 -10q-36 -81 -112.5 -134.5t-166.5 -64.5z" />
    <glyph glyph-name="d.1" unicode="&#xe03d;" horiz-adv-x="1798" 
d="M1621 -36q-35 0 -66 20q-48 30 -78 99q-4 9 -7 20l-4 10q-86 -130 -162 -130q-45 0 -70 41q-17 29 -17 78q0 32 9 72q5 24 15 48q-132 -56 -297 -56q-85 0 -169 11t-164 25q-72 12 -138 21.5t-124 9.5q-66 0 -122.5 -17t-99.5 -59q-8 -7 -17 -7t-16.5 7.5t-7.5 16.5t7 17
q52 51 116.5 71t139.5 20q62 0 130 -9.5t140 -21.5q79 -14 161.5 -25t165.5 -11q196 0 344 87q39 39 81 39q36 0 69 -30q0 170 66 371q25 74 63 114q51 53 108 53q29 0 55 -13q37 -19 58 -63q15 -33 15 -78q0 -89 -65 -193q-67 -100 -144 -167q-55 -47 -106 -84
q7 -89 33 -149q23 -54 58 -76q19 -12 42 -12q99 0 209 216q9 15 22 15q6 0 11 -3q14 -9 14 -22q0 -6 -3 -11q-105 -207 -210 -237q-23 -8 -45 -8zM1303 32q63 0 146 150q-3 19 -5 40l-1 1q-37 68 -74 68q-23 0 -45 -26q-35 -40 -50 -102q-8 -35 -8 -62q0 -33 11 -52
q8 -17 26 -17zM1488 311q122 84 211 218q58 91 58 166q0 34 -12 58q-22 47 -67 47q-76 0 -125 -133q-65 -204 -65 -356z" />
    <glyph glyph-name="e.1" unicode="&#xe03e;" horiz-adv-x="1568" 
d="M1409 24q-57 0 -88 47q-19 31 -19 86q-96 -28 -199 -28q-94 0 -191.5 16.5t-192.5 36.5q-85 18 -165.5 31.5t-151.5 13.5q-142 0 -216 -73q-8 -7 -18 -7q-9 0 -16.5 7.5t-7.5 16.5t7 17q89 89 250 89q74 0 157 -14.5t171 -32.5q93 -20 188.5 -36t186.5 -16q108 0 207 33
q8 31 24 67q41 82 90 85q6 1 13 1q31 0 49 -25q12 -16 12 -38q0 -15 -7 -32q-17 -46 -113 -81q-12 -7 -25 -12q-3 -15 -3 -28q0 -33 12 -51q15 -23 45 -23q56 2 107 47q59 52 85 109q8 14 23 14q5 0 10 -2q14 -8 14 -22q0 -5 -2 -10q-31 -68 -98 -126q-58 -51 -126 -59z
M1371 237q80 29 80 63q0 15 -15 15h-4q-25 -1 -52 -57z" />
    <glyph glyph-name="f.1" unicode="&#xe03f;" horiz-adv-x="1551" 
d="M1441 -208q-71 0 -115 152q-30 101 -30 275q-132 -55 -295 -55q-85 0 -168 11t-164 24q-72 13 -138.5 22.5t-125.5 9.5q-66 0 -122.5 -17t-99.5 -59q-8 -7 -17 -7q-10 0 -17.5 7.5t-7.5 17.5q0 9 7 17q52 51 116 70.5t139 19.5q62 0 130 -9.5t142 -21.5q80 -14 162 -25
t164 -11q166 0 296 61q8 165 42 264.5t79 143t87 43.5q49 0 74 -46q15 -28 15 -68v-10q-1 -67 -58.5 -162.5t-190.5 -204.5q0 -83 2 -109l1 -21q7 -1 20 -1q60 0 123 30q59 28 96 97q8 14 23 14q5 0 10 -2q14 -9 14 -22q0 -6 -3 -11q-45 -86 -118 -119q-61 -30 -115 -34
q96 -108 97 -193q0 -53 -36 -68q-9 -3 -18 -3zM1347 301l2 1q105 92 150 169.5t46 132.5v8q0 48 -27 61q-6 3 -14 3q-22 0 -52 -29q-37 -36 -66.5 -121t-38.5 -225zM1441 -159q5 2 5 27q0 58 -89 161q24 -134 62 -173q14 -15 22 -15z" />
    <glyph glyph-name="g.1" unicode="&#xe040;" horiz-adv-x="1665" 
d="M1352 -445q-20 0 -34 7l-3 1q-34 15 -47 60q-4 17 -4 38q0 66 39 148q46 98 106.5 160t122.5 106q0 63 -7 114q-16 -31 -37 -57q-60 -78 -114 -78q-31 2 -49.5 22.5t-27 48t-8.5 57.5q0 24 5 48q-140 -66 -317 -66q-86 0 -170 11.5t-164 25.5q-72 12 -138 21.5t-124 9.5
q-67 0 -123 -17t-99 -59q-8 -7 -17 -7q-10 0 -17.5 7.5t-7.5 16.5t7 17q52 51 116.5 71t139.5 20q62 0 130.5 -9.5t140.5 -22.5q78 -14 159.5 -25t164.5 -11q198 0 346 87q3 7 9 13q55 66 129 66q47 0 69 -29q13 -16 13 -40q0 -15 -14 -22h2q14 0 21 -14q29 -63 31 -162
q73 52 106 118q9 14 22 14q5 0 10 -2q15 -8 15 -22q0 -5 -2 -10q-23 -49 -63 -86.5t-89 -73.5q0 -19 -2 -41q-8 -92 -27 -176.5t-44 -136.5q-68 -141 -155 -141zM1375 103q29 0 74 58q38 49 56 110q2 10 12 15q-11 0 -18 7t-7 17q0 20 -32 20q-52 0 -92 -48q-30 -45 -30 -97
q0 -24 6 -43.5t14 -29t17 -9.5zM1352 -395q56 0 111 112q23 48 40.5 127.5t24.5 166.5q-49 -38 -96.5 -91t-83 -130t-35.5 -129q0 -42 23 -54h2q5 -2 14 -2z" />
    <glyph glyph-name="h.1" unicode="&#xe041;" horiz-adv-x="1699" 
d="M1529 -15q-12 0 -22 4q-29 13 -29 63q0 20 6 48q15 77 15 123q0 43 -11 61l-1 1q-6 9 -12 9q-17 -2 -36 -16q-38 -29 -72 -89.5t-50 -136.5q-2 -8 -8 -14t-16 -6q-8 0 -15 5.5t-9 14.5q-14 87 -17 182q-135 -61 -306 -61q-85 0 -169.5 11.5t-165.5 25.5q-70 12 -135.5 21
t-124.5 9q-67 0 -123.5 -17t-99.5 -59q-8 -7 -17 -7q-10 0 -17.5 7.5t-7.5 17.5q0 9 7 17q52 51 116 70.5t139 19.5q62 0 130.5 -9.5t140.5 -21.5q79 -14 161 -25t165 -11q173 0 307 66q0 217 59 402q25 74 63 114q51 55 109 55q28 0 52 -13q38 -19 57 -63q15 -32 15 -75
q0 -89 -66 -193q-52 -81 -111 -145q-81 -86 -129 -122q1 -37 4 -75q45 99 104 144q33 25 65 26q34 0 55 -33l1 -1q17 -29 17 -91q0 -51 -14 -128q-6 -25 -6 -41q0 -8 2 -14v-2q18 5 50 30q41 36 80 85q43 56 57 88q3 7 9 11.5t14 4.5q4 0 8 -2q16 -8 16 -23q0 -4 -2 -9
q-16 -39 -64 -100q-42 -54 -87 -93q-49 -40 -81 -40zM1302 312q116 103 198 229q58 93 58 167q0 32 -11 55q-12 29 -34 39q-14 8 -29 8q-76 0 -126 -135q-44 -138 -54 -295l-3 -68h1z" />
    <glyph glyph-name="i.1" unicode="&#xe042;" horiz-adv-x="1543" 
d="M1344 329q-11 0 -17.5 6.5t-7.5 17.5l1 13l4 35q3 29 25 29q13 -1 19 -8.5t6 -17.5l-6 -49q0 -11 -6.5 -18t-17.5 -8zM1399 -11q-44 0 -69 46q-23 39 -23 128q0 32 3 71q-145 -72 -329 -72q-85 0 -169.5 11.5t-164.5 25.5q-70 12 -136 21.5t-125 9.5q-67 0 -123 -17
t-99 -59q-8 -7 -18 -7q-9 0 -16.5 7.5t-7.5 17.5q0 9 7 17q52 51 116 70.5t138 19.5q62 0 129 -9t139 -21q81 -14 164 -25.5t166 -11.5q197 0 345 87q6 3 12 3q12 0 21 -12q4 -6 4 -12q0 -4 -2 -8q0 -1 0.5 -2.5t0.5 -6.5q-6 -58 -6 -99q0 -74 17 -104q10 -18 22 -19h5
q15 0 33 12q73 48 134 179q9 14 23 14q5 0 10 -2q14 -8 14 -22q0 -5 -2 -10q-68 -145 -153 -201q-31 -20 -60 -20z" />
    <glyph glyph-name="j.1" unicode="&#xe043;" horiz-adv-x="1473" 
d="M1314 330h-4q-9 0 -15.5 6t-7.5 17l-4 54q1 11 8.5 17.5t17.5 6.5q10 -1 16.5 -7.5t6.5 -17.5l4 -50q0 -11 -6 -18t-16 -8zM1145 -447q-11 0 -22 3l-7 3q-40 12 -54 63q-4 17 -4 38q0 60 38 148q43 90 98.5 149.5t112.5 101.5v26q0 89 -7 154q-148 -76 -339 -76
q-84 0 -167.5 11t-162.5 24q-73 13 -139.5 22.5t-125.5 9.5q-67 0 -123 -17t-99 -59q-8 -7 -18 -7q-9 0 -16.5 7.5t-7.5 17.5q0 9 7 17q52 51 116 70.5t138 19.5q62 0 129 -9t139 -21q81 -14 164 -25.5t166 -11.5q197 0 345 87q6 3 12 3q12 0 21 -12q4 -6 4 -14q3 -5 3 -11
q10 -69 10 -168q42 30 74.5 61.5t50.5 69.5q9 15 23 15q4 0 9 -2q15 -9 15 -23q0 -5 -2 -10q-24 -50 -64.5 -87.5t-90.5 -73.5l-16 -12q0 -49 -5 -100q-9 -150 -49 -241q-69 -141 -156 -141zM1146 -397q56 0 111 112q40 96 48 280q-109 -88 -164 -208q-34 -74 -34 -127
q0 -15 3 -26q6 -22 19 -28q5 -3 17 -3z" />
    <glyph glyph-name="k.1" unicode="&#xe044;" horiz-adv-x="1715" 
d="M1564 -13q-31 0 -55 19q-54 41 -74 135q-4 -21 -8 -47.5t-10 -57.5q-2 -17 -20 -21l-5 -1q-18 0 -23 21q-15 81 -18 206q-142 -68 -321 -68q-86 0 -170.5 11.5t-164.5 25.5q-70 12 -136 21t-125 9q-67 0 -123.5 -17t-99.5 -59q-8 -7 -17 -7q-10 0 -17.5 7.5t-7.5 17.5
q0 9 7 17q52 51 116.5 70.5t138.5 19.5q62 0 129 -9t139 -21q80 -14 163 -25.5t166 -11.5q183 0 323 74q0 212 53 393q24 72 59 112q48 54 105 54q26 0 49 -12q37 -20 55 -64q15 -33 15 -77q0 -92 -67 -199q-51 -78 -105 -136q-69 -73 -115 -108l1 -60q21 53 61 85
q52 42 99 42q23 0 36.5 -10.5t13.5 -28.5l-1 -10q-8 -40 -70 -73q-34 -18 -79 -22q0 -1 4 -4q14 -11 17 -24q7 -31 22 -63q24 -54 59 -54q46 0 110 89q44 58 69 112q8 14 22 14q5 0 11 -3q14 -8 14 -21q0 -6 -3 -11q-27 -58 -73 -121q-80 -109 -149 -109zM1480 234
q53 14 75 42q-30 -4 -61 -29zM1400 323q100 86 178 207q60 96 60 173q0 33 -11 57q-19 46 -61 46q-68 0 -115 -132q-46 -159 -50 -325z" />
    <glyph glyph-name="l.1" unicode="&#xe045;" horiz-adv-x="1698" 
d="M1516 -36q-36 0 -68 20q-93 57 -113 251q-143 -70 -325 -70q-86 0 -170 11.5t-165 25.5q-70 12 -136 21t-125 9q-66 0 -122.5 -16.5t-99.5 -59.5q-8 -7 -17 -7q-10 0 -18 7q-7 8 -7 18q0 9 7 17q52 51 116.5 71t139.5 20q62 0 130 -9.5t140 -22.5q78 -14 160 -25t164 -11
q185 0 326 75v16q0 174 66 377q25 74 63 114q51 53 110 53q28 0 53 -13q37 -19 58 -64q15 -33 15 -77q0 -89 -65 -193q-67 -100 -145 -167q-70 -61 -105 -84q7 -89 33 -149q23 -54 58 -76q19 -12 42 -12q99 0 209 216q9 14 22 14q6 0 11 -3q14 -8 14 -21q0 -6 -3 -11
q-106 -208 -210 -238q-22 -7 -43 -7zM1381 310l11 9q28 21 64 53q73 62 136 156q58 92 58 166q0 34 -12 58q-13 29 -36 40q-15 8 -32 8q-75 0 -124 -133q-65 -204 -65 -357z" />
    <glyph glyph-name="m.1" unicode="&#xe046;" horiz-adv-x="1905" 
d="M1314 11q-31 3 -38 44q-6 26 -6 83q0 47 3 99q-147 -75 -336 -75q-85 0 -168 11t-162 24q-72 13 -139 22.5t-126 9.5q-66 0 -122.5 -17t-99.5 -59q-8 -7 -17 -7q-10 0 -17.5 7.5t-7.5 17.5q0 9 7 17q52 51 116 70.5t138 19.5q62 0 129 -9t139 -21q81 -14 164 -25.5
t166 -11.5q194 0 340 84q4 37 7 55q2 9 9 14.5t15 5.5q12 0 18 -8t6 -16v-4q-5 -28 -9 -87t-4 -115v-13q33 130 55 178q39 83 85 83q41 0 59 -55q12 -37 12 -138l1 -84l12 28q21 49 47 99q57 111 112 111l12 -1q30 -8 40.5 -40t10.5 -74q0 -32 -2.5 -64.5t-2.5 -58.5
q0 -37 7 -48q1 -2 3 -2q4 0 11 3q18 7 41 27q36 32 65.5 72t40.5 66q8 15 23 15q4 0 9 -2q16 -8 16 -22q0 -5 -2 -9q-13 -31 -47 -76t-73 -81q-47 -42 -84 -42q-18 0 -32 11t-20.5 33t-6.5 54q0 28 2 61q3 40 3 72q0 24 -3 40t-13 17q-23 0 -53 -56q-22 -43 -59 -124
q-29 -72 -50 -97q-10 -10 -20 -10t-19 10h-1q-12 16 -14.5 69.5t-2.5 102.5q0 93 -10 124q-7 20 -11 20q-3 0 -8 -4q-39 -36 -75 -177l-8 -31q-12 -47 -23 -79q-12 -37 -32 -37z" />
    <glyph glyph-name="n.1" unicode="&#xe047;" horiz-adv-x="1697" 
d="M1339 210q26 81 60 121q41 45 79 54q10 2 20 2q16 0 30 -7q22 -11 34 -38q11 -23 11 -59q0 -21 -5 -48q-13 -73 -13 -119q0 -37 7 -57q6 -15 11 -18q2 -1 4 -1t5 1h2q22 8 49 41q23 29 48 70q23 37 42 78q8 14 22 14q5 0 10 -2q14 -9 14 -22q0 -5 -2 -10q-20 -45 -44 -84
q-27 -44 -52 -75q-37 -44 -72 -57q-10 -3 -21 -3q-16 0 -30 8q-21 12 -32 45q-10 27 -10 73q0 51 14 127q4 22 4 39q0 25 -7 40q-5 10 -11 13q-4 2 -9 2q-3 0 -8 -1q-22 -4 -54 -39q-26 -32 -49 -103q-24 -78 -35 -169q-2 -10 -5 -16h-1q-13 -20 -24 -20q-15 0 -23 37
q-2 8 -4 21q0 5 -1 10q-5 40 -5 102q0 37 3 79q-81 -41 -165 -57.5t-169 -16.5t-169 11.5t-165 25.5q-70 12 -135.5 21t-124.5 9q-67 0 -123.5 -17t-99.5 -59q-8 -7 -17 -7q-10 0 -18 7q-7 8 -7 18q0 9 7 17q52 51 116.5 71t138.5 20q62 0 130.5 -9.5t140.5 -22.5
q79 -14 161 -25t165 -11q87 0 172.5 18.5t167.5 65.5q3 32 9 62q2 10 9 15t16 5h4q20 -7 20 -25v-4q-14 -73 -16 -141z" />
    <glyph glyph-name="o.1" unicode="&#xe048;" horiz-adv-x="1696" 
d="M1459 -6q-33 0 -62 17.5t-47.5 52t-20.5 87.5q0 23 5 51q2 13 6 26q-140 -66 -316 -66q-84 0 -167 11t-163 25q-73 13 -140 22.5t-126 9.5q-67 0 -123.5 -17t-99.5 -59q-8 -7 -17 -7t-16.5 7.5t-7.5 17.5q0 9 7 17q52 51 116 70.5t138 19.5q62 0 129 -9t139 -21
q81 -14 164 -25.5t166 -11.5q197 0 344 87l4 2q31 51 90 56q8 0 14 -1q14 4 27 4q35 0 59 -27q22 -23 33.5 -58t11.5 -76q0 -18 -2 -37q16 -5 31 -5q59 0 94 73q8 15 21 15q6 0 11 -3q15 -8 15 -22q0 -5 -3 -11q-50 -103 -133 -103q-23 0 -46 7q-20 -69 -81 -104
q-26 -13 -54 -15zM1458 43q17 1 33 9q44 26 58 81q-35 21 -62 51q-54 59 -57 111q-10 -8 -18 -21q-23 -37 -30 -81q-4 -23 -4 -41q3 -73 45 -99q16 -10 35 -10zM1557 187v12q0 32 -8.5 59t-21 40t-27.5 13q-6 0 -13 -2l-2 -1q-5 -3 -5 -11t4 -19q11 -30 39 -61
q16 -16 34 -30z" />
    <glyph glyph-name="p.1" unicode="&#xe049;" horiz-adv-x="1719" 
d="M1357 -450q-15 0 -23 14q-31 86 -33 287q-1 47 -1 95q0 158 8 294q-149 -77 -340 -77q-85 0 -169.5 11.5t-165.5 25.5q-70 12 -135.5 21t-124.5 9q-145 0 -223 -76q-8 -7 -18 -7q-9 0 -16.5 7.5t-7.5 17.5q0 9 7 17q52 51 116 70.5t138 19.5q62 0 129 -9t139 -21l4 -1
q78 -14 160 -25t165 -11q199 0 345 87l5 57q1 10 7.5 16t15.5 6q12 0 19 -7.5t7 -17.5q-4 -35 -7 -98q34 126 91 148q20 8 39 8q41 0 76 -34q60 -61 60 -147q0 -33 -11 -70q44 0 81 13.5t59 57.5q9 14 22 14q6 0 11 -3q14 -9 14 -22q0 -6 -3 -11q-35 -67 -88 -83
q-48 -15 -103 -15h-13q-12 -22 -25 -39q-59 -65 -128 -65q-26 0 -43 10q-10 5 -16 13l-3 -67q-1 -64 -1 -130q0 -132 4 -257q0 -8 -3.5 -14.5t-9.5 -9t-11 -2.5zM1437 56q50 0 93 48l4 5q-54 -2 -97 -29q-15 -10 -17 -19h-1q0 -1 0.5 -1t1.5 -1q5 -3 16 -3zM1385 99
q10 12 25 22q66 38 137 38h14q14 37 14 71q0 65 -45 111q-21 21 -43 21q-9 0 -17 -4q-42 -15 -70 -139q-9 -49 -15 -120z" />
    <glyph glyph-name="q.1" unicode="&#xe04a;" horiz-adv-x="1714" 
d="M1606 -451q-25 0 -50.5 19.5t-44 68t-21.5 128.5l-1 56q0 111 10 230l6 79q-58 -120 -109 -148q-22 -12 -42 -12q-12 0 -23 4q-29 11 -44 45t-15 85q0 55 20 125q-140 -66 -317 -66q-86 0 -170 11.5t-165 25.5q-70 12 -135.5 21t-124.5 9q-67 0 -123.5 -17t-100.5 -59
q-8 -7 -17 -7q-10 0 -17.5 7.5t-7.5 16.5q0 10 8 18q52 51 116 70.5t138 19.5q62 0 129 -9t139 -21q80 -14 163 -25.5t166 -11.5q198 0 345 87h1q46 96 105 96q14 0 27 -5q40 -16 65 -56q2 -2 4.5 -6t4.5 -9q8 60 12 84q1 10 8 15.5t15 5.5q12 0 18.5 -8t6.5 -16l-16 -134
q-14 -118 -24 -260q59 40 114.5 91.5t96.5 133.5q9 14 23 14q5 0 10 -2q14 -9 14 -22q0 -6 -3 -11q-45 -92 -105.5 -148t-125.5 -99q-2 -2 -9.5 -7t-7.5 -7q0 -3 12 -8q27 -10 39 -26l33 -50q63 -98 63 -184q0 -38 -11 -65q-18 -45 -54 -61q-14 -6 -28 -6zM1355 19q6 0 16 5
q62 36 129 225l2 5q-2 0 -2 1q-5 22 -23.5 50.5t-41.5 38.5q-4 2 -9 2q-41 0 -81 -112q-24 -74 -24 -128q0 -41 11 -67q10 -20 23 -20zM1607 -401q22 0 35 34q8 20 8 48q0 71 -55 158q-14 19 -25 38l-30 44q-2 -50 -2 -98q0 -185 49 -216q10 -8 20 -8z" />
    <glyph glyph-name="r.1" unicode="&#xe04b;" horiz-adv-x="1608" 
d="M1478 -18q-39 0 -56 38q-21 40 -21 117q0 51 7.5 103t19.5 88q-41 3 -58 3v-3q-10 -33 -51 -64q-2 -2 -2.5 -2t-0.5 -1q-38 -27 -85 -46q-129 -52 -287 -52q-85 0 -169 11.5t-164 25.5q-72 12 -138 21.5t-124 9.5q-67 0 -123 -17t-99 -59q-8 -7 -17 -7q-10 0 -17.5 7.5
t-7.5 16.5t7 17q52 51 117 71t140 20q62 0 130 -9.5t140 -21.5q78 -14 160.5 -25t165.5 -11q68 0 135 11q93 15 163 51q11 5 45 26q0 1 1 1q23 19 31 33h-3q-84 15 -84 70l1 12q8 32 36 53q23 16 47 16q8 0 16 -2q47 -10 47 -81l-1 -23h7q69 -4 85 -10q16 -9 16 -23
q0 -6 -4 -13l-1 -2q-13 -27 -22.5 -81.5t-9.5 -109.5q0 -67 15 -99q6 -11 12 -11q13 1 39 24q30 30 56 72q37 62 52 102q9 16 23 16q5 0 9 -2q16 -9 16 -23q0 -5 -2 -9q-17 -44 -57 -110q-28 -46 -64 -81q-41 -38 -71 -38zM1331 383q2 13 2 23q0 30 -14 31q-9 0 -20 -7
q-15 -10 -16 -24q0 -12 42 -22z" />
    <glyph glyph-name="s.1" unicode="&#xe04c;" horiz-adv-x="1554" 
d="M1319 -166q-36 0 -58.5 25.5t-22.5 61.5q0 38 31 85q48 57 116 80q-23 55 -53 105q-17 29 -31 56q-153 -84 -351 -84q-85 0 -169.5 11.5t-164.5 25.5q-70 12 -136 21.5t-126 9.5q-66 0 -122 -17t-99 -59q-8 -7 -17 -7q-10 0 -17.5 7.5t-7.5 16.5t7 17q52 51 117 71
t140 20q62 0 129.5 -9.5t139.5 -21.5q78 -14 160 -25t165 -11q190 0 334 80q-3 15 -3 27q0 38 22 60q29 31 75 31q52 -1 73 -45q5 -11 5 -24q0 -32 -32 -73q-9 -9 -19 -9q-8 0 -16.5 7t-8.5 17q0 8 6 16q20 27 20 41q0 12 -9.5 16.5t-21.5 4.5q-19 0 -36 -15q-9 -9 -9 -26
q0 -31 46 -106l10 -19q26 -44 46 -93q45 16 86.5 44t70.5 84q9 14 22 14q6 0 11 -3q14 -9 14 -22q0 -6 -3 -11q-35 -69 -84 -101.5t-102 -50.5q6 -36 6 -49q0 -40 -15 -80q-18 -45 -55 -72q-33 -22 -63 -22zM1318 -118q16 0 36 14q25 19 37 50t12 61q0 15 -4 32
q-55 -20 -90 -62q-22 -33 -22 -58q0 -17 10 -27t21 -10z" />
    <glyph glyph-name="t.1" unicode="&#xe04d;" horiz-adv-x="1626" 
d="M1434 -12q-52 0 -79 63q-23 57 -27 146l-1 41q-147 -75 -336 -75q-84 0 -166.5 11t-162.5 24l-141 23q-66 9 -125 9q-66 0 -122.5 -17t-99.5 -59q-8 -7 -17 -7q-10 0 -17.5 7.5t-7.5 17.5q0 9 7 17q52 51 116 70.5t139 19.5q62 0 130.5 -9.5t140.5 -21.5
q79 -14 160.5 -25t164.5 -11q192 0 337 82q4 108 16 209q-78 -9 -140 -9q-112 0 -133 43q-2 5 -2 10q0 13 14 22q5 2 10 2q14 0 24.5 -15.5t67.5 -15.5q64 0 164 13q10 73 17 115l4 27q7 20 25 20q12 -1 18 -9t6 -16v-4q-7 -32 -19 -127l15 2q149 18 219 18q37 0 66 -5
q54 -9 54 -36q0 -8 -6.5 -16.5t-17.5 -8.5q-8 0 -15 5q-21 13 -75 13q-87 0 -220 -19l-27 -3q-16 -130 -16 -255q0 -122 24 -183q13 -33 35 -33q22 2 51 22q41 33 77 78q45 58 60 91q8 15 22 15q5 0 10 -2q15 -8 15 -22q0 -5 -2 -10q-17 -40 -67 -103q-97 -119 -167 -119z
" />
    <glyph glyph-name="u.1" unicode="&#xe04e;" horiz-adv-x="1721" 
d="M1359 -9h-3q-39 0 -64 39.5t-25 127.5q0 35 5 78q-145 -73 -331 -73q-85 0 -169.5 11.5t-164.5 25.5q-70 12 -135.5 21t-124.5 9q-67 0 -123.5 -17t-100.5 -59q-8 -7 -17 -7t-16.5 7.5t-7.5 17.5q0 9 7 17q52 51 116 70.5t138 19.5q62 0 129 -9t139 -21q80 -14 163 -25.5
t166 -11.5q195 0 341 84q1 12 4 25l1 8q2 9 9 14.5t15 5.5q12 0 18.5 -8.5t6.5 -16.5v-4q-19 -103 -19 -167q0 -69 18 -97q11 -16 23 -16q17 0 41 18q42 34 79 106.5t55 173.5q2 9 9 14.5t15 5.5q12 -1 18.5 -9t6.5 -17q-10 -72 -10 -159q0 -31 3 -61q6 -69 28 -69
q14 1 39 24q36 34 67.5 81.5t45.5 81.5q8 14 23 14q5 0 10 -2q14 -8 14 -22q0 -5 -2 -10q-16 -37 -50.5 -89t-73.5 -90t-76 -38q-63 0 -74 114l-3 40q-43 -87 -94 -127q-36 -29 -69 -29z" />
    <glyph glyph-name="v.1" unicode="&#xe04f;" horiz-adv-x="1684" 
d="M1401 3q-44 0 -76 93q-25 66 -39 145q-150 -78 -341 -78q-86 0 -170 11.5t-165 25.5q-70 12 -136 21t-125 9q-67 0 -123.5 -17t-99.5 -59q-8 -7 -17 -7q-10 0 -17.5 7.5t-7.5 16.5q0 10 8 18q52 51 116 70.5t138 19.5q62 0 129 -9t139 -21q80 -14 163 -25.5t165 -11.5
q193 0 338 82l-1 26q0 29 6 54q1 8 7.5 13.5t15.5 5.5q13 0 19 -8.5t6 -17.5v-4q-4 -20 -4 -43q0 -30 5 -65q12 -78 37 -142q22 -58 32 -60q7 0 33 43q33 53 49 117q-5 8 -8 15q-34 72 -34 128q0 41 21 63q17 15 34 15q51 -2 51 -106q0 -47 -12 -106q36 -51 89 -55
q55 0 85 63q9 14 23 14q5 0 10 -2q14 -8 14 -23q0 -5 -2 -10q-28 -55 -73 -78q-28 -13 -57 -13q-56 2 -105 47q-16 -52 -43 -96q-41 -66 -77 -66zM1499 308l1 19q0 33 -6 51q-3 -8 -3 -21q0 -20 8 -49z" />
    <glyph glyph-name="w.1" unicode="&#xe050;" horiz-adv-x="1879" 
d="M1578 -7q-67 0 -90 129q-33 -114 -91 -114q-43 0 -73 58.5t-30 154.5v15q-146 -73 -332 -73q-85 0 -169.5 11.5t-164.5 25.5q-70 12 -135.5 21t-124.5 9q-67 0 -123.5 -17t-100.5 -59q-8 -7 -17 -7q-10 0 -17.5 7.5t-7.5 16.5q0 10 8 18q52 51 116 70.5t138 19.5
q62 0 129 -9t139 -21q81 -14 164 -25.5t166 -11.5q193 0 338 83q6 37 18 76q7 17 23 17l7 -1q18 -7 18 -23q0 -4 -1 -7q-22 -77 -22 -141q0 -80 25 -128q15 -30 28 -30q4 0 7 2q27 16 47 116l10 42q9 37 18.5 48.5t21.5 11.5q9 0 17.5 -7.5t11.5 -19.5l1 -43q0 -15 2 -31
q9 -107 35 -129q6 -6 12 -6q16 1 36 22q42 45 68 131q-34 47 -45 116q-2 13 -2 24q0 41 17 60l1 2q16 16 36 16q19 -1 34 -19q24 -29 24 -92q0 -47 -11 -94l4 -5q38 -33 77 -33q56 0 86 60q9 15 22 15q6 0 11 -3q14 -9 14 -22q0 -6 -3 -11q-28 -57 -74 -76q-27 -12 -55 -12
q-52 0 -97 35q-30 -81 -72 -127q-36 -36 -72 -36zM1697 274l1 30q0 41 -10 55q-3 -8 -3 -23q0 -29 12 -62z" />
    <glyph glyph-name="x.1" unicode="&#xe051;" horiz-adv-x="1642" 
d="M1318 -25q-4 0 -8 2q-16 9 -16 23l1 8q25 69 67 153q-30 35 -57 88q-155 -86 -356 -86q-85 0 -169 11.5t-165 25.5q-71 12 -137 21t-124 9q-67 0 -123.5 -16.5t-99.5 -59.5q-7 -7 -17 -7q-9 0 -16.5 8t-7.5 17t7 17q52 51 116.5 71t138.5 20q62 0 130.5 -9.5t140.5 -22.5
q79 -13 161 -24.5t164 -11.5q192 0 336 82q-21 56 -21 75q0 11 7.5 18t17.5 7t17 -7t7 -19t15.5 -52t44.5 -86l15 -22q20 35 41 66q70 103 135 103q11 0 18 -7.5t7 -17.5t-7.5 -17t-17.5 -7q-20 0 -44.5 -22.5t-49.5 -59t-48 -78.5q20 -20 43 -33l8 -5q25 -12 50 -12
q26 0 50 12q58 30 93 101q9 14 22 14q6 0 11 -3q14 -9 14 -22q0 -11 -14 -31q-40 -71 -105 -103q-34 -17 -72 -17q-34 0 -70 17l-8 3q-23 13 -45 33q-35 -71 -57 -131q-8 -16 -23 -16z" />
    <glyph glyph-name="y.1" unicode="&#xe052;" horiz-adv-x="1678" 
d="M1371 -446q-12 0 -23 3l-13 4q-35 16 -47 61q-5 17 -5 37q0 62 39 149q49 104 108.5 162t120.5 96v21q0 55 -7 101q-34 -65 -79 -104q-37 -31 -70 -31q-65 0 -83 100q-5 27 -5 56l1 28q-147 -74 -334 -74q-85 0 -169 11.5t-165 25.5q-70 12 -135.5 21t-124.5 9
q-67 0 -123.5 -17t-99.5 -59q-8 -7 -17 -7q-10 0 -17.5 7.5t-7.5 16.5q0 10 7 18q52 51 116 70.5t139 19.5q62 0 130.5 -9.5t140.5 -21.5q79 -14 161 -25t165 -11q194 0 340 84q4 26 10.5 46.5t23.5 20.5l6 -1q18 -7 18 -23q0 -4 -1 -7q-15 -58 -15 -118q0 -27 4 -52
q11 -60 34 -60q17 0 40 20q60 54 90 147q3 10 13 16q5 2 10 2q14 0 23 -14q29 -67 30 -174q36 25 66 56t51 75q8 14 23 14q5 0 10 -2q14 -9 14 -22q0 -5 -2 -10q-29 -62 -71 -100.5t-92 -70.5l-2 -31q-18 -197 -70 -314q-40 -78 -78 -109q-42 -31 -78 -31zM1370 -397
q57 0 112 112q48 106 65 289q-49 -33 -95.5 -83.5t-84.5 -132.5q-35 -78 -35 -128q0 -15 3 -26q7 -24 23 -29q1 0 4 -1t8 -1z" />
    <glyph glyph-name="z.1" unicode="&#xe053;" horiz-adv-x="1640" 
d="M1328 -340q-24 0 -45 13q-27 18 -41 54q-11 29 -11 65q0 74 45 145q45 66 100.5 100.5t112.5 57.5l24 10q-10 49 -54 49q-38 -2 -67 -18l-3 -2q-5 -2 -10 -2q-13 0 -21 12q-4 6 -4 13q0 12 12 21q7 4 17 8q51 19 78 69q16 32 16 50q-1 18 -12 23.5t-26 5.5
q-49 -2 -95 -43l-1 -2q-62 -51 -123 -76q-125 -50 -281 -50q-85 0 -169 11.5t-164 25.5q-70 12 -135.5 21t-124.5 9q-67 0 -123.5 -17t-99.5 -59q-8 -7 -17 -7q-10 0 -17.5 7.5t-7.5 17.5q0 9 7 17q52 51 116 70.5t139 19.5q62 0 130.5 -9.5t140.5 -21.5q79 -14 161 -25
t164 -11q80 0 158 15q119 21 213 99q61 55 128 57q66 0 84 -52q4 -11 4 -25q0 -31 -21 -73q-9 -18 -20 -32q53 -5 74 -74q66 33 105 104q9 14 22 14q6 0 11 -3q14 -9 14 -22q0 -6 -3 -11q-27 -52 -64 -83t-80 -51q-2 -44 -20 -109q-17 -68 -49 -138q-36 -77 -74 -117
q-47 -51 -93 -51zM1328 -290q55 0 122 139q47 102 62 202l-8 -3q-51 -22 -100 -52t-87 -86q-37 -64 -37 -117q0 -27 8 -49q13 -34 40 -34z" />
    <glyph glyph-name="a.2" unicode="&#xe054;" horiz-adv-x="1717" 
d="M101 27q-9 0 -18 3q-56 17 -56 104q0 31 8 68q16 67 54 112q32 36 71 36q34 0 68 -34q2 8 8.5 12.5t14.5 4.5q12 0 18.5 -8t6.5 -16l-1 -6q-15 -73 -15 -165q0 -42 10 -57q2 -4 4 -4t7 2q34 19 79 86q27 42 38 65q11 17 25 17q6 0 12 -3q83 -47 212 -47q82 0 172 14.5
t182.5 33t180 32.5t166.5 14q172 0 264 -90q8 -8 8 -17q0 -10 -8 -17.5t-17 -7.5t-17 7q-78 76 -231 76q-76 0 -161.5 -14t-174.5 -32q-96 -19 -190 -34q-90 -14 -174 -14q-126 0 -214 42l-5 -9q-39 -67 -77 -107q-42 -46 -77 -46q-51 0 -62 77q-58 -78 -111 -78zM102 76
q6 0 14 4q43 18 97 123l4 41h-1q-28 57 -56 57q-18 0 -35 -20q-29 -34 -42 -90q-7 -33 -7 -58q0 -29 9 -45q7 -12 17 -12z" />
    <glyph glyph-name="b.2" unicode="&#xe055;" horiz-adv-x="1805" 
d="M108 -31q-57 0 -84 27q-20 21 -20 46q0 43 47 71q-8 75 -8 153q0 225 61 417q26 75 63 116q51 58 109 58q25 0 46 -11q36 -18 53 -61q11 -27 11 -64q0 -141 -180 -348q-72 -81 -114 -114q0 -43 3 -88l17 35q82 133 155 133q45 0 75.5 -38t30.5 -93q0 -41 -22 -87
q86 21 129 108q7 21 24 21q7 0 13 -3q83 -47 212 -47q82 0 172 14.5t181.5 33t179 33t166.5 14.5q173 0 266 -91q7 -8 7 -17t-7.5 -16.5t-16.5 -7.5q-10 0 -18 7q-77 75 -230 75q-76 0 -162 -13.5t-177 -32t-183.5 -33.5t-177.5 -15q-125 0 -213 41q-58 -103 -173 -123
q-15 -3 -30 -3q-12 -15 -28 -28q-81 -69 -177 -69zM93 325q102 98 184 224q60 97 60 171q0 27 -8 47q-17 40 -53 40q-39 0 -76 -43q-28 -34 -49 -96q-45 -140 -55 -298q-2 -15 -2 -30zM109 18q72 0 139 52l-36 7q-35 10 -70 10q-12 0 -24 -2q-6 -20 -10 -43q-5 -19 -24 -20
q-9 0 -15.5 5.5t-8 13.5t-2.5 14q-2 -1 -3 -4t-1 -8q3 -25 55 -25zM290 115q33 50 33 93q0 36 -18 62q-16 20 -37 20q-22 0 -50 -27q-55 -52 -84 -127h7q39 0 76 -10l16 -3q28 -6 57 -8z" />
    <glyph glyph-name="c.2" unicode="&#xe056;" horiz-adv-x="1731" 
d="M144 10q-61 0 -96 38q-27 30 -27 79q0 26 9 60q18 64 56 120q70 102 136 105q29 0 45 -26q14 -19 14 -61q0 -30 -9 -74q-2 -9 -9 -14.5t-15 -5.5l-5 1q-20 7 -20 24l1 5q8 42 8 67q0 35 -12 35q-10 0 -28 -13q-34 -24 -66.5 -72t-48.5 -104q-7 -27 -7 -46q0 -32 14 -48
q12 -11 30 -17q15 -3 31 -3l19 1q78 9 144 56q63 44 95 111q0 3 2 7q9 12 21 12q7 0 13 -3q83 -47 212 -47q82 0 172 14.5t181.5 33t179 33t167.5 14.5q172 0 265 -91q8 -8 8 -17t-8 -17t-18 -8q-9 0 -17 7q-77 76 -231 76q-76 0 -161 -13.5t-174 -31.5q-94 -19 -186 -34
t-178 -15q-125 0 -213 41q-37 -66 -101 -112q-77 -54 -167 -65q-13 -2 -26 -2z" />
    <glyph glyph-name="d.2" unicode="&#xe057;" horiz-adv-x="1914" 
d="M420 -36q-36 0 -68 20q-47 30 -77 98l-12 31q-85 -130 -163 -130q-44 0 -69 41q-17 29 -17 77q0 32 9 72q18 75 61 125q39 42 84 42q36 0 69 -30q0 161 66 372q26 74 64 114q51 53 109 53q28 0 53 -13q38 -20 58 -64q16 -33 16 -77q0 -88 -65 -193q-69 -101 -145 -167
q-69 -61 -106 -84q8 -89 33 -149q23 -54 58 -76q20 -12 43 -12q98 0 209 216q0 4 2 6q9 12 21 12q7 0 13 -3q83 -47 212 -47q82 0 172 14.5t181.5 33t179 33t166.5 14.5q173 0 266 -91q7 -8 7 -17t-7.5 -16.5t-16.5 -7.5q-10 0 -18 7q-78 75 -231 75q-76 0 -161.5 -13.5
t-176.5 -32t-183 -33.5t-177 -15q-126 0 -214 42q-102 -191 -202 -220q-22 -7 -43 -7zM100 32q64 0 146 150q-3 19 -5 40l-1 1q-36 68 -73 68q-21 0 -46 -26q-35 -41 -50 -103q-8 -36 -8 -63q0 -33 10.5 -50t26.5 -17zM286 310l11 9q28 21 63 52q73 64 136 157q58 92 58 166
q0 34 -12 58q-13 29 -36 40q-14 8 -31 8q-40 0 -76 -41q-29 -33 -49 -93q-64 -204 -64 -356z" />
    <glyph glyph-name="e.2" unicode="&#xe058;" horiz-adv-x="1630" 
d="M116 24q-25 0 -45 10q-26 12 -43 37q-20 30 -20 74q0 54 34 133q41 81 89 86l12 1q32 0 51 -26q12 -16 12 -38q0 -15 -7 -32q-25 -58 -138 -88q-3 -20 -3 -36q2 -71 59 -71q52 2 105 48q59 50 85 108q4 8 10.5 12t14.5 4q6 0 12 -3q83 -47 212 -47q82 0 172 14.5
t181.5 33t179 33t167.5 14.5q172 0 265 -91q8 -8 8 -17t-8 -17t-18 -8q-9 0 -17 7q-77 76 -230 76q-76 0 -161.5 -14t-174.5 -32q-95 -19 -187.5 -33.5t-176.5 -14.5q-127 0 -215 42q-31 -57 -88 -106t-125 -58zM78 237q79 29 79 65q0 13 -14 13h-4q-25 -1 -53 -57
q-5 -10 -8 -21z" />
    <glyph glyph-name="f.2" unicode="&#xe059;" horiz-adv-x="1734" 
d="M183 -207q-27 0 -58.5 33t-56.5 119q-30 101 -30 268l1 35q5 178 39.5 284t80.5 150.5t88 44.5q19 0 35 -8q55 -27 55 -106v-10q-1 -68 -58.5 -163t-190.5 -204l-1 -28q0 -60 4 -102q8 -2 21 -2q61 0 122 31q59 27 96 97l3 5q9 11 21 11q6 0 12 -3q83 -47 212 -47
q82 0 172 14.5t181.5 33t179 33t167.5 14.5q172 0 265 -91q8 -8 8 -17t-8 -16.5t-17 -7.5t-17 7q-78 75 -231 75q-76 0 -161.5 -13.5t-174.5 -31.5q-94 -19 -186 -34t-178 -15q-126 0 -214 42q-44 -69 -106.5 -99t-116.5 -34q51 -59 74 -108.5t23 -85.5q0 -53 -37 -68
q-8 -3 -18 -3zM90 301q105 93 150.5 171t47.5 133v8q0 49 -27 62q-6 3 -13 3q-23 0 -53 -29q-37 -37 -66.5 -122t-38.5 -226zM183 -158q6 2 6 27q0 58 -89 161q24 -134 62 -173q14 -15 21 -15z" />
    <glyph glyph-name="g.2" unicode="&#xe05a;" horiz-adv-x="1747" 
d="M104 -444q-64 0 -84 68q-4 16 -4 36q0 28 9 65.5t30 84.5q46 98 107 160t122 106v16q0 53 -7 98q-16 -31 -37 -58q-59 -77 -114 -77q-31 2 -49.5 22.5t-26.5 48t-8 58.5q0 34 9.5 68t30.5 61q40 49 92 61q19 6 38 6q45 0 68 -29q13 -16 13 -40q0 -15 -13 -22q14 0 23 -14
q28 -64 30 -162q72 51 106 116q0 5 2 7q9 12 21 12q7 0 13 -3q83 -47 212 -47q82 0 172 14.5t181.5 33t179 33t166.5 14.5q173 0 266 -91q7 -8 7 -17t-7.5 -16.5t-16.5 -7.5q-10 0 -18 7q-77 75 -230 75q-76 0 -162 -13.5t-177 -32t-183.5 -33.5t-177.5 -15q-125 0 -213 41
q-24 -41 -61 -73.5t-81 -65.5q0 -21 -2 -41q-18 -197 -70 -314q-71 -140 -156 -140zM128 104q29 0 73 58q38 49 56 109q3 11 12 15q-10 0 -17.5 7.5t-7.5 17.5q0 6 -3 10q-9 10 -29 10q-12 0 -25 -4q-38 -9 -67 -44q-30 -39 -30 -97q0 -24 6 -43.5t14 -29t18 -9.5zM103 -395
q57 0 112 112q49 109 66 295q-50 -39 -97.5 -92t-83 -131.5t-35.5 -126.5q0 -43 23 -54q1 -1 2.5 -1t4.5 -1t8 -1z" />
    <glyph glyph-name="h.2" unicode="&#xe05b;" horiz-adv-x="1823" 
d="M316 -15q-11 0 -20 5q-29 13 -29 62q0 20 6 48q15 76 15 122q0 44 -11 63l-1 1q-6 9 -14 9q-13 0 -34 -16q-38 -29 -72 -89.5t-50 -137.5q-5 -19 -23 -20q-9 0 -16 6t-9 15q-17 111 -17 231q0 219 59 407q26 74 64 114q50 54 109 54q27 0 51 -12q38 -19 57 -63
q15 -32 15 -75q0 -143 -177 -339q-81 -85 -129 -121q1 -37 4 -75q45 99 104 144q34 25 65 26q34 0 55 -33q1 0 1 -1q17 -29 17 -91q0 -51 -14 -128q-6 -26 -6 -41q0 -9 2 -14v-2q20 5 50 30q41 35 80 85q43 56 57 87q0 4 3 9q9 12 22 12q6 0 12 -3q83 -47 212 -47
q80 0 168.5 14t178.5 32q139 26 186 34q88 14 168 14q171 0 264 -90q7 -8 7 -17q0 -10 -7.5 -17.5t-16.5 -7.5q-10 0 -18 7q-77 76 -230 76q-75 0 -161 -14t-176 -32q-94 -19 -186.5 -33.5t-177.5 -14.5q-125 0 -212 41q-19 -36 -55 -81q-42 -53 -87 -92q-48 -41 -83 -41z
M90 312q115 101 199 229q58 93 58 167q0 33 -11 56q-21 46 -65 46q-74 0 -124 -135q-43 -137 -54 -294z" />
    <glyph glyph-name="i.2" unicode="&#xe05c;" horiz-adv-x="1605" 
d="M71 330q-11 0 -18 6.5t-8 16.5l3 31l4 26q1 10 8 15.5t15 5.5h4q21 -6 21 -24q0 -8 -1 -14t-2 -15l-3 -23q0 -10 -6 -17t-17 -8zM126 -10q-93 0 -93 174q0 45 7 102q2 9 8.5 15t15.5 6q13 -1 19 -7.5t6 -15.5v-4q-7 -58 -7 -100q0 -72 18 -102q11 -19 25 -19t35 12
q72 48 134 179q8 17 27 17q6 0 12 -3q84 -47 214 -47q82 0 171.5 14.5t180.5 32.5t179.5 32.5t167.5 14.5q172 0 264 -90q7 -8 7 -18q0 -9 -7.5 -16.5t-17.5 -7.5q-9 0 -17 7q-77 76 -229 76q-75 0 -159.5 -13.5t-172.5 -31.5q-131 -25 -191 -35q-92 -15 -178 -15
q-127 0 -216 43q-65 -130 -143 -180q-31 -20 -60 -20z" />
    <glyph glyph-name="j.2" unicode="&#xe05d;" horiz-adv-x="1550" 
d="M-95 -446q-12 0 -23 3q-47 11 -61 65q-5 17 -5 38q0 62 39 148q42 91 97.5 150.5t112.5 101.5v29q0 100 -9 172q0 10 6.5 18t18.5 8q9 0 15.5 -6t8.5 -15q9 -70 9 -169q42 30 74.5 61.5t50.5 70.5q4 7 10 10q8 8 18 8q5 0 11 -3q84 -47 214 -47q82 0 172 14.5t181 32.5
t179 32.5t168 14.5q171 0 263 -90q8 -8 8 -17q0 -10 -8 -17.5t-17 -7.5q-10 0 -17 7q-77 76 -230 76q-75 0 -159.5 -13.5t-172.5 -31.5q-96 -19 -189 -34.5t-179 -15.5q-127 0 -216 43q-25 -43 -62.5 -76.5t-82.5 -65.5l-16 -13l-5 -99q-10 -151 -49 -241q-39 -78 -78 -110
q-42 -31 -77 -31zM-96 -396q20 0 46 19q93 75 110 316l3 57q-107 -86 -163 -208q-35 -79 -35 -127q0 -44 23 -54l1 -1q5 -2 15 -2zM72 330h-2q-9 0 -16 6.5t-8 16.5l-1 1l-3 52q0 13 7.5 19.5t17.5 6.5q11 -1 17.5 -8t6.5 -18v-3l3 -50q0 -18 -22 -23z" />
    <glyph glyph-name="k.2" unicode="&#xe05e;" horiz-adv-x="1845" 
d="M252 -13q-30 0 -54 19q-55 44 -74 136q-4 -22 -8 -48.5t-10 -56.5q-3 -21 -24 -22q-8 0 -15.5 5.5t-9.5 15.5q-18 98 -18 243q0 49 3 100q8 163 51 311q24 72 59 112q48 54 103 54q27 0 51 -13q36 -19 56 -63q14 -32 14 -76q0 -92 -67 -200q-51 -78 -105 -136
q-69 -74 -115 -108q0 -31 1 -60q21 53 61 85q52 41 101 41q21 0 33 -9q15 -12 15 -30l-1 -10q-8 -40 -70 -72q-34 -18 -79 -22q0 -1 4 -4q14 -11 17 -24q19 -80 56 -109q11 -9 25 -9q45 0 110 89q44 59 69 112l3 7q9 12 22 12q6 0 12 -3q83 -47 212 -47q81 0 169.5 14
t178.5 32q133 25 185 34q88 14 168 14q172 0 264 -90q7 -8 7 -17q0 -10 -7.5 -17.5t-16.5 -7.5q-10 0 -18 7q-77 76 -230 76q-75 0 -160.5 -14t-176.5 -32q-95 -19 -187.5 -33.5t-176.5 -14.5q-125 0 -213 41q-27 -50 -64 -102q-80 -110 -150 -110zM169 235q53 14 75 42
q-30 -5 -61 -30q-7 -5 -14 -12zM89 324q100 86 178 206q60 97 60 174q0 33 -11 57q-12 28 -33 39q-12 7 -26 7q-70 0 -117 -132q-46 -159 -50 -325z" />
    <glyph glyph-name="l.2" unicode="&#xe05f;" horiz-adv-x="1742" 
d="M217 -35q-36 0 -68 20q-47 30 -77 98q-38 86 -38 222q0 174 66 377q25 74 63 114q50 54 110 54q28 0 53 -13q37 -20 58 -64q15 -33 15 -77q0 -90 -64 -193q-69 -101 -145 -167q-69 -61 -106 -84q7 -90 33 -149q23 -55 58 -77q19 -12 41 -12q100 0 210 217l4 6q9 12 21 12
q7 0 13 -3q83 -47 211 -47q82 0 172.5 14.5t182 33t179 33t166.5 14.5q172 0 265 -91q8 -8 8 -17q0 -10 -8 -17.5t-17 -7.5q-10 0 -17 7q-78 76 -231 76q-76 0 -161.5 -14t-174.5 -32q-95 -19 -187 -33.5t-176 -14.5q-126 0 -214 42q-102 -191 -202 -220q-22 -7 -43 -7z
M82 311q124 88 211 218q58 92 58 166q0 34 -12 58q-13 28 -36 40q-14 8 -30 8q-77 0 -126 -134q-65 -203 -65 -356z" />
    <glyph glyph-name="m.2" unicode="&#xe060;" horiz-adv-x="2007" 
d="M540 12q-60 0 -60 99q0 28 3 61q2 38 2 70q0 24 -2.5 41t-12.5 18q-28 0 -75 -99l-40 -89q-27 -66 -48 -90q-10 -9 -20 -9t-19 9v1q-11 15 -14 66t-4 105q0 91 -10 124q-6 20 -10 20q-7 0 -18 -15q-14 -18 -25 -41q-22 -47 -48 -156q-11 -45 -22 -76t-24 -37
q-5 -2 -10 -2q-31 3 -38 44q-5 26 -5 63v24q0 58 4.5 119t8.5 89q2 9 9 14.5t16 5.5q11 0 17.5 -8t6.5 -17v-4q-5 -27 -9.5 -86.5t-4.5 -115.5v-12l3 11q26 108 53 166q37 83 86 83l12 -1q54 -10 57 -152l1 -124l4 8q22 55 53 116q58 115 114 115l12 -1q31 -8 41 -40.5
t10 -74.5q0 -30 -2 -61l-3 -64q0 -24 4 -38l1 -1q2 -8 6 -8q17 0 51.5 30.5t63.5 69t41 64.5l3 8q9 12 22 12q6 0 11 -3q84 -47 214 -47q82 0 172 14.5t181 32.5t179 32.5t168 14.5q171 0 263 -90q8 -8 8 -18q0 -9 -8 -16.5t-17 -7.5q-10 0 -17 7q-77 76 -230 76
q-75 0 -161 -14t-176 -32q-95 -19 -187.5 -33.5t-176.5 -14.5q-125 0 -213 41q-17 -31 -46 -67.5t-61 -65.5q-50 -43 -84 -43z" />
    <glyph glyph-name="n.2" unicode="&#xe061;" horiz-adv-x="1820" 
d="M95 210q26 82 60 122q41 45 79 54q9 2 18 2q17 0 32 -7q22 -11 34 -38q11 -23 11 -59q0 -21 -5 -48q-13 -73 -13 -119q0 -37 7 -57q6 -15 11 -18q2 -1 5 -1t6 1q22 6 49 41q23 29 48 69v1q22 35 40 74q2 6 3 10q9 12 21 12q7 0 13 -3q45 -25 98.5 -36t113.5 -11
q82 0 172 14.5t182 33.5q2 0 4 1q90 18 177 31.5t165 13.5q79 0 146.5 -20t118.5 -70q7 -8 7 -17q0 -10 -7 -18q-8 -7 -17 -7q-10 0 -18 7q-43 42 -102 59t-129 17q-76 0 -161.5 -14t-174.5 -32q-93 -19 -185 -33.5t-177 -14.5q-58 0 -112 9.5t-101 31.5q-17 -34 -35 -64
q-27 -44 -52 -75q-37 -45 -72 -57q-11 -4 -21 -4q-16 0 -30 9q-21 12 -32 44q-10 27 -10 73q0 51 14 128q4 21 4 38q0 25 -7 40q-5 11 -11 14q-4 2 -9 2q-4 0 -7 -1q-24 -5 -54 -39q-27 -32 -50 -103q-24 -79 -35 -169q-2 -10 -5 -16q-14 -20 -25 -20q-15 0 -23 36
q-1 4 -2 11q-1 9 -3 21q-4 39 -4 99q0 90 17 203q2 9 9.5 14.5t15.5 5.5h4q9 -2 14.5 -9.5t5.5 -15.5v-4q-13 -73 -16 -142z" />
    <glyph glyph-name="o.2" unicode="&#xe062;" horiz-adv-x="1705" 
d="M168 -6q-33 0 -62.5 17.5t-48.5 52.5t-19 87v8q0 74 41 141q32 53 90 57l15 -1q13 4 26 4q34 0 59 -27q45 -47 45 -139q0 -19 -1 -33q15 -5 31 -5q57 0 93 74q8 16 28 16q7 0 13 -3q84 -47 214 -47q82 0 171.5 14.5t180.5 32.5t179 32.5t168 14.5q172 0 264 -90
q7 -8 7 -17q0 -10 -7.5 -17.5t-16.5 -7.5q-10 0 -18 7q-77 75 -230 75q-76 0 -162 -13.5t-175 -31.5q-93 -19 -185.5 -34t-178.5 -15q-128 0 -217 44q-48 -85 -123 -85q-24 0 -47 8q-20 -70 -80 -105q-27 -14 -54 -14zM166 43q17 0 33 9q43 26 58 81q-35 21 -62 51
q-35 39 -49 77q-7 19 -8 34q-10 -9 -18 -22q-32 -53 -33 -118q0 -43 15 -70q11 -21 28.5 -31.5t35.5 -10.5zM265 186l1 7q0 35 -10 66q-7 25 -22 40q-11 11 -26 11q-6 0 -13 -2h-2q-5 -3 -5 -10q0 -8 4 -20q17 -46 73 -92z" />
    <glyph glyph-name="p.2" unicode="&#xe063;" horiz-adv-x="1815" 
d="M103 -451q-15 0 -24 15q-31 86 -33 287q-1 48 -1 97q0 126 5.5 240t10.5 168q1 10 8 16t17 6q11 -1 17.5 -8t6.5 -18q-4 -35 -7 -97q34 125 91 147q20 9 39 9q41 0 76 -35q60 -61 60 -147q0 -32 -11 -69q43 0 80.5 13t59.5 57l1 4q9 12 22 12q6 0 12 -3q81 -47 212 -47
q81 0 170 14t179 32l5 1q91 18 179 32.5t168 14.5q172 0 264 -90q7 -8 7 -17q0 -10 -7.5 -17.5t-16.5 -7.5q-10 0 -18 7q-78 76 -230 76q-75 0 -159 -13.5t-172 -31.5l-13 -2q-92 -19 -182.5 -33t-174.5 -14q-124 0 -213 41q-35 -53 -86 -66q-46 -12 -99 -12h-8
q-12 -21 -25 -38q-50 -55 -104 -63q-14 -2 -26 -2q-40 0 -57 23l-3 -68q-1 -63 -1 -129q0 -132 4 -257q0 -16 -14 -25q-5 -2 -9 -2zM183 55q49 0 92 48q1 3 4 5q-53 -1 -97 -28q-15 -11 -17 -19l-1 -1l2 -1q6 -4 17 -4zM130 99q10 11 25 21q35 23 73.5 30.5t77.5 8.5
q14 37 14 71q0 65 -45 111q-21 21 -43 21q-9 0 -17 -4q-42 -15 -70 -139q-9 -49 -15 -120z" />
    <glyph glyph-name="q.2" unicode="&#xe064;" horiz-adv-x="1853" 
d="M362 -451q-25 0 -50.5 19.5t-44.5 68t-22 128.5l-1 48q0 143 14 279l3 38q-58 -121 -109 -148q-23 -13 -43 -13q-12 0 -22 4q-29 12 -44.5 46t-15.5 86q0 63 28.5 144t61 113.5t63.5 32.5q14 0 27 -5q44 -19 74 -71q4 32 7 52.5t4.5 30.5t8.5 15.5t15 5.5q13 -1 19 -8
t6 -16v-3q-23 -152 -38 -349q-2 -21 -2 -41q59 39 114.5 91t96.5 134l3 4q9 11 20 11q7 0 13 -3q83 -47 212 -47q81 0 170 14t179 32l184 34q88 14 168 14q171 0 264 -90q7 -8 7 -17q0 -10 -7.5 -17.5t-16.5 -7.5q-10 0 -18 7q-77 76 -230 76q-75 0 -160.5 -14t-178.5 -32.5
t-185.5 -33t-177.5 -14.5q-125 0 -213 41q-46 -83 -105 -135.5t-125 -96.5q-8 -5 -8 -7q0 -3 13 -8q27 -10 38 -26l33 -50q64 -100 64 -187q0 -36 -11 -63q-19 -46 -54 -60q-14 -6 -28 -6zM109 18q7 0 18 6q62 34 129 225l2 5h-2q-6 23 -24.5 51.5t-40.5 37.5q-5 2 -10 2
q-40 0 -80 -111q-25 -75 -25 -130q0 -40 12 -65q9 -21 21 -21zM362 -402q5 0 9 2q17 8 27 33q8 20 8 47q0 31 -13 71t-43 87l-32 50l-22 32q-2 -59 -2 -114q1 -168 49 -200q10 -8 19 -8z" />
    <glyph glyph-name="r.2" unicode="&#xe065;" horiz-adv-x="1681" 
d="M89 382l2 22q0 33 -17 33q-11 0 -22 -9.5t-13 -21.5q0 -6 10.5 -13t39.5 -11zM395 243q5 2 11 3q6 0 12 -3q45 -25 98.5 -36t113.5 -11q82 0 171.5 14.5t180.5 33.5q91 18 179 32.5t168 14.5q79 0 147 -20.5t119 -70.5q7 -8 7 -17q0 -10 -7.5 -17t-16.5 -7q-10 0 -18 7
q-42 42 -101 58.5t-129 16.5q-75 0 -161 -13.5t-177 -31.5q-93 -19 -185.5 -34t-175.5 -15q-59 0 -112.5 9.5t-101.5 32.5v1q-14 -31 -38 -72q-32 -56 -74 -98q-40 -38 -72 -38q-41 0 -58.5 45.5t-17.5 109.5q0 50 7.5 102t19.5 89q-13 1 -25 1q-14 1 -34 2
q-11 -51 -42 -123q-8 -15 -22 -15q-11 0 -18 7t-7 17q0 5 2 10q28 65 40 107q-2 1 -3 1h-2q-46 8 -65 28t-19 43q0 30 26.5 55t58.5 25q24 0 42.5 -19.5t18.5 -65.5l-1 -22q30 0 56 -2.5t37 -7.5q15 -8 15 -22q0 -6 -3 -14l-2 -2q-13 -27 -22 -80t-9 -108q0 -44 8 -78
t19 -34q14 0 42 28t52 68q37 61 53 102q6 11 15 14z" />
    <glyph glyph-name="s.2" unicode="&#xe066;" horiz-adv-x="1588" 
d="M47 -167q-33 0 -56.5 25.5t-23.5 61.5q0 38 31 85q48 59 116 80q-23 56 -53 105l-8 15q-44 74 -44 116q0 37 22 59q33 30 72 30q55 -2 76 -44q4 -11 4 -23q0 -32 -31 -74q-9 -10 -20 -10q-8 0 -16 7t-8 18q0 8 6 15q20 27 20 42q0 19 -31 20q-19 0 -36 -14q-9 -9 -9 -26
q0 -15 8.5 -35.5t36.5 -71.5q32 -52 57 -111q45 16 86.5 43.5t70.5 83.5l2 4q9 12 21 12q7 0 13 -3q83 -47 211 -47q83 0 173 14.5t181.5 33t179 33t166.5 14.5q173 0 266 -91q7 -8 7 -17t-7.5 -16.5t-16.5 -7.5q-10 0 -18 7q-78 75 -231 75q-76 0 -161.5 -13.5
t-174.5 -31.5q-93 -19 -185.5 -34t-177.5 -15q-126 0 -214 42q-36 -58 -81.5 -87t-94.5 -46q2 -9 3.5 -17.5t2 -16.5t0.5 -14q0 -41 -15 -80q-18 -45 -55 -72q-34 -23 -64 -23zM48 -118q15 0 35 14q25 18 37 49.5t12 61.5q0 15 -4 31q-55 -19 -90 -62q-22 -32 -22 -57
q0 -16 9.5 -26.5t22.5 -10.5z" />
    <glyph glyph-name="t.2" unicode="&#xe067;" horiz-adv-x="1634" 
d="M151 -12q-51 0 -78 63q-28 70 -28 207q0 120 16 245q-79 -10 -142 -10q-110 0 -131 43q-2 5 -2 10q0 14 15 23q5 2 10 2q14 0 22 -15q12 -16 69 -16q65 0 165 13q14 107 21 141q2 9 8.5 15t14.5 6q13 0 19 -8t6 -17q0 -6 -2 -16q-6 -37 -17 -115l15 1q153 19 220 19
q38 0 66 -5q54 -10 54 -37q0 -8 -5 -15q-9 -10 -20 -10q-8 0 -15 6q-20 13 -73 13q-82 0 -210 -18l-38 -5q-16 -127 -16 -251q0 -128 24 -187q12 -33 36 -33q20 1 49 23q41 32 78 78q44 56 60 91q3 7 9.5 12t16.5 5q6 0 11 -3q84 -47 214 -47q82 0 171.5 14.5t180.5 32.5
t179 32.5t168 14.5q172 0 264 -90q7 -8 7 -17q0 -10 -7.5 -17.5t-16.5 -7.5q-10 0 -18 7q-77 75 -230 75q-76 0 -162 -13.5t-177 -32t-183 -33.5t-177 -15q-127 0 -216 43q-20 -37 -56 -82q-40 -50 -85 -84.5t-84 -34.5z" />
    <glyph glyph-name="u.2" unicode="&#xe068;" horiz-adv-x="1847" 
d="M129 -10q-39 1 -63.5 40t-24.5 127q0 69 18 171q2 9 9.5 14.5t15.5 5.5q12 -1 18 -9t6 -16v-4q-19 -102 -19 -166q0 -69 18 -97q11 -16 23 -17q17 0 41 19q42 33 79 106t55 173q2 9 8.5 15t14.5 6l5 -1q20 -6 20 -24v-2h1q-10 -67 -10 -158q0 -32 3 -61q6 -69 27 -69
q18 2 40 24q36 34 67.5 81t45.5 81l1 2q9 15 24 15q6 0 12 -3q83 -47 212 -47q81 0 169.5 14t178.5 32q133 25 185 34q88 14 168 14q172 0 264 -90q7 -8 7 -17q0 -10 -7.5 -17.5t-16.5 -7.5q-10 0 -18 7q-77 76 -230 76q-75 0 -160.5 -14t-176.5 -32q-95 -19 -187.5 -33.5
t-176.5 -14.5q-125 0 -213 41q-19 -38 -50 -82q-78 -113 -139 -113q-26 0 -47 24.5t-28 89.5q-2 19 -2 40q-44 -87 -95 -127q-37 -30 -72 -30z" />
    <glyph glyph-name="v.2" unicode="&#xe069;" horiz-adv-x="1736" 
d="M152 3q-44 0 -76 93q-27 69 -40 151q-6 36 -6 69q0 59 15 72q6 5 15 5l5 -1q19 -4 19 -27q-4 -22 -4 -46q0 -30 5 -64q12 -78 37 -142q21 -55 31 -61q7 0 34 43q33 54 49 118l-2 4q-4 5 -6 10q-34 72 -34 128q0 41 21 63q16 15 32 15q30 0 43 -33q10 -25 10 -73
q0 -46 -12 -105q23 -33 52 -46q19 -9 37 -9q55 0 85 63q9 16 26 16q6 0 12 -3q81 -47 212 -47q81 0 169.5 14t178.5 32q4 0 7 1q91 18 179 32.5t168 14.5q171 0 263 -90q8 -8 8 -17q0 -10 -8 -17.5t-17 -7.5t-17 7q-78 76 -230 76q-75 0 -159.5 -13.5t-172.5 -31.5l-5 -1
q-93 -19 -185.5 -34t-178.5 -15q-126 0 -216 43q-46 -71 -119 -71q-55 0 -105 46q-16 -52 -43 -95q-41 -66 -77 -66zM247 384l1 1h-1v-1zM250 307l1 20q0 32 -6 50q-2 -6 -2 -17q0 -23 7 -53z" />
    <glyph glyph-name="w.2" unicode="&#xe06a;" horiz-adv-x="1905" 
d="M325 -8q-25 0 -47 20q-29 27 -44 110q-33 -114 -91 -114q-43 0 -73 57t-30 150q0 72 24 156q7 17 23 17q12 0 20 -10q5 -7 5 -15q0 -4 -1 -7q-22 -77 -22 -141q0 -79 25 -127q14 -30 28 -30q4 0 7 2q27 15 47 116q14 67 25 84t25 17q9 0 19 -9q7 -6 10 -18l1 -42
q0 -16 2 -34q11 -132 49 -132q14 1 34 21q42 45 68 132q-34 45 -45 116q-2 13 -2 24q0 41 17 60l1 2q14 15 32 15h4q18 0 34 -18q24 -29 24 -93q0 -39 -11 -94q37 -37 82 -37q54 0 85 60q2 4 5 7q8 9 19 9q6 0 12 -3q83 -47 212 -47q81 0 169.5 14t178.5 32q139 26 186 34
q88 14 168 14q171 0 263 -90q8 -8 8 -17q0 -10 -8 -17.5t-17 -7.5t-17 7q-77 76 -230 76q-75 0 -159.5 -13.5t-172.5 -31.5q-96 -19 -189 -34.5t-179 -15.5q-127 0 -216 43q-45 -69 -118 -69q-52 0 -97 35q-30 -82 -72 -126q-37 -37 -71 -37zM443 272l1 31q0 41 -10 56
q-3 -8 -3 -23q0 -28 12 -64z" />
    <glyph glyph-name="x.2" unicode="&#xe06b;" horiz-adv-x="1723" 
d="M71 -25l-8 1q-16 8 -16 23q0 4 2 9q25 68 66 152q-12 15 -22 31l-9 12q-32 53 -50 100.5t-18 65.5q0 11 7.5 18t17.5 7t17 -7t7 -19t16 -52q24 -60 59 -108q20 35 41 66q72 102 135 102q12 0 18.5 -7t6.5 -18q0 -10 -7 -17t-19 -7q-20 0 -44 -22.5t-49 -58.5t-48 -79
q20 -19 43 -33q29 -16 58 -16q26 0 50 12q51 26 84 83l11 21q9 12 21 12q7 0 13 -3q83 -47 212 -47q82 0 172 14.5t181.5 33t179 33t166.5 14.5q173 0 266 -91q7 -8 7 -17q0 -10 -7.5 -17.5t-17.5 -7.5q-9 0 -17 7q-77 76 -231 76q-76 0 -161.5 -13.5t-174.5 -31.5
q-93 -19 -185.5 -34t-177.5 -15q-126 0 -214 42v-1q-42 -70 -106 -102q-35 -17 -72 -17q-35 0 -70 16l-11 7q-23 12 -42 30q-35 -72 -57 -131q-8 -16 -23 -16z" />
    <glyph glyph-name="y.2" unicode="&#xe06c;" horiz-adv-x="1747" 
d="M104 -447q-20 0 -34 7l-3 1q-34 16 -47 61q-4 16 -4 38q0 27 9 63.5t30 83.5q49 104 108.5 162t120.5 96v22q0 54 -7 100q-34 -64 -79 -103q-36 -31 -70 -31q-65 0 -83 100q-5 29 -5 62q0 63 16 129q7 18 23 18q4 0 7 -1q19 -7 19 -23l-1 -6q-15 -59 -15 -119
q0 -28 4 -52q11 -59 35 -59q18 1 39 19q60 54 90 148q3 10 13 15q5 3 11 3q13 0 22 -14q29 -69 30 -174q74 46 117 130q11 17 26 17q6 0 11 -3q83 -47 212 -47q81 0 169.5 14t178.5 32q131 25 186 34q88 14 167 14q172 0 264 -90q8 -8 8 -17q0 -10 -8 -17.5t-17 -7.5
q-10 0 -18 7q-77 76 -229 76q-75 0 -161 -14t-176 -32q-96 -19 -191 -34q-90 -14 -174 -14q-125 0 -213 41q-29 -51 -68.5 -85.5t-84.5 -63.5l-2 -31q-18 -197 -71 -314q-69 -141 -155 -141zM104 -397q56 0 111 112q48 106 65 288q-49 -33 -95.5 -83t-85.5 -133
q-34 -78 -34 -128q0 -43 23 -53q4 -3 16 -3z" />
    <glyph glyph-name="z.2" unicode="&#xe06d;" horiz-adv-x="1733" 
d="M105 -340q-24 0 -43 13q-27 18 -41 53q-11 29 -11 65q0 75 45 146q44 66 99.5 100t113.5 57l23 11q-8 48 -52 48q-37 -2 -69 -18l-2 -1q-6 -2 -11 -2q-12 0 -21 11q-3 6 -3 13q0 12 11 21q8 5 18 9q51 20 78 69q12 25 12 41q0 8 -3 14q-9 15 -45 17q-25 0 -45 -6.5
t-28 -17.5t-20 -11q-7 0 -13 3q-11 9 -11 21q0 7 3 13q14 21 47 34t69 13q27 -1 47 -9q24 -10 38 -31q11 -16 11 -40q0 -27 -18 -64q-10 -18 -21 -31q54 -5 74 -74q67 31 105 103q3 6 8 9q7 7 16 7q7 0 13 -3q83 -47 212 -47q81 0 169.5 14t178.5 32q131 25 186 34
q88 14 167 14q172 0 264 -90q8 -8 8 -17q0 -10 -8 -17.5t-17 -7.5q-10 0 -18 7q-77 76 -229 76q-75 0 -159.5 -13.5t-172.5 -31.5q-96 -19 -189 -34.5t-179 -15.5q-127 0 -216 43q-26 -43 -60.5 -69.5t-73.5 -45.5q-2 -43 -19 -108q-18 -68 -49 -138q-37 -77 -74 -117
q-49 -51 -95 -51zM107 -291q54 0 122 140q29 65 46 129q12 41 16 73l-4 -2q-52 -21 -102 -51.5t-89 -87.5q-37 -64 -37 -117q0 -27 8 -49q12 -35 40 -35z" />
    </font>
</defs>
</svg>
